<svg height="24" viewBox="0 0 24 24" width="24" xmlns="http://www.w3.org/2000/svg"><g fill="none" fill-rule="evenodd"><path d="m18.4361148 1.5c1.0392637 0 1.6307101.11421358 2.2481292.44441291.5873286.31410679 1.0572363.78401446 1.3713431 1.3713431.3301993.61741907.4444129 1.2088655.4444129 2.24812919v12.8722296c0 1.0392637-.1142136 1.6307101-.4444129 2.2481292-.3141068.5873286-.7840145 1.0572363-1.3713431 1.3713431-.6174191.3301993-1.2088655.4444129-2.2481292.4444129h-12.8722296c-1.03926369 0-1.63071012-.1142136-2.24812919-.4444129-.58732864-.3141068-1.05723631-.7840145-1.3713431-1.3713431-.33019933-.6174191-.44441291-1.2088655-.44441291-2.2481292v-12.8722296c0-1.03926369.11421358-1.63071012.44441291-2.24812919.31410679-.58732864.78401446-1.05723631 1.3713431-1.3713431.61741907-.33019933 1.2088655-.44441291 2.24812919-.44441291zm0 1.5h-12.8722296c-.89151874 0-1.21480498.09282561-1.5407309.2671327-.32592593.1743071-.5817145.43009567-.7560216.7560216-.17430709.32592592-.2671327.64921216-.2671327 1.5407309v12.8722296c0 .8915187.09282561 1.214805.2671327 1.5407309.1743071.3259259.43009567.5817145.7560216.7560216.32592592.1743071.64921216.2671327 1.5407309.2671327h12.8722296c.8915187 0 1.214805-.0928256 1.5407309-.2671327s.5817145-.4300957.7560216-.7560216.2671327-.6492122.2671327-1.5407309v-12.8722296c0-.89151874-.0928256-1.21480498-.2671327-1.5407309-.1743071-.32592593-.4300957-.5817145-.7560216-.7560216-.3259259-.17430709-.6492122-.2671327-1.5407309-.2671327z" fill="#000" fill-rule="nonzero"/><path d="m18.9361148 2.5c.8915187 0 1.214805.09282561 1.5407309.2671327.3259259.1743071.5817145.43009567.7560216.7560216.1743071.32592592.2671327.64921216.2671327 1.5407309v13.8722296c0 .8915187-.0928256 1.214805-.2671327 1.5407309s-.4300957.5817145-.7560216.7560216-.6492122.2671327-1.5407309.2671327h-13.8722296c-.89151874 0-1.21480498-.0928256-1.5407309-.2671327-.32592593-.1743071-.5817145-.4300957-.7560216-.7560216-.17430709-.3259259-.2671327-.6492122-.2671327-1.5407309v-13.8722296c0-.89151874.09282561-1.21480498.2671327-1.5407309.1743071-.32592593.43009567-.5817145.7560216-.7560216.32592592-.17430709.64921216-.2671327 1.5407309-.2671327zm.0638852 16c-.2761424 0-.5.2238576-.5.5s.2238576.5.5.5.5-.2238576.5-.5-.2238576-.5-.5-.5zm-4 0c-.2761424 0-.5.2238576-.5.5s.2238576.5.5.5.5-.2238576.5-.5-.2238576-.5-.5-.5zm-4 0c-.2761424 0-.5.2238576-.5.5s.2238576.5.5.5.5-.2238576.5-.5-.2238576-.5-.5-.5zm-4 0c-.27614237 0-.5.2238576-.5.5s.22385763.5.5.5.5-.2238576.5-.5-.22385763-.5-.5-.5zm10-2c-.2761424 0-.5.2238576-.5.5s.2238576.5.5.5.5-.2238576.5-.5-.2238576-.5-.5-.5zm-4 0c-.2761424 0-.5.2238576-.5.5s.2238576.5.5.5.5-.2238576.5-.5-.2238576-.5-.5-.5zm-4 0c-.27614237 0-.5.2238576-.5.5s.22385763.5.5.5.5-.2238576.5-.5-.22385763-.5-.5-.5zm-4 0c-.27614237 0-.5.2238576-.5.5s.22385763.5.5.5.5-.2238576.5-.5-.22385763-.5-.5-.5zm14-2c-.2761424 0-.5.2238576-.5.5s.2238576.5.5.5.5-.2238576.5-.5-.2238576-.5-.5-.5zm-12 0c-.27614237 0-.5.2238576-.5.5s.22385763.5.5.5.5-.2238576.5-.5-.22385763-.5-.5-.5zm6.7180574-5.5h-3.4361148c-.44575937 0-.60740249.04641281-.77036545.13356635-.16296296.08715355-.29085725.21504784-.3780108.3780108-.08715354.16296296-.13356635.32460608-.13356635.77036545v3.4361148c0 .4457594.04641281.6074025.13356635.7703655.08715355.1629629.21504784.2908572.3780108.3780107.16296296.0871536.32460608.1335664.77036545.1335664h3.4361148c.4457594 0 .6074025-.0464128.7703655-.1335664.1629629-.0871535.2908572-.2150478.3780107-.3780107.0871536-.162963.1335664-.3246061.1335664-.7703655v-3.4361148c0-.44575937-.0464128-.60740249-.1335664-.77036545-.0871535-.16296296-.2150478-.29085725-.3780107-.3780108-.162963-.08715354-.3246061-.13356635-.7703655-.13356635zm3.2819426 3.5c-.2761424 0-.5.2238576-.5.5s.2238576.5.5.5.5-.2238576.5-.5-.2238576-.5-.5-.5zm-12 0c-.27614237 0-.5.2238576-.5.5s.22385763.5.5.5.5-.2238576.5-.5-.22385763-.5-.5-.5zm14-2c-.2761424 0-.5.2238576-.5.5s.2238576.5.5.5.5-.2238576.5-.5-.2238576-.5-.5-.5zm-12 0c-.27614237 0-.5.2238576-.5.5s.22385763.5.5.5.5-.2238576.5-.5-.22385763-.5-.5-.5zm10-2c-.2761424 0-.5.22385763-.5.5s.2238576.5.5.5.5-.22385763.5-.5-.2238576-.5-.5-.5zm-12 0c-.27614237 0-.5.22385763-.5.5s.22385763.5.5.5.5-.22385763.5-.5-.22385763-.5-.5-.5zm14-2c-.2761424 0-.5.22385763-.5.5s.2238576.5.5.5.5-.22385763.5-.5-.2238576-.5-.5-.5zm-4 0c-.2761424 0-.5.22385763-.5.5s.2238576.5.5.5.5-.22385763.5-.5-.2238576-.5-.5-.5zm-4 0c-.2761424 0-.5.22385763-.5.5s.2238576.5.5.5.5-.22385763.5-.5-.2238576-.5-.5-.5zm-4 0c-.27614237 0-.5.22385763-.5.5s.22385763.5.5.5.5-.22385763.5-.5-.22385763-.5-.5-.5zm10-2c-.2761424 0-.5.22385763-.5.5s.2238576.5.5.5.5-.22385763.5-.5-.2238576-.5-.5-.5zm-4 0c-.2761424 0-.5.22385763-.5.5s.2238576.5.5.5.5-.22385763.5-.5-.2238576-.5-.5-.5zm-4 0c-.27614237 0-.5.22385763-.5.5s.22385763.5.5.5.5-.22385763.5-.5-.22385763-.5-.5-.5zm-4 0c-.27614237 0-.5.22385763-.5.5s.22385763.5.5.5.5-.22385763.5-.5-.22385763-.5-.5-.5z" fill="#000"/><g stroke="#000" stroke-linecap="round" stroke-linejoin="round" stroke-width="2.5"><path d="m1.5 21.5 1 1" transform="matrix(-1 0 0 1 4 0)"/><path d="m21.5 21.5 1 1"/><path d="m21.5 1.5 1 1" transform="matrix(-1 0 0 1 44 0)"/><path d="m1.5 1.5 1 1"/></g></g></svg>