<?xml version="1.0" encoding="UTF-8"?>
<svg width="24px" height="24px" viewBox="0 0 24 24" version="1.1" xmlns="http://www.w3.org/2000/svg" xmlns:xlink="http://www.w3.org/1999/xlink">
    <title>Icons / 24 / Case</title>
    <g id="Icons-/-24-/-Case" stroke="none" stroke-width="1" fill="none" fill-rule="evenodd">
        <g id="Color" transform="translate(2, 2)" stroke="#FFEED6" stroke-width="1.5">
            <path d="M10,-0.75 C12.9685305,-0.75 15.6560305,0.453234735 17.6013979,2.3986021 C19.5467653,4.34396947 20.75,7.03146947 20.75,10 C20.75,12.9685305 19.5467653,15.6560305 17.6013979,17.6013979 C15.6560305,19.5467653 12.9685305,20.75 10,20.75 C7.03146947,20.75 4.34396947,19.5467653 2.3986021,17.6013979 C0.453234735,15.6560305 -0.75,12.9685305 -0.75,10 C-0.75,7.03146947 0.453234735,4.34396947 2.3986021,2.3986021 C4.34396947,0.453234735 7.03146947,-0.75 10,-0.75 Z" id="Rectangle"></path>
            <path d="M6.81801948,6.81801948 C6.60995933,7.02607964 6.42217844,7.25441905 6.25789602,7.49981849 C6.09489207,7.74330822 5.95502228,8.00359348 5.84143131,8.27752964 C5.62142627,8.80809414 5.5,9.38986676 5.5,10 C5.5,12.4852814 7.51471863,14.5 10,14.5 C12.4852814,14.5 14.5,12.4852814 14.5,10 C14.5,9.38986676 14.3785737,8.80809414 14.1585687,8.27752964 C14.0449777,8.00359348 13.9051079,7.74330822 13.742104,7.49981849 C13.5778216,7.25441905 13.3900407,7.02607964 13.1819805,6.81801948" id="Path" stroke-linecap="round"></path>
            <line x1="10" y1="4.5" x2="10" y2="9" id="Path-2" stroke-linecap="round" stroke-linejoin="round"></line>
        </g>
    </g>
</svg>