<svg height="24" viewBox="0 0 24 24" width="24" xmlns="http://www.w3.org/2000/svg"><g fill="none" fill-rule="evenodd" stroke="#000" stroke-width="1.5" transform="translate(2 2)"><path d="m10-.75c2.9685305 0 5.6560305 1.20323474 7.6013979 3.1486021 1.9453674 1.94536737 3.1486021 4.63286737 3.1486021 7.6013979 0 2.9685305-1.2032347 5.6560305-3.1486021 7.6013979s-4.6328674 3.1486021-7.6013979 3.1486021c-2.96853053 0-5.65603053-1.2032347-7.6013979-3.1486021-1.94536736-1.9453674-3.1486021-4.6328674-3.1486021-7.6013979 0-2.96853053 1.20323474-5.65603053 3.1486021-7.6013979 1.94536737-1.94536736 4.63286737-3.1486021 7.6013979-3.1486021z"/><g stroke-linecap="round"><path d="m6.81801948 6.81801948c-.20806015.20806016-.39584104.43639957-.56012346.68179901-.16300395.24348973-.30287374.50377499-.41646471.77771115-.22000504.5305645-.34143131 1.11233712-.34143131 1.72247036 0 2.4852814 2.01471863 4.5 4.5 4.5 2.4852814 0 4.5-2.0147186 4.5-4.5 0-.61013324-.1214263-1.19190586-.3414313-1.72247036-.113591-.27393616-.2534608-.53422142-.4164647-.77771115-.1642824-.24539944-.3520633-.47373885-.5601235-.68179901"/><path d="m10 4.5v4.5" stroke-linejoin="round"/></g></g></svg>