<?xml version="1.0" encoding="UTF-8"?>
<svg width="24px" height="24px" viewBox="0 0 24 24" version="1.1" xmlns="http://www.w3.org/2000/svg" xmlns:xlink="http://www.w3.org/1999/xlink">
    <title>Icons / 24 / CPU</title>
    <g id="Icons-/-24-/-CPU" stroke="none" stroke-width="1" fill="none" fill-rule="evenodd">
        <g id="Color" fill="#FFEED6" fill-rule="nonzero">
            <path d="M10.75,23.25 C10.75,23.6642136 10.4142136,24 10,24 C9.58578644,24 9.25,23.6642136 9.25,23.25 L9.25,21.75 L7.75,21.75 L7.75,23.25 C7.75,23.6642136 7.41421356,24 7,24 C6.58578644,24 6.25,23.6642136 6.25,23.25 L6.25,21.75 L4.75,21.75 C3.36928813,21.75 2.25,20.6307119 2.25,19.25 L2.25,4.75 C2.25,3.36928813 3.36928813,2.25 4.75,2.25 L19.25,2.25 C20.6307119,2.25 21.75,3.36928813 21.75,4.75 L21.75,6.25 L23.25,6.25 C23.6642136,6.25 24,6.58578644 24,7 C24,7.41421356 23.6642136,7.75 23.25,7.75 L21.75,7.75 L21.75,9.25 L23.25,9.25 C23.6642136,9.25 24,9.58578644 24,10 C24,10.4142136 23.6642136,10.75 23.25,10.75 L21.75,10.75 L21.75,13.25 L23.25,13.25 C23.6642136,13.25 24,13.5857864 24,14 C24,14.4142136 23.6642136,14.75 23.25,14.75 L21.75,14.75 L21.75,16.25 L23.25,16.25 C23.6642136,16.25 24,16.5857864 24,17 C24,17.4142136 23.6642136,17.75 23.25,17.75 L21.75,17.75 L21.75,19.25 C21.75,20.6307119 20.6307119,21.75 19.25,21.75 L17.75,21.75 L17.75,23.25 C17.75,23.6642136 17.4142136,24 17,24 C16.5857864,24 16.25,23.6642136 16.25,23.25 L16.25,21.75 L14.75,21.75 L14.75,23.25 C14.75,23.6642136 14.4142136,24 14,24 C13.5857864,24 13.25,23.6642136 13.25,23.25 L13.25,21.75 L10.75,21.75 L10.75,23.25 Z M19.25,3.75 L4.75,3.75 C4.19771525,3.75 3.75,4.19771525 3.75,4.75 L3.75,19.25 C3.75,19.8022847 4.19771525,20.25 4.75,20.25 L19.25,20.25 C19.8022847,20.25 20.25,19.8022847 20.25,19.25 L20.25,4.75 C20.25,4.19771525 19.8022847,3.75 19.25,3.75 Z M0.75,17.75 C0.335786438,17.75 0,17.4142136 0,17 C0,16.5857864 0.335786438,16.25 0.75,16.25 L2.25,16.25 L2.25,17.75 L0.75,17.75 Z M0.75,14.75 C0.335786438,14.75 0,14.4142136 0,14 C0,13.5857864 0.335786438,13.25 0.75,13.25 L2.25,13.25 L2.25,14.75 L0.75,14.75 Z M0.75,10.75 C0.335786438,10.75 0,10.4142136 0,10 C0,9.58578644 0.335786438,9.25 0.75,9.25 L2.25,9.25 L2.25,10.75 L0.75,10.75 Z M0.75,7.75 C0.335786438,7.75 0,7.41421356 0,7 C0,6.58578644 0.335786438,6.25 0.75,6.25 L2.25,6.25 L2.25,7.75 L0.75,7.75 Z M16.25,0.75 C16.25,0.335786438 16.5857864,0 17,0 C17.4142136,0 17.75,0.335786438 17.75,0.75 L17.75,2.25 L16.25,2.25 L16.25,0.75 Z M13.25,0.75 C13.25,0.335786438 13.5857864,0 14,0 C14.4142136,0 14.75,0.335786438 14.75,0.75 L14.75,2.25 L13.25,2.25 L13.25,0.75 Z M9.25,0.75 C9.25,0.335786438 9.58578644,0 10,0 C10.4142136,0 10.75,0.335786438 10.75,0.75 L10.75,2.25 L9.25,2.25 L9.25,0.75 Z M6.25,0.75 C6.25,0.335786438 6.58578644,0 7,0 C7.41421356,0 7.75,0.335786438 7.75,0.75 L7.75,2.25 L6.25,2.25 L6.25,0.75 Z" id="Icon---CPU"></path>
        </g>
    </g>
</svg>