<svg height="24" viewBox="0 0 24 24" width="24" xmlns="http://www.w3.org/2000/svg"><path d="m10.75 23.25c0 .4142136-.3357864.75-.75.75-.41421356 0-.75-.3357864-.75-.75v-1.5h-1.5v1.5c0 .4142136-.33578644.75-.75.75s-.75-.3357864-.75-.75v-1.5h-1.5c-1.38071187 0-2.5-1.1192881-2.5-2.5v-14.5c0-1.38071187 1.11928813-2.5 2.5-2.5h14.5c1.3807119 0 2.5 1.11928813 2.5 2.5v1.5h1.5c.4142136 0 .75.33578644.75.75s-.3357864.75-.75.75h-1.5v1.5h1.5c.4142136 0 .75.33578644.75.75 0 .4142136-.3357864.75-.75.75h-1.5v2.5h1.5c.4142136 0 .75.3357864.75.75s-.3357864.75-.75.75h-1.5v1.5h1.5c.4142136 0 .75.3357864.75.75s-.3357864.75-.75.75h-1.5v1.5c0 1.3807119-1.1192881 2.5-2.5 2.5h-1.5v1.5c0 .4142136-.3357864.75-.75.75s-.75-.3357864-.75-.75v-1.5h-1.5v1.5c0 .4142136-.3357864.75-.75.75s-.75-.3357864-.75-.75v-1.5h-2.5zm8.5-19.5h-14.5c-.55228475 0-1 .44771525-1 1v14.5c0 .5522847.44771525 1 1 1h14.5c.5522847 0 1-.4477153 1-1v-14.5c0-.55228475-.4477153-1-1-1zm-18.5 14c-.41421356 0-.75-.3357864-.75-.75s.33578644-.75.75-.75h1.5v1.5zm0-3c-.41421356 0-.75-.3357864-.75-.75s.33578644-.75.75-.75h1.5v1.5zm0-4c-.41421356 0-.75-.3357864-.75-.75 0-.41421356.33578644-.75.75-.75h1.5v1.5zm0-3c-.41421356 0-.75-.33578644-.75-.75s.33578644-.75.75-.75h1.5v1.5zm15.5-7c0-.41421356.3357864-.75.75-.75s.75.33578644.75.75v1.5h-1.5zm-3 0c0-.41421356.3357864-.75.75-.75s.75.33578644.75.75v1.5h-1.5zm-4 0c0-.41421356.33578644-.75.75-.75.4142136 0 .75.33578644.75.75v1.5h-1.5zm-3 0c0-.41421356.33578644-.75.75-.75s.75.33578644.75.75v1.5h-1.5z"/></svg>