<?xml version="1.0" encoding="UTF-8"?>
<svg width="24px" height="24px" viewBox="0 0 24 24" version="1.1" xmlns="http://www.w3.org/2000/svg" xmlns:xlink="http://www.w3.org/1999/xlink">
    <title>Icons / 24 / Display</title>
    <g id="Icons-/-24-/-Display" stroke="none" stroke-width="1" fill="none" fill-rule="evenodd">
        <g id="Color" transform="translate(0, 2)" fill="#FFEED6">
            <path d="M21.5,0 C22.8807119,0 24,1.11928813 24,2.5 L24,13.5 C24,14.8807119 22.8807119,16 21.5,16 L14.5,16 L14.5,18.5 L17.25,18.5 C17.6642136,18.5 18,18.8357864 18,19.25 C18,19.6642136 17.6642136,20 17.25,20 L6.75,20 C6.33578644,20 6,19.6642136 6,19.25 C6,18.8357864 6.33578644,18.5 6.75,18.5 L9.5,18.5 L9.5,16 L2.5,16 C1.11928813,16 0,14.8807119 0,13.5 L0,2.5 C0,1.11928813 1.11928813,0 2.5,0 L21.5,0 Z M13,16 L11,16 L11,17 L13,17 L13,16 Z M21.5,1.5 L2.5,1.5 C1.94771525,1.5 1.5,1.94771525 1.5,2.5 L1.5,13.5 C1.5,14.0522847 1.94771525,14.5 2.5,14.5 L21.5,14.5 C22.0522847,14.5 22.5,14.0522847 22.5,13.5 L22.5,2.5 C22.5,1.94771525 22.0522847,1.5 21.5,1.5 Z" id="Display"></path>
        </g>
    </g>
</svg>