<svg height="24" viewBox="0 0 24 24" width="24" xmlns="http://www.w3.org/2000/svg"><path d="m21.5 0c1.3807119 0 2.5 1.11928813 2.5 2.5v11c0 1.3807119-1.1192881 2.5-2.5 2.5h-7v2.5h2.75c.4142136 0 .75.3357864.75.75s-.3357864.75-.75.75h-10.5c-.41421356 0-.75-.3357864-.75-.75s.33578644-.75.75-.75h2.75v-2.5h-7c-1.38071187 0-2.5-1.1192881-2.5-2.5v-11c0-1.38071187 1.11928813-2.5 2.5-2.5zm-8.5 16h-2v1h2zm8.5-14.5h-19c-.55228475 0-1 .44771525-1 1v11c0 .5522847.44771525 1 1 1h19c.5522847 0 1-.4477153 1-1v-11c0-.55228475-.4477153-1-1-1z" fill-rule="evenodd" transform="translate(0 2)"/></svg>