<?xml version="1.0" encoding="UTF-8"?>
<svg width="24px" height="24px" viewBox="0 0 24 24" version="1.1" xmlns="http://www.w3.org/2000/svg" xmlns:xlink="http://www.w3.org/1999/xlink">
    <title>Icons / 24 / Headset</title>
    <g id="Icons-/-24-/-Headset" stroke="none" stroke-width="1" fill="none" fill-rule="evenodd">
        <g id="Color" transform="translate(2.5, 1)">
            <path d="M16.3159514,7 L16.6840486,7 C17.2780468,7 17.6509198,7.09282561 17.9768457,7.2671327 C18.3027716,7.4414398 18.5585602,7.69722837 18.7328673,8.0231543 C18.9071744,8.34908022 19,8.72195321 19,9.31595144 L19,12.6840486 C19,13.2780468 18.9071744,13.6509198 18.7328673,13.9768457 C18.5585602,14.3027716 18.3027716,14.5585602 17.9768457,14.7328673 C17.6509198,14.9071744 17.2780468,15 16.6840486,15 L16.3159514,15 C15.7219532,15 15.3490802,14.9071744 15.0231543,14.7328673 C14.6972284,14.5585602 14.4414398,14.3027716 14.2671327,13.9768457 C14.0928256,13.6509198 14,13.2780468 14,12.6840486 L14,9.31595144 C14,8.72195321 14.0928256,8.34908022 14.2671327,8.0231543 C14.4414398,7.69722837 14.6972284,7.4414398 15.0231543,7.2671327 C15.3490802,7.09282561 15.7219532,7 16.3159514,7 Z" id="Rectangle" fill="#FFEED6"></path>
            <path d="M2.31595144,7 L2.68404856,7 C3.27804679,7 3.65091978,7.09282561 3.9768457,7.2671327 C4.30277163,7.4414398 4.5585602,7.69722837 4.7328673,8.0231543 C4.90717439,8.34908022 5,8.72195321 5,9.31595144 L5,12.6840486 C5,13.2780468 4.90717439,13.6509198 4.7328673,13.9768457 C4.5585602,14.3027716 4.30277163,14.5585602 3.9768457,14.7328673 C3.65091978,14.9071744 3.27804679,15 2.68404856,15 L2.31595144,15 C1.72195321,15 1.34908022,14.9071744 1.0231543,14.7328673 C0.697228371,14.5585602 0.441439796,14.3027716 0.267132704,13.9768457 C0.0928256112,13.6509198 1.70254554e-17,13.2780468 -1.93464458e-17,12.6840486 L3.86928915e-17,9.31595144 C-3.40509108e-17,8.72195321 0.0928256112,8.34908022 0.267132704,8.0231543 C0.441439796,7.69722837 0.697228371,7.4414398 1.0231543,7.2671327 C1.34908022,7.09282561 1.72195321,7 2.31595144,7 Z" id="Rectangle" fill="#FFEED6"></path>
            <path d="M16.5,7 C16.5,3.13400675 13.3659932,0 9.5,0 C5.63400675,0 2.5,3.13400675 2.5,7" id="Path" stroke="#FFEED6" stroke-width="1.5" stroke-linecap="round" stroke-linejoin="round"></path>
            <path d="M2.5,14.5 C2.5,17.8137085 5.1862915,21.25 8.5,21.25" id="Path" stroke="#FFEED6" stroke-linecap="round"></path>
            <path d="M8,19.5 L10,19.5 C10.8284271,19.5 11.5,20.1715729 11.5,21 C11.5,21.8284271 10.8284271,22.5 10,22.5 L8,22.5 C7.17157288,22.5 6.5,21.8284271 6.5,21 C6.5,20.1715729 7.17157288,19.5 8,19.5 Z" id="Rectangle" fill="#FFEED6"></path>
        </g>
    </g>
</svg>