<svg height="24" viewBox="0 0 24 24" width="24" xmlns="http://www.w3.org/2000/svg"><g fill="none" fill-rule="evenodd" transform="translate(2.5 1)"><path d="m16.3159514 7h.3680972c.5939982 0 .9668712.09282561 1.2927971.2671327.3259259.1743071.5817145.43009567.7560216.7560216.1743071.32592592.2671327.69879891.2671327 1.29279714v3.36809716c0 .5939982-.0928256.9668712-.2671327 1.2927971s-.4300957.5817145-.7560216.7560216-.6987989.2671327-1.2927971.2671327h-.3680972c-.5939982 0-.9668712-.0928256-1.2927971-.2671327s-.5817145-.4300957-.7560216-.7560216-.2671327-.6987989-.2671327-1.2927971v-3.36809716c0-.59399823.0928256-.96687122.2671327-1.29279714.1743071-.32592593.4300957-.5817145.7560216-.7560216.3259259-.17430709.6987989-.2671327 1.2927971-.2671327z" fill="#000"/><path d="m2.31595144 7h.36809712c.59399823 0 .96687122.09282561 1.29279714.2671327.32592593.1743071.5817145.43009567.7560216.7560216.17430709.32592592.2671327.69879891.2671327 1.29279714v3.36809716c0 .5939982-.09282561.9668712-.2671327 1.2927971-.1743071.3259259-.43009567.5817145-.7560216.7560216-.32592592.1743071-.69879891.2671327-1.29279714.2671327h-.36809712c-.59399823 0-.96687122-.0928256-1.29279714-.2671327-.32592593-.1743071-.5817145-.4300957-.7560216-.7560216-.17430709-.3259259-.2671327-.6987989-.2671327-1.2927971v-3.36809716c0-.59399823.09282561-.96687122.2671327-1.29279714.1743071-.32592593.43009567-.5817145.7560216-.7560216.32592592-.17430709.69879891-.2671327 1.29279714-.2671327z" fill="#000"/><path d="m16.5 7c0-3.86599325-3.1340068-7-7-7-3.86599325 0-7 3.13400675-7 7" stroke="#000" stroke-linecap="round" stroke-linejoin="round" stroke-width="1.5"/><path d="m2.5 14.5c0 3.3137085 2.6862915 6.75 6 6.75" stroke="#000" stroke-linecap="round"/><path d="m8 19.5h2c.8284271 0 1.5.6715729 1.5 1.5s-.6715729 1.5-1.5 1.5h-2c-.82842712 0-1.5-.6715729-1.5-1.5s.67157288-1.5 1.5-1.5z" fill="#000"/></g></svg>