<svg height="24" viewBox="0 0 24 24" width="24" xmlns="http://www.w3.org/2000/svg"><path d="m18.4361148-1.5c1.0392637 0 1.6307101.11421358 2.2481292.44441291.5873286.31410679 1.0572363.78401446 1.3713431 1.3713431.3301993.61741907.4444129 1.2088655.4444129 2.24812919v5.8722296c0 1.03926369-.1142136 1.6307101-.4444129 2.2481292-.3141068.5873286-.7840145 1.0572363-1.3713431 1.3713431-.6174191.3301993-1.2088655.4444129-2.2481292.4444129h-15.8722296c-1.03926369 0-1.63071012-.1142136-2.24812919-.4444129-.58732864-.3141068-1.05723631-.7840145-1.3713431-1.3713431-.33019933-.6174191-.44441291-1.20886551-.44441291-2.2481292v-5.8722296c0-1.03926369.11421358-1.63071012.44441291-2.24812919.31410679-.58732864.78401446-1.05723631 1.3713431-1.3713431.61741907-.33019933 1.2088655-.44441291 2.24812919-.44441291zm0 1.5h-15.8722296c-.89151874 0-1.21480498.09282561-1.5407309.2671327-.32592593.1743071-.5817145.43009567-.7560216.7560216-.17430709.32592592-.2671327.64921216-.2671327 1.5407309v5.8722296c0 .89151874.09282561 1.21480498.2671327 1.5407309.1743071.3259259.43009567.5817145.7560216.7560216.32592592.1743071.64921216.2671327 1.5407309.2671327h15.8722296c.8915187 0 1.214805-.0928256 1.5407309-.2671327s.5817145-.4300957.7560216-.7560216c.1743071-.32592592.2671327-.64921216.2671327-1.5407309v-5.8722296c0-.89151874-.0928256-1.21480498-.2671327-1.5407309-.1743071-.32592593-.4300957-.5817145-.7560216-.7560216-.3259259-.17430709-.6492122-.2671327-1.5407309-.2671327zm-.0770861 7.5c.2228797 0 .3037012.0232064.3851827.06678318.0814815.04357677.1454287.10752391.1890054.18900539.0435768.08148149.0667832.16230305.0667832.38518273v.7180574c0 .22287968-.0232064.30370124-.0667832.38518273-.0435767.08148148-.1075239.14542862-.1890054.18900539-.0814815.04357678-.162303.06678318-.3851827.06678318h-1.7180574c-.2228797 0-.3037012-.0232064-.3851827-.06678318-.0814815-.04357677-.1454287-.10752391-.1890054-.18900539-.0435768-.08148149-.0667832-.16230305-.0667832-.38518273v-.7180574c0-.22287968.0232064-.30370124.0667832-.38518273.0435767-.08148148.1075239-.14542862.1890054-.18900539.0814815-.04357678.162303-.06678318.3851827-.06678318zm-4 0c.2228797 0 .3037012.0232064.3851827.06678318.0814815.04357677.1454287.10752391.1890054.18900539.0435768.08148149.0667832.16230305.0667832.38518273v.7180574c0 .22287968-.0232064.30370124-.0667832.38518273-.0435767.08148148-.1075239.14542862-.1890054.18900539-.0814815.04357678-.162303.06678318-.3851827.06678318h-7.7180574c-.22287968 0-.30370124-.0232064-.38518273-.06678318-.08148148-.04357677-.14542862-.10752391-.18900539-.18900539-.04357678-.08148149-.06678318-.16230305-.06678318-.38518273v-.7180574c0-.22287968.0232064-.30370124.06678318-.38518273.04357677-.08148148.10752391-.14542862.18900539-.18900539.08148149-.04357678.16230305-.06678318.38518273-.06678318zm-10 0c.22287968 0 .30370124.0232064.38518273.06678318.08148148.04357677.14542862.10752391.18900539.18900539.04357678.08148149.06678318.16230305.06678318.38518273v.7180574c0 .22287968-.0232064.30370124-.06678318.38518273-.04357677.08148148-.10752391.14542862-.18900539.18900539-.08148149.04357678-.16230305.06678318-.38518273.06678318h-1.7180574c-.22287968 0-.30370124-.0232064-.38518273-.06678318-.08148148-.04357677-.14542862-.10752391-.18900539-.18900539-.04357678-.08148149-.06678318-.16230305-.06678318-.38518273v-.7180574c0-.22287968.0232064-.30370124.06678318-.38518273.04357677-.08148148.10752391-.14542862.18900539-.18900539.08148149-.04357678.16230305-.06678318.38518273-.06678318zm14-3c.2228797 0 .3037012.0232064.3851827.06678318.0814815.04357677.1454287.10752391.1890054.18900539.0435768.08148149.0667832.16230305.0667832.38518273v.7180574c0 .22287968-.0232064.30370124-.0667832.38518273-.0435767.08148148-.1075239.14542862-.1890054.18900539-.0814815.04357678-.162303.06678318-.3851827.06678318h-.7180574c-.2228797 0-.3037012-.0232064-.3851827-.06678318-.0814815-.04357677-.1454287-.10752391-.1890054-.18900539-.0435768-.08148149-.0667832-.16230305-.0667832-.38518273v-.7180574c0-.22287968.0232064-.30370124.0667832-.38518273.0435767-.08148148.1075239-.14542862.1890054-.18900539.0814815-.04357678.162303-.06678318.3851827-.06678318zm-3 0c.2228797 0 .3037012.0232064.3851827.06678318.0814815.04357677.1454287.10752391.1890054.18900539.0435768.08148149.0667832.16230305.0667832.38518273v.7180574c0 .22287968-.0232064.30370124-.0667832.38518273-.0435767.08148148-.1075239.14542862-.1890054.18900539-.0814815.04357678-.162303.06678318-.3851827.06678318h-.7180574c-.2228797 0-.3037012-.0232064-.3851827-.06678318-.0814815-.04357677-.1454287-.10752391-.1890054-.18900539-.0435768-.08148149-.0667832-.16230305-.0667832-.38518273v-.7180574c0-.22287968.0232064-.30370124.0667832-.38518273.0435767-.08148148.1075239-.14542862.1890054-.18900539.0814815-.04357678.162303-.06678318.3851827-.06678318zm-3 0c.2228797 0 .3037012.0232064.3851827.06678318.0814815.04357677.1454287.10752391.1890054.18900539.0435768.08148149.0667832.16230305.0667832.38518273v.7180574c0 .22287968-.0232064.30370124-.0667832.38518273-.0435767.08148148-.1075239.14542862-.1890054.18900539-.0814815.04357678-.162303.06678318-.3851827.06678318h-.7180574c-.2228797 0-.3037012-.0232064-.3851827-.06678318-.0814815-.04357677-.1454287-.10752391-.1890054-.18900539-.0435768-.08148149-.0667832-.16230305-.0667832-.38518273v-.7180574c0-.22287968.0232064-.30370124.0667832-.38518273.0435767-.08148148.1075239-.14542862.1890054-.18900539.0814815-.04357678.162303-.06678318.3851827-.06678318zm-3 0c.22287968 0 .30370124.0232064.38518273.06678318.08148148.04357677.14542862.10752391.18900539.18900539.04357678.08148149.06678318.16230305.06678318.38518273v.7180574c0 .22287968-.0232064.30370124-.06678318.38518273-.04357677.08148148-.10752391.14542862-.18900539.18900539-.08148149.04357678-.16230305.06678318-.38518273.06678318h-.7180574c-.22287968 0-.30370124-.0232064-.38518273-.06678318-.08148148-.04357677-.14542862-.10752391-.18900539-.18900539-.04357678-.08148149-.06678318-.16230305-.06678318-.38518273v-.7180574c0-.22287968.0232064-.30370124.06678318-.38518273.04357677-.08148148.10752391-.14542862.18900539-.18900539.08148149-.04357678.16230305-.06678318.38518273-.06678318zm-3 0c.22287968 0 .30370124.0232064.38518273.06678318.08148148.04357677.14542862.10752391.18900539.18900539.04357678.08148149.06678318.16230305.06678318.38518273v.7180574c0 .22287968-.0232064.30370124-.06678318.38518273-.04357677.08148148-.10752391.14542862-.18900539.18900539-.08148149.04357678-.16230305.06678318-.38518273.06678318h-.7180574c-.22287968 0-.30370124-.0232064-.38518273-.06678318-.08148148-.04357677-.14542862-.10752391-.18900539-.18900539-.04357678-.08148149-.06678318-.16230305-.06678318-.38518273v-.7180574c0-.22287968.0232064-.30370124.06678318-.38518273.04357677-.08148148.10752391-.14542862.18900539-.18900539.08148149-.04357678.16230305-.06678318.38518273-.06678318zm-3 0c.22287968 0 .30370124.0232064.38518273.06678318.08148148.04357677.14542862.10752391.18900539.18900539.04357678.08148149.06678318.16230305.06678318.38518273v.7180574c0 .22287968-.0232064.30370124-.06678318.38518273-.04357677.08148148-.10752391.14542862-.18900539.18900539-.08148149.04357678-.16230305.06678318-.38518273.06678318h-.7180574c-.22287968 0-.30370124-.0232064-.38518273-.06678318-.08148148-.04357677-.14542862-.10752391-.18900539-.18900539-.04357678-.08148149-.06678318-.16230305-.06678318-.38518273v-.7180574c0-.22287968.0232064-.30370124.06678318-.38518273.04357677-.08148148.10752391-.14542862.18900539-.18900539.08148149-.04357678.16230305-.06678318.38518273-.06678318zm15-3c.2228797 0 .3037012.0232064.3851827.06678318.0814815.04357677.1454287.10752391.1890054.18900539.0435768.08148149.0667832.16230305.0667832.38518273v.7180574c0 .22287968-.0232064.30370124-.0667832.38518273-.0435767.08148148-.1075239.14542862-.1890054.18900539-.0814815.04357678-.162303.06678318-.3851827.06678318h-.7180574c-.2228797 0-.3037012-.0232064-.3851827-.06678318-.0814815-.04357677-.1454287-.10752391-.1890054-.18900539-.0435768-.08148149-.0667832-.16230305-.0667832-.38518273v-.7180574c0-.22287968.0232064-.30370124.0667832-.38518273.0435767-.08148148.1075239-.14542862.1890054-.18900539.0814815-.04357678.162303-.06678318.3851827-.06678318zm-3 0c.2228797 0 .3037012.0232064.3851827.06678318.0814815.04357677.1454287.10752391.1890054.18900539.0435768.08148149.0667832.16230305.0667832.38518273v.7180574c0 .22287968-.0232064.30370124-.0667832.38518273-.0435767.08148148-.1075239.14542862-.1890054.18900539-.0814815.04357678-.162303.06678318-.3851827.06678318h-.7180574c-.2228797 0-.3037012-.0232064-.3851827-.06678318-.0814815-.04357677-.1454287-.10752391-.1890054-.18900539-.0435768-.08148149-.0667832-.16230305-.0667832-.38518273v-.7180574c0-.22287968.0232064-.30370124.0667832-.38518273.0435767-.08148148.1075239-.14542862.1890054-.18900539.0814815-.04357678.162303-.06678318.3851827-.06678318zm-3 0c.2228797 0 .3037012.0232064.3851827.06678318.0814815.04357677.1454287.10752391.1890054.18900539.0435768.08148149.0667832.16230305.0667832.38518273v.7180574c0 .22287968-.0232064.30370124-.0667832.38518273-.0435767.08148148-.1075239.14542862-.1890054.18900539-.0814815.04357678-.162303.06678318-.3851827.06678318h-.7180574c-.2228797 0-.3037012-.0232064-.3851827-.06678318-.0814815-.04357677-.1454287-.10752391-.1890054-.18900539-.0435768-.08148149-.0667832-.16230305-.0667832-.38518273v-.7180574c0-.22287968.0232064-.30370124.0667832-.38518273.0435767-.08148148.1075239-.14542862.1890054-.18900539.0814815-.04357678.162303-.06678318.3851827-.06678318zm-3 0c.22287968 0 .30370124.0232064.38518273.06678318.08148148.04357677.14542862.10752391.18900539.18900539.04357678.08148149.06678318.16230305.06678318.38518273v.7180574c0 .22287968-.0232064.30370124-.06678318.38518273-.04357677.08148148-.10752391.14542862-.18900539.18900539-.08148149.04357678-.16230305.06678318-.38518273.06678318h-.7180574c-.22287968 0-.30370124-.0232064-.38518273-.06678318-.08148148-.04357677-.14542862-.10752391-.18900539-.18900539-.04357678-.08148149-.06678318-.16230305-.06678318-.38518273v-.7180574c0-.22287968.0232064-.30370124.06678318-.38518273.04357677-.08148148.10752391-.14542862.18900539-.18900539.08148149-.04357678.16230305-.06678318.38518273-.06678318zm-3 0c.22287968 0 .30370124.0232064.38518273.06678318.08148148.04357677.14542862.10752391.18900539.18900539.04357678.08148149.06678318.16230305.06678318.38518273v.7180574c0 .22287968-.0232064.30370124-.06678318.38518273-.04357677.08148148-.10752391.14542862-.18900539.18900539-.08148149.04357678-.16230305.06678318-.38518273.06678318h-.7180574c-.22287968 0-.30370124-.0232064-.38518273-.06678318-.08148148-.04357677-.14542862-.10752391-.18900539-.18900539-.04357678-.08148149-.06678318-.16230305-.06678318-.38518273v-.7180574c0-.22287968.0232064-.30370124.06678318-.38518273.04357677-.08148148.10752391-.14542862.18900539-.18900539.08148149-.04357678.16230305-.06678318.38518273-.06678318zm-3 0c.22287968 0 .30370124.0232064.38518273.06678318.08148148.04357677.14542862.10752391.18900539.18900539.04357678.08148149.06678318.16230305.06678318.38518273v.7180574c0 .22287968-.0232064.30370124-.06678318.38518273-.04357677.08148148-.10752391.14542862-.18900539.18900539-.08148149.04357678-.16230305.06678318-.38518273.06678318h-.7180574c-.22287968 0-.30370124-.0232064-.38518273-.06678318-.08148148-.04357677-.14542862-.10752391-.18900539-.18900539-.04357678-.08148149-.06678318-.16230305-.06678318-.38518273v-.7180574c0-.22287968.0232064-.30370124.06678318-.38518273.04357677-.08148148.10752391-.14542862.18900539-.18900539.08148149-.04357678.16230305-.06678318.38518273-.06678318z" transform="translate(1.5 6.5)"/></svg>