<?xml version="1.0" encoding="UTF-8"?>
<svg width="24px" height="24px" viewBox="0 0 24 24" version="1.1" xmlns="http://www.w3.org/2000/svg" xmlns:xlink="http://www.w3.org/1999/xlink">
    <title>Icons / 24 / Keyboard</title>
    <g id="Icons-/-24-/-Keyboard" stroke="none" stroke-width="1" fill="none" fill-rule="evenodd">
        <g id="Color" transform="translate(1.5, 6.5)" fill="#FFEED6" fill-rule="nonzero">
            <path d="M18.4361148,-1.5 C19.4753785,-1.5 20.0668249,-1.38578642 20.684244,-1.05558709 C21.2715726,-0.741480302 21.7414803,-0.271572628 22.0555871,0.315756008 C22.3857864,0.933175077 22.5,1.52462151 22.5,2.5638852 L22.5,8.4361148 C22.5,9.47537849 22.3857864,10.0668249 22.0555871,10.684244 C21.7414803,11.2715726 21.2715726,11.7414803 20.684244,12.0555871 C20.0668249,12.3857864 19.4753785,12.5 18.4361148,12.5 L2.5638852,12.5 C1.52462151,12.5 0.933175077,12.3857864 0.315756008,12.0555871 C-0.271572628,11.7414803 -0.741480302,11.2715726 -1.05558709,10.684244 C-1.38578642,10.0668249 -1.5,9.47537849 -1.5,8.4361148 L-1.5,2.5638852 C-1.5,1.52462151 -1.38578642,0.933175077 -1.05558709,0.315756008 C-0.741480302,-0.271572628 -0.271572628,-0.741480302 0.315756008,-1.05558709 C0.933175077,-1.38578642 1.52462151,-1.5 2.5638852,-1.5 L18.4361148,-1.5 Z M18.4361148,0 L2.5638852,0 C1.67236646,0 1.34908022,0.0928256112 1.0231543,0.267132704 C0.697228371,0.441439796 0.441439796,0.697228371 0.267132704,1.0231543 C0.0928256112,1.34908022 0,1.67236646 0,2.5638852 L0,8.4361148 C0,9.32763354 0.0928256112,9.65091978 0.267132704,9.9768457 C0.441439796,10.3027716 0.697228371,10.5585602 1.0231543,10.7328673 C1.34908022,10.9071744 1.67236646,11 2.5638852,11 L18.4361148,11 C19.3276335,11 19.6509198,10.9071744 19.9768457,10.7328673 C20.3027716,10.5585602 20.5585602,10.3027716 20.7328673,9.9768457 C20.9071744,9.65091978 21,9.32763354 21,8.4361148 L21,2.5638852 C21,1.67236646 20.9071744,1.34908022 20.7328673,1.0231543 C20.5585602,0.697228371 20.3027716,0.441439796 19.9768457,0.267132704 C19.6509198,0.0928256112 19.3276335,0 18.4361148,0 Z M18.3590287,7.5 C18.5819084,7.5 18.6627299,7.5232064 18.7442114,7.56678318 C18.8256929,7.61035995 18.8896401,7.67430709 18.9332168,7.75578857 C18.9767936,7.83727006 19,7.91809162 19,8.1409713 L19,8.8590287 C19,9.08190838 18.9767936,9.16272994 18.9332168,9.24421143 C18.8896401,9.32569291 18.8256929,9.38964005 18.7442114,9.43321682 C18.6627299,9.4767936 18.5819084,9.5 18.3590287,9.5 L16.6409713,9.5 C16.4180916,9.5 16.3372701,9.4767936 16.2557886,9.43321682 C16.1743071,9.38964005 16.1103599,9.32569291 16.0667832,9.24421143 C16.0232064,9.16272994 16,9.08190838 16,8.8590287 L16,8.1409713 C16,7.91809162 16.0232064,7.83727006 16.0667832,7.75578857 C16.1103599,7.67430709 16.1743071,7.61035995 16.2557886,7.56678318 C16.3372701,7.5232064 16.4180916,7.5 16.6409713,7.5 L18.3590287,7.5 Z M14.3590287,7.5 C14.5819084,7.5 14.6627299,7.5232064 14.7442114,7.56678318 C14.8256929,7.61035995 14.8896401,7.67430709 14.9332168,7.75578857 C14.9767936,7.83727006 15,7.91809162 15,8.1409713 L15,8.8590287 C15,9.08190838 14.9767936,9.16272994 14.9332168,9.24421143 C14.8896401,9.32569291 14.8256929,9.38964005 14.7442114,9.43321682 C14.6627299,9.4767936 14.5819084,9.5 14.3590287,9.5 L6.6409713,9.5 C6.41809162,9.5 6.33727006,9.4767936 6.25578857,9.43321682 C6.17430709,9.38964005 6.11035995,9.32569291 6.06678318,9.24421143 C6.0232064,9.16272994 6,9.08190838 6,8.8590287 L6,8.1409713 C6,7.91809162 6.0232064,7.83727006 6.06678318,7.75578857 C6.11035995,7.67430709 6.17430709,7.61035995 6.25578857,7.56678318 C6.33727006,7.5232064 6.41809162,7.5 6.6409713,7.5 L14.3590287,7.5 Z M4.3590287,7.5 C4.58190838,7.5 4.66272994,7.5232064 4.74421143,7.56678318 C4.82569291,7.61035995 4.88964005,7.67430709 4.93321682,7.75578857 C4.9767936,7.83727006 5,7.91809162 5,8.1409713 L5,8.8590287 C5,9.08190838 4.9767936,9.16272994 4.93321682,9.24421143 C4.88964005,9.32569291 4.82569291,9.38964005 4.74421143,9.43321682 C4.66272994,9.4767936 4.58190838,9.5 4.3590287,9.5 L2.6409713,9.5 C2.41809162,9.5 2.33727006,9.4767936 2.25578857,9.43321682 C2.17430709,9.38964005 2.11035995,9.32569291 2.06678318,9.24421143 C2.0232064,9.16272994 2,9.08190838 2,8.8590287 L2,8.1409713 C2,7.91809162 2.0232064,7.83727006 2.06678318,7.75578857 C2.11035995,7.67430709 2.17430709,7.61035995 2.25578857,7.56678318 C2.33727006,7.5232064 2.41809162,7.5 2.6409713,7.5 L4.3590287,7.5 Z M18.3590287,4.5 C18.5819084,4.5 18.6627299,4.5232064 18.7442114,4.56678318 C18.8256929,4.61035995 18.8896401,4.67430709 18.9332168,4.75578857 C18.9767936,4.83727006 19,4.91809162 19,5.1409713 L19,5.8590287 C19,6.08190838 18.9767936,6.16272994 18.9332168,6.24421143 C18.8896401,6.32569291 18.8256929,6.38964005 18.7442114,6.43321682 C18.6627299,6.4767936 18.5819084,6.5 18.3590287,6.5 L17.6409713,6.5 C17.4180916,6.5 17.3372701,6.4767936 17.2557886,6.43321682 C17.1743071,6.38964005 17.1103599,6.32569291 17.0667832,6.24421143 C17.0232064,6.16272994 17,6.08190838 17,5.8590287 L17,5.1409713 C17,4.91809162 17.0232064,4.83727006 17.0667832,4.75578857 C17.1103599,4.67430709 17.1743071,4.61035995 17.2557886,4.56678318 C17.3372701,4.5232064 17.4180916,4.5 17.6409713,4.5 L18.3590287,4.5 Z M15.3590287,4.5 C15.5819084,4.5 15.6627299,4.5232064 15.7442114,4.56678318 C15.8256929,4.61035995 15.8896401,4.67430709 15.9332168,4.75578857 C15.9767936,4.83727006 16,4.91809162 16,5.1409713 L16,5.8590287 C16,6.08190838 15.9767936,6.16272994 15.9332168,6.24421143 C15.8896401,6.32569291 15.8256929,6.38964005 15.7442114,6.43321682 C15.6627299,6.4767936 15.5819084,6.5 15.3590287,6.5 L14.6409713,6.5 C14.4180916,6.5 14.3372701,6.4767936 14.2557886,6.43321682 C14.1743071,6.38964005 14.1103599,6.32569291 14.0667832,6.24421143 C14.0232064,6.16272994 14,6.08190838 14,5.8590287 L14,5.1409713 C14,4.91809162 14.0232064,4.83727006 14.0667832,4.75578857 C14.1103599,4.67430709 14.1743071,4.61035995 14.2557886,4.56678318 C14.3372701,4.5232064 14.4180916,4.5 14.6409713,4.5 L15.3590287,4.5 Z M12.3590287,4.5 C12.5819084,4.5 12.6627299,4.5232064 12.7442114,4.56678318 C12.8256929,4.61035995 12.8896401,4.67430709 12.9332168,4.75578857 C12.9767936,4.83727006 13,4.91809162 13,5.1409713 L13,5.8590287 C13,6.08190838 12.9767936,6.16272994 12.9332168,6.24421143 C12.8896401,6.32569291 12.8256929,6.38964005 12.7442114,6.43321682 C12.6627299,6.4767936 12.5819084,6.5 12.3590287,6.5 L11.6409713,6.5 C11.4180916,6.5 11.3372701,6.4767936 11.2557886,6.43321682 C11.1743071,6.38964005 11.1103599,6.32569291 11.0667832,6.24421143 C11.0232064,6.16272994 11,6.08190838 11,5.8590287 L11,5.1409713 C11,4.91809162 11.0232064,4.83727006 11.0667832,4.75578857 C11.1103599,4.67430709 11.1743071,4.61035995 11.2557886,4.56678318 C11.3372701,4.5232064 11.4180916,4.5 11.6409713,4.5 L12.3590287,4.5 Z M9.3590287,4.5 C9.58190838,4.5 9.66272994,4.5232064 9.74421143,4.56678318 C9.82569291,4.61035995 9.88964005,4.67430709 9.93321682,4.75578857 C9.9767936,4.83727006 10,4.91809162 10,5.1409713 L10,5.8590287 C10,6.08190838 9.9767936,6.16272994 9.93321682,6.24421143 C9.88964005,6.32569291 9.82569291,6.38964005 9.74421143,6.43321682 C9.66272994,6.4767936 9.58190838,6.5 9.3590287,6.5 L8.6409713,6.5 C8.41809162,6.5 8.33727006,6.4767936 8.25578857,6.43321682 C8.17430709,6.38964005 8.11035995,6.32569291 8.06678318,6.24421143 C8.0232064,6.16272994 8,6.08190838 8,5.8590287 L8,5.1409713 C8,4.91809162 8.0232064,4.83727006 8.06678318,4.75578857 C8.11035995,4.67430709 8.17430709,4.61035995 8.25578857,4.56678318 C8.33727006,4.5232064 8.41809162,4.5 8.6409713,4.5 L9.3590287,4.5 Z M6.3590287,4.5 C6.58190838,4.5 6.66272994,4.5232064 6.74421143,4.56678318 C6.82569291,4.61035995 6.88964005,4.67430709 6.93321682,4.75578857 C6.9767936,4.83727006 7,4.91809162 7,5.1409713 L7,5.8590287 C7,6.08190838 6.9767936,6.16272994 6.93321682,6.24421143 C6.88964005,6.32569291 6.82569291,6.38964005 6.74421143,6.43321682 C6.66272994,6.4767936 6.58190838,6.5 6.3590287,6.5 L5.6409713,6.5 C5.41809162,6.5 5.33727006,6.4767936 5.25578857,6.43321682 C5.17430709,6.38964005 5.11035995,6.32569291 5.06678318,6.24421143 C5.0232064,6.16272994 5,6.08190838 5,5.8590287 L5,5.1409713 C5,4.91809162 5.0232064,4.83727006 5.06678318,4.75578857 C5.11035995,4.67430709 5.17430709,4.61035995 5.25578857,4.56678318 C5.33727006,4.5232064 5.41809162,4.5 5.6409713,4.5 L6.3590287,4.5 Z M3.3590287,4.5 C3.58190838,4.5 3.66272994,4.5232064 3.74421143,4.56678318 C3.82569291,4.61035995 3.88964005,4.67430709 3.93321682,4.75578857 C3.9767936,4.83727006 4,4.91809162 4,5.1409713 L4,5.8590287 C4,6.08190838 3.9767936,6.16272994 3.93321682,6.24421143 C3.88964005,6.32569291 3.82569291,6.38964005 3.74421143,6.43321682 C3.66272994,6.4767936 3.58190838,6.5 3.3590287,6.5 L2.6409713,6.5 C2.41809162,6.5 2.33727006,6.4767936 2.25578857,6.43321682 C2.17430709,6.38964005 2.11035995,6.32569291 2.06678318,6.24421143 C2.0232064,6.16272994 2,6.08190838 2,5.8590287 L2,5.1409713 C2,4.91809162 2.0232064,4.83727006 2.06678318,4.75578857 C2.11035995,4.67430709 2.17430709,4.61035995 2.25578857,4.56678318 C2.33727006,4.5232064 2.41809162,4.5 2.6409713,4.5 L3.3590287,4.5 Z M18.3590287,1.5 C18.5819084,1.5 18.6627299,1.5232064 18.7442114,1.56678318 C18.8256929,1.61035995 18.8896401,1.67430709 18.9332168,1.75578857 C18.9767936,1.83727006 19,1.91809162 19,2.1409713 L19,2.8590287 C19,3.08190838 18.9767936,3.16272994 18.9332168,3.24421143 C18.8896401,3.32569291 18.8256929,3.38964005 18.7442114,3.43321682 C18.6627299,3.4767936 18.5819084,3.5 18.3590287,3.5 L17.6409713,3.5 C17.4180916,3.5 17.3372701,3.4767936 17.2557886,3.43321682 C17.1743071,3.38964005 17.1103599,3.32569291 17.0667832,3.24421143 C17.0232064,3.16272994 17,3.08190838 17,2.8590287 L17,2.1409713 C17,1.91809162 17.0232064,1.83727006 17.0667832,1.75578857 C17.1103599,1.67430709 17.1743071,1.61035995 17.2557886,1.56678318 C17.3372701,1.5232064 17.4180916,1.5 17.6409713,1.5 L18.3590287,1.5 Z M15.3590287,1.5 C15.5819084,1.5 15.6627299,1.5232064 15.7442114,1.56678318 C15.8256929,1.61035995 15.8896401,1.67430709 15.9332168,1.75578857 C15.9767936,1.83727006 16,1.91809162 16,2.1409713 L16,2.8590287 C16,3.08190838 15.9767936,3.16272994 15.9332168,3.24421143 C15.8896401,3.32569291 15.8256929,3.38964005 15.7442114,3.43321682 C15.6627299,3.4767936 15.5819084,3.5 15.3590287,3.5 L14.6409713,3.5 C14.4180916,3.5 14.3372701,3.4767936 14.2557886,3.43321682 C14.1743071,3.38964005 14.1103599,3.32569291 14.0667832,3.24421143 C14.0232064,3.16272994 14,3.08190838 14,2.8590287 L14,2.1409713 C14,1.91809162 14.0232064,1.83727006 14.0667832,1.75578857 C14.1103599,1.67430709 14.1743071,1.61035995 14.2557886,1.56678318 C14.3372701,1.5232064 14.4180916,1.5 14.6409713,1.5 L15.3590287,1.5 Z M12.3590287,1.5 C12.5819084,1.5 12.6627299,1.5232064 12.7442114,1.56678318 C12.8256929,1.61035995 12.8896401,1.67430709 12.9332168,1.75578857 C12.9767936,1.83727006 13,1.91809162 13,2.1409713 L13,2.8590287 C13,3.08190838 12.9767936,3.16272994 12.9332168,3.24421143 C12.8896401,3.32569291 12.8256929,3.38964005 12.7442114,3.43321682 C12.6627299,3.4767936 12.5819084,3.5 12.3590287,3.5 L11.6409713,3.5 C11.4180916,3.5 11.3372701,3.4767936 11.2557886,3.43321682 C11.1743071,3.38964005 11.1103599,3.32569291 11.0667832,3.24421143 C11.0232064,3.16272994 11,3.08190838 11,2.8590287 L11,2.1409713 C11,1.91809162 11.0232064,1.83727006 11.0667832,1.75578857 C11.1103599,1.67430709 11.1743071,1.61035995 11.2557886,1.56678318 C11.3372701,1.5232064 11.4180916,1.5 11.6409713,1.5 L12.3590287,1.5 Z M9.3590287,1.5 C9.58190838,1.5 9.66272994,1.5232064 9.74421143,1.56678318 C9.82569291,1.61035995 9.88964005,1.67430709 9.93321682,1.75578857 C9.9767936,1.83727006 10,1.91809162 10,2.1409713 L10,2.8590287 C10,3.08190838 9.9767936,3.16272994 9.93321682,3.24421143 C9.88964005,3.32569291 9.82569291,3.38964005 9.74421143,3.43321682 C9.66272994,3.4767936 9.58190838,3.5 9.3590287,3.5 L8.6409713,3.5 C8.41809162,3.5 8.33727006,3.4767936 8.25578857,3.43321682 C8.17430709,3.38964005 8.11035995,3.32569291 8.06678318,3.24421143 C8.0232064,3.16272994 8,3.08190838 8,2.8590287 L8,2.1409713 C8,1.91809162 8.0232064,1.83727006 8.06678318,1.75578857 C8.11035995,1.67430709 8.17430709,1.61035995 8.25578857,1.56678318 C8.33727006,1.5232064 8.41809162,1.5 8.6409713,1.5 L9.3590287,1.5 Z M6.3590287,1.5 C6.58190838,1.5 6.66272994,1.5232064 6.74421143,1.56678318 C6.82569291,1.61035995 6.88964005,1.67430709 6.93321682,1.75578857 C6.9767936,1.83727006 7,1.91809162 7,2.1409713 L7,2.8590287 C7,3.08190838 6.9767936,3.16272994 6.93321682,3.24421143 C6.88964005,3.32569291 6.82569291,3.38964005 6.74421143,3.43321682 C6.66272994,3.4767936 6.58190838,3.5 6.3590287,3.5 L5.6409713,3.5 C5.41809162,3.5 5.33727006,3.4767936 5.25578857,3.43321682 C5.17430709,3.38964005 5.11035995,3.32569291 5.06678318,3.24421143 C5.0232064,3.16272994 5,3.08190838 5,2.8590287 L5,2.1409713 C5,1.91809162 5.0232064,1.83727006 5.06678318,1.75578857 C5.11035995,1.67430709 5.17430709,1.61035995 5.25578857,1.56678318 C5.33727006,1.5232064 5.41809162,1.5 5.6409713,1.5 L6.3590287,1.5 Z M3.3590287,1.5 C3.58190838,1.5 3.66272994,1.5232064 3.74421143,1.56678318 C3.82569291,1.61035995 3.88964005,1.67430709 3.93321682,1.75578857 C3.9767936,1.83727006 4,1.91809162 4,2.1409713 L4,2.8590287 C4,3.08190838 3.9767936,3.16272994 3.93321682,3.24421143 C3.88964005,3.32569291 3.82569291,3.38964005 3.74421143,3.43321682 C3.66272994,3.4767936 3.58190838,3.5 3.3590287,3.5 L2.6409713,3.5 C2.41809162,3.5 2.33727006,3.4767936 2.25578857,3.43321682 C2.17430709,3.38964005 2.11035995,3.32569291 2.06678318,3.24421143 C2.0232064,3.16272994 2,3.08190838 2,2.8590287 L2,2.1409713 C2,1.91809162 2.0232064,1.83727006 2.06678318,1.75578857 C2.11035995,1.67430709 2.17430709,1.61035995 2.25578857,1.56678318 C2.33727006,1.5232064 2.41809162,1.5 2.6409713,1.5 L3.3590287,1.5 Z" id="Combined-Shape"></path>
        </g>
    </g>
</svg>