<?xml version="1.0" encoding="UTF-8"?>
<svg width="24px" height="24px" viewBox="0 0 24 24" version="1.1" xmlns="http://www.w3.org/2000/svg" xmlns:xlink="http://www.w3.org/1999/xlink">
    <title>Icons / 24 / Motherboard Alt 2</title>
    <g id="Icons-/-24-/-Motherboard-Alt-2" stroke="none" stroke-width="1" fill="none" fill-rule="evenodd">
        <g id="Color" transform="translate(1.5, 1.5)">
            <path d="M17.4908847,1 C18.3824034,1 18.7056896,1.09282561 19.0316156,1.2671327 C19.3575415,1.4414398 19.6133301,1.69722837 19.7876372,2.0231543 C19.9619443,2.34908022 20.0547699,2.67236646 20.0547699,3.5638852 L20.0547699,17.4361148 C20.0547699,18.3276335 19.9619443,18.6509198 19.7876372,18.9768457 C19.6133301,19.3027716 19.3575415,19.5585602 19.0316156,19.7328673 C18.7056896,19.9071744 18.3824034,20 17.4908847,20 L3.61865506,20 C2.72713632,20 2.40385008,19.9071744 2.07792416,19.7328673 C1.75199823,19.5585602 1.49620966,19.3027716 1.32190257,18.9768457 C1.14759547,18.6509198 1.05476986,18.3276335 1.05476986,17.4361148 L1.05476986,3.5638852 C1.05476986,2.67236646 1.14759547,2.34908022 1.32190257,2.0231543 C1.49620966,1.69722837 1.75199823,1.4414398 2.07792416,1.2671327 C2.40385008,1.09282561 2.72713632,1 3.61865506,1 L17.4908847,1 Z M17.5547699,17 C17.2786275,17 17.0547699,17.2238576 17.0547699,17.5 C17.0547699,17.7761424 17.2786275,18 17.5547699,18 C17.8309122,18 18.0547699,17.7761424 18.0547699,17.5 C18.0547699,17.2238576 17.8309122,17 17.5547699,17 Z M13.5547699,17 C13.2786275,17 13.0547699,17.2238576 13.0547699,17.5 C13.0547699,17.7761424 13.2786275,18 13.5547699,18 C13.8309122,18 14.0547699,17.7761424 14.0547699,17.5 C14.0547699,17.2238576 13.8309122,17 13.5547699,17 Z M9.55476986,17 C9.27862749,17 9.05476986,17.2238576 9.05476986,17.5 C9.05476986,17.7761424 9.27862749,18 9.55476986,18 C9.83091224,18 10.0547699,17.7761424 10.0547699,17.5 C10.0547699,17.2238576 9.83091224,17 9.55476986,17 Z M5.55476986,17 C5.27862749,17 5.05476986,17.2238576 5.05476986,17.5 C5.05476986,17.7761424 5.27862749,18 5.55476986,18 C5.83091224,18 6.05476986,17.7761424 6.05476986,17.5 C6.05476986,17.2238576 5.83091224,17 5.55476986,17 Z M15.5547699,15 C15.2786275,15 15.0547699,15.2238576 15.0547699,15.5 C15.0547699,15.7761424 15.2786275,16 15.5547699,16 C15.8309122,16 16.0547699,15.7761424 16.0547699,15.5 C16.0547699,15.2238576 15.8309122,15 15.5547699,15 Z M11.5547699,15 C11.2786275,15 11.0547699,15.2238576 11.0547699,15.5 C11.0547699,15.7761424 11.2786275,16 11.5547699,16 C11.8309122,16 12.0547699,15.7761424 12.0547699,15.5 C12.0547699,15.2238576 11.8309122,15 11.5547699,15 Z M7.55476986,15 C7.27862749,15 7.05476986,15.2238576 7.05476986,15.5 C7.05476986,15.7761424 7.27862749,16 7.55476986,16 C7.83091224,16 8.05476986,15.7761424 8.05476986,15.5 C8.05476986,15.2238576 7.83091224,15 7.55476986,15 Z M3.55476986,15 C3.27862749,15 3.05476986,15.2238576 3.05476986,15.5 C3.05476986,15.7761424 3.27862749,16 3.55476986,16 C3.83091224,16 4.05476986,15.7761424 4.05476986,15.5 C4.05476986,15.2238576 3.83091224,15 3.55476986,15 Z M17.5547699,13 C17.2786275,13 17.0547699,13.2238576 17.0547699,13.5 C17.0547699,13.7761424 17.2786275,14 17.5547699,14 C17.8309122,14 18.0547699,13.7761424 18.0547699,13.5 C18.0547699,13.2238576 17.8309122,13 17.5547699,13 Z M5.55476986,13 C5.27862749,13 5.05476986,13.2238576 5.05476986,13.5 C5.05476986,13.7761424 5.27862749,14 5.55476986,14 C5.83091224,14 6.05476986,13.7761424 6.05476986,13.5 C6.05476986,13.2238576 5.83091224,13 5.55476986,13 Z M12.2180574,7.5 L8.7819426,7.5 C8.33618323,7.5 8.17454011,7.54641281 8.01157715,7.63356635 C7.84861419,7.7207199 7.7207199,7.84861419 7.63356635,8.01157715 C7.54641281,8.17454011 7.5,8.33618323 7.5,8.7819426 L7.5,12.2180574 C7.5,12.6638168 7.54641281,12.8254599 7.63356635,12.9884229 C7.7207199,13.1513858 7.84861419,13.2792801 8.01157715,13.3664336 C8.17454011,13.4535872 8.33618323,13.5 8.7819426,13.5 L12.2180574,13.5 C12.6638168,13.5 12.8254599,13.4535872 12.9884229,13.3664336 C13.1513858,13.2792801 13.2792801,13.1513858 13.3664336,12.9884229 C13.4535872,12.8254599 13.5,12.6638168 13.5,12.2180574 L13.5,8.7819426 C13.5,8.33618323 13.4535872,8.17454011 13.3664336,8.01157715 C13.2792801,7.84861419 13.1513858,7.7207199 12.9884229,7.63356635 C12.8254599,7.54641281 12.6638168,7.5 12.2180574,7.5 Z M15.5547699,11 C15.2786275,11 15.0547699,11.2238576 15.0547699,11.5 C15.0547699,11.7761424 15.2786275,12 15.5547699,12 C15.8309122,12 16.0547699,11.7761424 16.0547699,11.5 C16.0547699,11.2238576 15.8309122,11 15.5547699,11 Z M3.55476986,11 C3.27862749,11 3.05476986,11.2238576 3.05476986,11.5 C3.05476986,11.7761424 3.27862749,12 3.55476986,12 C3.83091224,12 4.05476986,11.7761424 4.05476986,11.5 C4.05476986,11.2238576 3.83091224,11 3.55476986,11 Z M17.5547699,9 C17.2786275,9 17.0547699,9.22385763 17.0547699,9.5 C17.0547699,9.77614237 17.2786275,10 17.5547699,10 C17.8309122,10 18.0547699,9.77614237 18.0547699,9.5 C18.0547699,9.22385763 17.8309122,9 17.5547699,9 Z M5.55476986,9 C5.27862749,9 5.05476986,9.22385763 5.05476986,9.5 C5.05476986,9.77614237 5.27862749,10 5.55476986,10 C5.83091224,10 6.05476986,9.77614237 6.05476986,9.5 C6.05476986,9.22385763 5.83091224,9 5.55476986,9 Z M15.5547699,7 C15.2786275,7 15.0547699,7.22385763 15.0547699,7.5 C15.0547699,7.77614237 15.2786275,8 15.5547699,8 C15.8309122,8 16.0547699,7.77614237 16.0547699,7.5 C16.0547699,7.22385763 15.8309122,7 15.5547699,7 Z M3.55476986,7 C3.27862749,7 3.05476986,7.22385763 3.05476986,7.5 C3.05476986,7.77614237 3.27862749,8 3.55476986,8 C3.83091224,8 4.05476986,7.77614237 4.05476986,7.5 C4.05476986,7.22385763 3.83091224,7 3.55476986,7 Z M17.5547699,5 C17.2786275,5 17.0547699,5.22385763 17.0547699,5.5 C17.0547699,5.77614237 17.2786275,6 17.5547699,6 C17.8309122,6 18.0547699,5.77614237 18.0547699,5.5 C18.0547699,5.22385763 17.8309122,5 17.5547699,5 Z M13.5547699,5 C13.2786275,5 13.0547699,5.22385763 13.0547699,5.5 C13.0547699,5.77614237 13.2786275,6 13.5547699,6 C13.8309122,6 14.0547699,5.77614237 14.0547699,5.5 C14.0547699,5.22385763 13.8309122,5 13.5547699,5 Z M9.55476986,5 C9.27862749,5 9.05476986,5.22385763 9.05476986,5.5 C9.05476986,5.77614237 9.27862749,6 9.55476986,6 C9.83091224,6 10.0547699,5.77614237 10.0547699,5.5 C10.0547699,5.22385763 9.83091224,5 9.55476986,5 Z M5.55476986,5 C5.27862749,5 5.05476986,5.22385763 5.05476986,5.5 C5.05476986,5.77614237 5.27862749,6 5.55476986,6 C5.83091224,6 6.05476986,5.77614237 6.05476986,5.5 C6.05476986,5.22385763 5.83091224,5 5.55476986,5 Z M15.5547699,3 C15.2786275,3 15.0547699,3.22385763 15.0547699,3.5 C15.0547699,3.77614237 15.2786275,4 15.5547699,4 C15.8309122,4 16.0547699,3.77614237 16.0547699,3.5 C16.0547699,3.22385763 15.8309122,3 15.5547699,3 Z M11.5547699,3 C11.2786275,3 11.0547699,3.22385763 11.0547699,3.5 C11.0547699,3.77614237 11.2786275,4 11.5547699,4 C11.8309122,4 12.0547699,3.77614237 12.0547699,3.5 C12.0547699,3.22385763 11.8309122,3 11.5547699,3 Z M7.55476986,3 C7.27862749,3 7.05476986,3.22385763 7.05476986,3.5 C7.05476986,3.77614237 7.27862749,4 7.55476986,4 C7.83091224,4 8.05476986,3.77614237 8.05476986,3.5 C8.05476986,3.22385763 7.83091224,3 7.55476986,3 Z M3.55476986,3 C3.27862749,3 3.05476986,3.22385763 3.05476986,3.5 C3.05476986,3.77614237 3.27862749,4 3.55476986,4 C3.83091224,4 4.05476986,3.77614237 4.05476986,3.5 C4.05476986,3.22385763 3.83091224,3 3.55476986,3 Z" id="Combined-Shape" fill="#FFEED6"></path>
            <line x1="0" y1="20" x2="1" y2="21" id="Path-4" stroke="#FFEED6" stroke-width="2.5" stroke-linecap="round" stroke-linejoin="round" transform="translate(0.5, 20.5) scale(-1, 1) translate(-0.5, -20.5)"></line>
            <line x1="20" y1="20" x2="21" y2="21" id="Path-4" stroke="#FFEED6" stroke-width="2.5" stroke-linecap="round" stroke-linejoin="round"></line>
            <line x1="20" y1="0" x2="21" y2="1" id="Path-4" stroke="#FFEED6" stroke-width="2.5" stroke-linecap="round" stroke-linejoin="round" transform="translate(20.5, 0.5) scale(-1, 1) translate(-20.5, -0.5)"></line>
            <line x1="1.35077135e-14" y1="0" x2="1" y2="1" id="Path-4" stroke="#FFEED6" stroke-width="2.5" stroke-linecap="round" stroke-linejoin="round"></line>
            <path d="M16.9361148,0 C17.9753785,0 18.5668249,0.114213575 19.184244,0.444412907 C19.7715726,0.758519698 20.2414803,1.22842737 20.5555871,1.81575601 C20.8857864,2.43317508 21,3.02462151 21,4.0638852 L21,16.9361148 C21,17.9753785 20.8857864,18.5668249 20.5555871,19.184244 C20.2414803,19.7715726 19.7715726,20.2414803 19.184244,20.5555871 C18.5668249,20.8857864 17.9753785,21 16.9361148,21 L4.0638852,21 C3.02462151,21 2.43317508,20.8857864 1.81575601,20.5555871 C1.22842737,20.2414803 0.758519698,19.7715726 0.444412907,19.184244 C0.114213575,18.5668249 0,17.9753785 0,16.9361148 L0,4.0638852 C0,3.02462151 0.114213575,2.43317508 0.444412907,1.81575601 C0.758519698,1.22842737 1.22842737,0.758519698 1.81575601,0.444412907 C2.43317508,0.114213575 3.02462151,0 4.0638852,0 L16.9361148,0 Z M16.9361148,1.5 L4.0638852,1.5 C3.17236646,1.5 2.84908022,1.59282561 2.5231543,1.7671327 C2.19722837,1.9414398 1.9414398,2.19722837 1.7671327,2.5231543 C1.59282561,2.84908022 1.5,3.17236646 1.5,4.0638852 L1.5,16.9361148 C1.5,17.8276335 1.59282561,18.1509198 1.7671327,18.4768457 C1.9414398,18.8027716 2.19722837,19.0585602 2.5231543,19.2328673 C2.84908022,19.4071744 3.17236646,19.5 4.0638852,19.5 L16.9361148,19.5 C17.8276335,19.5 18.1509198,19.4071744 18.4768457,19.2328673 C18.8027716,19.0585602 19.0585602,18.8027716 19.2328673,18.4768457 C19.4071744,18.1509198 19.5,17.8276335 19.5,16.9361148 L19.5,4.0638852 C19.5,3.17236646 19.4071744,2.84908022 19.2328673,2.5231543 C19.0585602,2.19722837 18.8027716,1.9414398 18.4768457,1.7671327 C18.1509198,1.59282561 17.8276335,1.5 16.9361148,1.5 Z" id="Rectangle" fill="#FFEED6" fill-rule="nonzero"></path>
        </g>
    </g>
</svg>