<?xml version="1.0" encoding="UTF-8"?>
<svg width="24px" height="24px" viewBox="0 0 24 24" version="1.1" xmlns="http://www.w3.org/2000/svg" xmlns:xlink="http://www.w3.org/1999/xlink">
    <title>Icons / 24 / Motherboard Alt 2</title>
    <g id="Icons-/-24-/-Motherboard-Alt-2" stroke="none" stroke-width="1" fill="none" fill-rule="evenodd">
        <path d="M18.4361148,1.5 C19.4753785,1.5 20.0668249,1.61421358 20.684244,1.94441291 C21.2715726,2.2585197 21.7414803,2.72842737 22.0555871,3.31575601 C22.3857864,3.93317508 22.5,4.52462151 22.5,5.5638852 L22.5,18.4361148 C22.5,19.4753785 22.3857864,20.0668249 22.0555871,20.684244 C21.7414803,21.2715726 21.2715726,21.7414803 20.684244,22.0555871 C20.0668249,22.3857864 19.4753785,22.5 18.4361148,22.5 L5.5638852,22.5 C4.52462151,22.5 3.93317508,22.3857864 3.31575601,22.0555871 C2.72842737,21.7414803 2.2585197,21.2715726 1.94441291,20.684244 C1.61421358,20.0668249 1.5,19.4753785 1.5,18.4361148 L1.5,5.5638852 C1.5,4.52462151 1.61421358,3.93317508 1.94441291,3.31575601 C2.2585197,2.72842737 2.72842737,2.2585197 3.31575601,1.94441291 C3.93317508,1.61421358 4.52462151,1.5 5.5638852,1.5 L18.4361148,1.5 Z M18.4361148,3 L5.5638852,3 C4.67236646,3 4.34908022,3.09282561 4.0231543,3.2671327 C3.69722837,3.4414398 3.4414398,3.69722837 3.2671327,4.0231543 C3.09282561,4.34908022 3,4.67236646 3,5.5638852 L3,18.4361148 C3,19.3276335 3.09282561,19.6509198 3.2671327,19.9768457 C3.4414398,20.3027716 3.69722837,20.5585602 4.0231543,20.7328673 C4.34908022,20.9071744 4.67236646,21 5.5638852,21 L18.4361148,21 C19.3276335,21 19.6509198,20.9071744 19.9768457,20.7328673 C20.3027716,20.5585602 20.5585602,20.3027716 20.7328673,19.9768457 C20.9071744,19.6509198 21,19.3276335 21,18.4361148 L21,5.5638852 C21,4.67236646 20.9071744,4.34908022 20.7328673,4.0231543 C20.5585602,3.69722837 20.3027716,3.4414398 19.9768457,3.2671327 C19.6509198,3.09282561 19.3276335,3 18.4361148,3 Z" id="Rectangle" fill="#000000" fill-rule="nonzero"></path>
        <path d="M18.9361148,2.5 C19.8276335,2.5 20.1509198,2.59282561 20.4768457,2.7671327 C20.8027716,2.9414398 21.0585602,3.19722837 21.2328673,3.5231543 C21.4071744,3.84908022 21.5,4.17236646 21.5,5.0638852 L21.5,18.9361148 C21.5,19.8276335 21.4071744,20.1509198 21.2328673,20.4768457 C21.0585602,20.8027716 20.8027716,21.0585602 20.4768457,21.2328673 C20.1509198,21.4071744 19.8276335,21.5 18.9361148,21.5 L5.0638852,21.5 C4.17236646,21.5 3.84908022,21.4071744 3.5231543,21.2328673 C3.19722837,21.0585602 2.9414398,20.8027716 2.7671327,20.4768457 C2.59282561,20.1509198 2.5,19.8276335 2.5,18.9361148 L2.5,5.0638852 C2.5,4.17236646 2.59282561,3.84908022 2.7671327,3.5231543 C2.9414398,3.19722837 3.19722837,2.9414398 3.5231543,2.7671327 C3.84908022,2.59282561 4.17236646,2.5 5.0638852,2.5 L18.9361148,2.5 Z M19,18.5 C18.7238576,18.5 18.5,18.7238576 18.5,19 C18.5,19.2761424 18.7238576,19.5 19,19.5 C19.2761424,19.5 19.5,19.2761424 19.5,19 C19.5,18.7238576 19.2761424,18.5 19,18.5 Z M15,18.5 C14.7238576,18.5 14.5,18.7238576 14.5,19 C14.5,19.2761424 14.7238576,19.5 15,19.5 C15.2761424,19.5 15.5,19.2761424 15.5,19 C15.5,18.7238576 15.2761424,18.5 15,18.5 Z M11,18.5 C10.7238576,18.5 10.5,18.7238576 10.5,19 C10.5,19.2761424 10.7238576,19.5 11,19.5 C11.2761424,19.5 11.5,19.2761424 11.5,19 C11.5,18.7238576 11.2761424,18.5 11,18.5 Z M7,18.5 C6.72385763,18.5 6.5,18.7238576 6.5,19 C6.5,19.2761424 6.72385763,19.5 7,19.5 C7.27614237,19.5 7.5,19.2761424 7.5,19 C7.5,18.7238576 7.27614237,18.5 7,18.5 Z M17,16.5 C16.7238576,16.5 16.5,16.7238576 16.5,17 C16.5,17.2761424 16.7238576,17.5 17,17.5 C17.2761424,17.5 17.5,17.2761424 17.5,17 C17.5,16.7238576 17.2761424,16.5 17,16.5 Z M13,16.5 C12.7238576,16.5 12.5,16.7238576 12.5,17 C12.5,17.2761424 12.7238576,17.5 13,17.5 C13.2761424,17.5 13.5,17.2761424 13.5,17 C13.5,16.7238576 13.2761424,16.5 13,16.5 Z M9,16.5 C8.72385763,16.5 8.5,16.7238576 8.5,17 C8.5,17.2761424 8.72385763,17.5 9,17.5 C9.27614237,17.5 9.5,17.2761424 9.5,17 C9.5,16.7238576 9.27614237,16.5 9,16.5 Z M5,16.5 C4.72385763,16.5 4.5,16.7238576 4.5,17 C4.5,17.2761424 4.72385763,17.5 5,17.5 C5.27614237,17.5 5.5,17.2761424 5.5,17 C5.5,16.7238576 5.27614237,16.5 5,16.5 Z M19,14.5 C18.7238576,14.5 18.5,14.7238576 18.5,15 C18.5,15.2761424 18.7238576,15.5 19,15.5 C19.2761424,15.5 19.5,15.2761424 19.5,15 C19.5,14.7238576 19.2761424,14.5 19,14.5 Z M7,14.5 C6.72385763,14.5 6.5,14.7238576 6.5,15 C6.5,15.2761424 6.72385763,15.5 7,15.5 C7.27614237,15.5 7.5,15.2761424 7.5,15 C7.5,14.7238576 7.27614237,14.5 7,14.5 Z M13.7180574,9 L10.2819426,9 C9.83618323,9 9.67454011,9.04641281 9.51157715,9.13356635 C9.34861419,9.2207199 9.2207199,9.34861419 9.13356635,9.51157715 C9.04641281,9.67454011 9,9.83618323 9,10.2819426 L9,13.7180574 C9,14.1638168 9.04641281,14.3254599 9.13356635,14.4884229 C9.2207199,14.6513858 9.34861419,14.7792801 9.51157715,14.8664336 C9.67454011,14.9535872 9.83618323,15 10.2819426,15 L13.7180574,15 C14.1638168,15 14.3254599,14.9535872 14.4884229,14.8664336 C14.6513858,14.7792801 14.7792801,14.6513858 14.8664336,14.4884229 C14.9535872,14.3254599 15,14.1638168 15,13.7180574 L15,10.2819426 C15,9.83618323 14.9535872,9.67454011 14.8664336,9.51157715 C14.7792801,9.34861419 14.6513858,9.2207199 14.4884229,9.13356635 C14.3254599,9.04641281 14.1638168,9 13.7180574,9 Z M17,12.5 C16.7238576,12.5 16.5,12.7238576 16.5,13 C16.5,13.2761424 16.7238576,13.5 17,13.5 C17.2761424,13.5 17.5,13.2761424 17.5,13 C17.5,12.7238576 17.2761424,12.5 17,12.5 Z M5,12.5 C4.72385763,12.5 4.5,12.7238576 4.5,13 C4.5,13.2761424 4.72385763,13.5 5,13.5 C5.27614237,13.5 5.5,13.2761424 5.5,13 C5.5,12.7238576 5.27614237,12.5 5,12.5 Z M19,10.5 C18.7238576,10.5 18.5,10.7238576 18.5,11 C18.5,11.2761424 18.7238576,11.5 19,11.5 C19.2761424,11.5 19.5,11.2761424 19.5,11 C19.5,10.7238576 19.2761424,10.5 19,10.5 Z M7,10.5 C6.72385763,10.5 6.5,10.7238576 6.5,11 C6.5,11.2761424 6.72385763,11.5 7,11.5 C7.27614237,11.5 7.5,11.2761424 7.5,11 C7.5,10.7238576 7.27614237,10.5 7,10.5 Z M17,8.5 C16.7238576,8.5 16.5,8.72385763 16.5,9 C16.5,9.27614237 16.7238576,9.5 17,9.5 C17.2761424,9.5 17.5,9.27614237 17.5,9 C17.5,8.72385763 17.2761424,8.5 17,8.5 Z M5,8.5 C4.72385763,8.5 4.5,8.72385763 4.5,9 C4.5,9.27614237 4.72385763,9.5 5,9.5 C5.27614237,9.5 5.5,9.27614237 5.5,9 C5.5,8.72385763 5.27614237,8.5 5,8.5 Z M19,6.5 C18.7238576,6.5 18.5,6.72385763 18.5,7 C18.5,7.27614237 18.7238576,7.5 19,7.5 C19.2761424,7.5 19.5,7.27614237 19.5,7 C19.5,6.72385763 19.2761424,6.5 19,6.5 Z M15,6.5 C14.7238576,6.5 14.5,6.72385763 14.5,7 C14.5,7.27614237 14.7238576,7.5 15,7.5 C15.2761424,7.5 15.5,7.27614237 15.5,7 C15.5,6.72385763 15.2761424,6.5 15,6.5 Z M11,6.5 C10.7238576,6.5 10.5,6.72385763 10.5,7 C10.5,7.27614237 10.7238576,7.5 11,7.5 C11.2761424,7.5 11.5,7.27614237 11.5,7 C11.5,6.72385763 11.2761424,6.5 11,6.5 Z M7,6.5 C6.72385763,6.5 6.5,6.72385763 6.5,7 C6.5,7.27614237 6.72385763,7.5 7,7.5 C7.27614237,7.5 7.5,7.27614237 7.5,7 C7.5,6.72385763 7.27614237,6.5 7,6.5 Z M17,4.5 C16.7238576,4.5 16.5,4.72385763 16.5,5 C16.5,5.27614237 16.7238576,5.5 17,5.5 C17.2761424,5.5 17.5,5.27614237 17.5,5 C17.5,4.72385763 17.2761424,4.5 17,4.5 Z M13,4.5 C12.7238576,4.5 12.5,4.72385763 12.5,5 C12.5,5.27614237 12.7238576,5.5 13,5.5 C13.2761424,5.5 13.5,5.27614237 13.5,5 C13.5,4.72385763 13.2761424,4.5 13,4.5 Z M9,4.5 C8.72385763,4.5 8.5,4.72385763 8.5,5 C8.5,5.27614237 8.72385763,5.5 9,5.5 C9.27614237,5.5 9.5,5.27614237 9.5,5 C9.5,4.72385763 9.27614237,4.5 9,4.5 Z M5,4.5 C4.72385763,4.5 4.5,4.72385763 4.5,5 C4.5,5.27614237 4.72385763,5.5 5,5.5 C5.27614237,5.5 5.5,5.27614237 5.5,5 C5.5,4.72385763 5.27614237,4.5 5,4.5 Z" id="Combined-Shape" fill="#000000"></path>
        <line x1="1.5" y1="21.5" x2="2.5" y2="22.5" id="Path-4" stroke="#000000" stroke-width="2.5" stroke-linecap="round" stroke-linejoin="round" transform="translate(2, 22) scale(-1, 1) translate(-2, -22)"></line>
        <line x1="21.5" y1="21.5" x2="22.5" y2="22.5" id="Path-4" stroke="#000000" stroke-width="2.5" stroke-linecap="round" stroke-linejoin="round"></line>
        <line x1="21.5" y1="1.5" x2="22.5" y2="2.5" id="Path-4" stroke="#000000" stroke-width="2.5" stroke-linecap="round" stroke-linejoin="round" transform="translate(22, 2) scale(-1, 1) translate(-22, -2)"></line>
        <line x1="1.5" y1="1.5" x2="2.5" y2="2.5" id="Path-4" stroke="#000000" stroke-width="2.5" stroke-linecap="round" stroke-linejoin="round"></line>
    </g>
</svg>