<?xml version="1.0" encoding="UTF-8"?>
<svg width="24px" height="24px" viewBox="0 0 24 24" version="1.1" xmlns="http://www.w3.org/2000/svg" xmlns:xlink="http://www.w3.org/1999/xlink">
    <title>Icons / 24 / NVMe</title>
    <g id="Icons-/-24-/-NVMe" stroke="none" stroke-width="1" fill="none" fill-rule="evenodd">
        <g id="Color" transform="translate(0, 9)" fill="#FFEED6" fill-rule="nonzero">
            <path d="M21.2180574,-1.5 C21.8509128,-1.5 22.2636042,-1.42030562 22.6958211,-1.18915345 C23.1201868,-0.9622002 23.4622002,-0.620186813 23.6891534,-0.19582114 C23.9203056,0.236395845 24,0.649087224 24,1.2819426 L24,4.7180574 C24,5.35091278 23.9203056,5.76360416 23.6891534,6.19582114 C23.4622002,6.62018681 23.1201868,6.9622002 22.6958211,7.18915345 C22.2636042,7.42030562 21.8509128,7.5 21.2180574,7.5 L4.2819426,7.5 C3.64908722,7.5 3.23639584,7.42030562 2.80417886,7.18915345 C2.37981319,6.9622002 2.0377998,6.62018681 1.81084655,6.19582114 C1.68927062,5.9684939 1.60959245,5.74656803 1.56137081,5.49516982 L1.5,5.5 L0.5,5.5 C0.223857625,5.5 0,5.27614237 0,5 C0,4.72385763 0.223857625,4.5 0.5,4.5 L1.5,4.5 L1.5,3.5 L0.6409713,3.5 C0.418091615,3.5 0.337270056,3.4767936 0.255788574,3.43321682 C0.174307093,3.38964005 0.110359949,3.32569291 0.0667831759,3.24421143 C0.0232064028,3.16272994 0,3.08190838 0,2.8590287 L0,1.1409713 C0,0.918091615 0.0232064028,0.837270056 0.0667831759,0.755788574 C0.110359949,0.674307093 0.174307093,0.610359949 0.255788574,0.566783176 C0.337270056,0.523206403 0.418091615,0.5 0.6409713,0.5 L1.56231418,0.499936532 C1.610629,0.250549588 1.69006007,0.0300299483 1.81084655,-0.19582114 C2.0377998,-0.620186813 2.37981319,-0.9622002 2.80417886,-1.18915345 C3.23639584,-1.42030562 3.64908722,-1.5 4.2819426,-1.5 L21.2180574,-1.5 Z M21.2180574,0 L4.2819426,0 C3.83618323,0 3.67454011,0.0464128056 3.51157715,0.133566352 C3.34861419,0.220719898 3.2207199,0.348614185 3.13356635,0.511577148 C3.04641281,0.674540111 3,0.83618323 3,1.2819426 L3,4.7180574 C3,5.16381677 3.04641281,5.32545989 3.13356635,5.48842285 C3.2207199,5.65138581 3.34861419,5.7792801 3.51157715,5.86643365 C3.67454011,5.95358719 3.83618323,6 4.2819426,6 L21.2180574,6 C21.6638168,6 21.8254599,5.95358719 21.9884229,5.86643365 C22.1513858,5.7792801 22.2792801,5.65138581 22.3664336,5.48842285 C22.4535872,5.32545989 22.5,5.16381677 22.5,4.7180574 L22.5,1.2819426 C22.5,0.83618323 22.4535872,0.674540111 22.3664336,0.511577148 C22.2792801,0.348614185 22.1513858,0.220719898 21.9884229,0.133566352 C21.8254599,0.0464128056 21.6638168,0 21.2180574,0 Z M6.3590287,2 C6.58190838,2 6.66272994,2.0232064 6.74421143,2.06678318 C6.82569291,2.11035995 6.88964005,2.17430709 6.93321682,2.25578857 C6.9767936,2.33727006 7,2.41809162 7,2.6409713 L7,3.3590287 C7,3.58190838 6.9767936,3.66272994 6.93321682,3.74421143 C6.88964005,3.82569291 6.82569291,3.88964005 6.74421143,3.93321682 C6.66272994,3.9767936 6.58190838,4 6.3590287,4 L5.6409713,4 C5.41809162,4 5.33727006,3.9767936 5.25578857,3.93321682 C5.17430709,3.88964005 5.11035995,3.82569291 5.06678318,3.74421143 C5.0232064,3.66272994 5,3.58190838 5,3.3590287 L5,2.6409713 C5,2.41809162 5.0232064,2.33727006 5.06678318,2.25578857 C5.11035995,2.17430709 5.17430709,2.11035995 5.25578857,2.06678318 C5.33727006,2.0232064 5.41809162,2 5.6409713,2 L6.3590287,2 Z M19.8590287,2 C20.0819084,2 20.1627299,2.0232064 20.2442114,2.06678318 C20.3256929,2.11035995 20.3896401,2.17430709 20.4332168,2.25578857 C20.4767936,2.33727006 20.5,2.41809162 20.5,2.6409713 L20.5,3.3590287 C20.5,3.58190838 20.4767936,3.66272994 20.4332168,3.74421143 C20.3896401,3.82569291 20.3256929,3.88964005 20.2442114,3.93321682 C20.1627299,3.9767936 20.0819084,4 19.8590287,4 L11.1409713,4 C10.9180916,4 10.8372701,3.9767936 10.7557886,3.93321682 C10.6743071,3.88964005 10.6103599,3.82569291 10.5667832,3.74421143 C10.5232064,3.66272994 10.5,3.58190838 10.5,3.3590287 L10.5,2.6409713 C10.5,2.41809162 10.5232064,2.33727006 10.5667832,2.25578857 C10.6103599,2.17430709 10.6743071,2.11035995 10.7557886,2.06678318 C10.8372701,2.0232064 10.9180916,2 11.1409713,2 L19.8590287,2 Z" id="Combined-Shape"></path>
        </g>
    </g>
</svg>