<svg height="24" viewBox="0 0 24 24" width="24" xmlns="http://www.w3.org/2000/svg"><path d="m21.2180574-1.5c.6328554 0 1.0455468.07969438 1.4777637.31084655.4243657.22695325.7663791.56896664.9933323.99333231.2311522.43221699.3108466.84490836.3108466 1.47776374v3.4361148c0 .63285538-.0796944 1.04554676-.3108466 1.47776374-.2269532.42436567-.5689666.76637906-.9933323.99333231-.4322169.23115217-.8449083.31084655-1.4777637.31084655h-16.9361148c-.63285538 0-1.04554676-.07969438-1.47776374-.31084655-.42436567-.22695325-.76637906-.56896664-.99333231-.99333231-.12157593-.22732724-.2012541-.44925311-.24947574-.70065132l-.06137081.00483018h-1c-.27614237 0-.5-.22385763-.5-.5s.22385763-.5.5-.5h1v-1h-.8590287c-.22287968 0-.30370124-.0232064-.38518273-.06678318-.08148148-.04357677-.14542862-.10752391-.18900539-.18900539-.04357678-.08148149-.06678318-.16230305-.06678318-.38518273v-1.7180574c0-.22287968.0232064-.30370124.06678318-.38518273.04357677-.08148148.10752391-.14542862.18900539-.18900539.08148149-.04357678.16230305-.06678318.38518273-.06678318l.92134288-.00006347c.04831482-.24938694.12774589-.46990658.24853237-.69575767.22695325-.42436567.56896664-.76637906.99333231-.99333231.43221698-.23115217.84490836-.31084655 1.47776374-.31084655zm0 1.5h-16.9361148c-.44575937 0-.60740249.04641281-.77036545.13356635-.16296296.08715355-.29085725.21504784-.3780108.3780108-.08715354.16296296-.13356635.32460608-.13356635.77036545v3.4361148c0 .44575937.04641281.60740249.13356635.77036545.08715355.16296296.21504784.29085725.3780108.3780108.16296296.08715354.32460608.13356635.77036545.13356635h16.9361148c.4457594 0 .6074025-.04641281.7703655-.13356635.1629629-.08715355.2908572-.21504784.3780107-.3780108.0871536-.16296296.1335664-.32460608.1335664-.77036545v-3.4361148c0-.44575937-.0464128-.60740249-.1335664-.77036545-.0871535-.16296296-.2150478-.29085725-.3780107-.3780108-.162963-.08715354-.3246061-.13356635-.7703655-.13356635zm-14.8590287 2c.22287968 0 .30370124.0232064.38518273.06678318.08148148.04357677.14542862.10752391.18900539.18900539.04357678.08148149.06678318.16230305.06678318.38518273v.7180574c0 .22287968-.0232064.30370124-.06678318.38518273-.04357677.08148148-.10752391.14542862-.18900539.18900539-.08148149.04357678-.16230305.06678318-.38518273.06678318h-.7180574c-.22287968 0-.30370124-.0232064-.38518273-.06678318-.08148148-.04357677-.14542862-.10752391-.18900539-.18900539-.04357678-.08148149-.06678318-.16230305-.06678318-.38518273v-.7180574c0-.22287968.0232064-.30370124.06678318-.38518273.04357677-.08148148.10752391-.14542862.18900539-.18900539.08148149-.04357678.16230305-.06678318.38518273-.06678318zm13.5 0c.2228797 0 .3037012.0232064.3851827.06678318.0814815.04357677.1454287.10752391.1890054.18900539.0435768.08148149.0667832.16230305.0667832.38518273v.7180574c0 .22287968-.0232064.30370124-.0667832.38518273-.0435767.08148148-.1075239.14542862-.1890054.18900539-.0814815.04357678-.162303.06678318-.3851827.06678318h-8.7180574c-.2228797 0-.3037012-.0232064-.3851827-.06678318-.0814815-.04357677-.1454287-.10752391-.1890054-.18900539-.0435768-.08148149-.0667832-.16230305-.0667832-.38518273v-.7180574c0-.22287968.0232064-.30370124.0667832-.38518273.0435767-.08148148.1075239-.14542862.1890054-.18900539.0814815-.04357678.162303-.06678318.3851827-.06678318z" transform="translate(0 9)"/></svg>