<?xml version="1.0" encoding="UTF-8"?>
<svg width="24px" height="24px" viewBox="0 0 24 24" version="1.1" xmlns="http://www.w3.org/2000/svg" xmlns:xlink="http://www.w3.org/1999/xlink">
    <title>Icons / 24 / RAM</title>
    <g id="Icons-/-24-/-RAM" stroke="none" stroke-width="1" fill="none" fill-rule="evenodd">
        <g id="Color" transform="translate(0, 4)" fill="#FFEED6">
            <path d="M20,0 C20.4142136,0 20.75,0.335786438 20.75,0.75 L20.75,2 L21.5,2 C22.8807119,2 24,3.03318904 24,4.30769231 L24,11.6923077 C24,12.966811 22.8807119,14 21.5,14 L20.75,14 L20.75,15.25 C20.75,15.6642136 20.4142136,16 20,16 C19.5857864,16 19.25,15.6642136 19.25,15.25 L19.25,14 L17.75,14 L17.75,15.25 C17.75,15.6642136 17.4142136,16 17,16 C16.5857864,16 16.25,15.6642136 16.25,15.25 L16.25,14 L14.75,14 L14.75,15.25 C14.75,15.6642136 14.4142136,16 14,16 C13.5857864,16 13.25,15.6642136 13.25,15.25 L13.25,14 L10.75,14 L10.75,15.25 C10.75,15.6642136 10.4142136,16 10,16 C9.58578644,16 9.25,15.6642136 9.25,15.25 L9.25,14 L7.75,14 L7.75,15.25 C7.75,15.6642136 7.41421356,16 7,16 C6.58578644,16 6.25,15.6642136 6.25,15.25 L6.25,14 L4.75,14 L4.75,15.25 C4.75,15.6642136 4.41421356,16 4,16 C3.58578644,16 3.25,15.6642136 3.25,15.25 L3.25,14 L2.5,14 C1.11928813,14 0,12.966811 0,11.6923077 L0,4.30769231 C0,3.03318904 1.11928813,2 2.5,2 L3.25,2 L3.25,0.75 C3.25,0.335786438 3.58578644,0 4,0 C4.41421356,0 4.75,0.335786438 4.75,0.75 L4.75,2 L6.25,2 L6.25,0.75 C6.25,0.335786438 6.58578644,0 7,0 C7.41421356,0 7.75,0.335786438 7.75,0.75 L7.75,2 L9.25,2 L9.25,0.75 C9.25,0.335786438 9.58578644,0 10,0 C10.4142136,0 10.75,0.335786438 10.75,0.75 L10.75,2 L13.25,2 L13.25,0.75 C13.25,0.335786438 13.5857864,0 14,0 C14.4142136,0 14.75,0.335786438 14.75,0.75 L14.75,2 L16.25,2 L16.25,0.75 C16.25,0.335786438 16.5857864,0 17,0 C17.4142136,0 17.75,0.335786438 17.75,0.75 L17.75,2 L19.25,2 L19.25,0.75 C19.25,0.335786438 19.5857864,0 20,0 Z M21.5,3.5 L2.5,3.5 C1.94771525,3.5 1.5,3.90294373 1.5,4.4 L1.5,11.6 C1.5,12.0970563 1.94771525,12.5 2.5,12.5 L21.5,12.5 C22.0522847,12.5 22.5,12.0970563 22.5,11.6 L22.5,4.4 C22.5,3.90294373 22.0522847,3.5 21.5,3.5 Z" id="RAM"></path>
        </g>
    </g>
</svg>