<svg height="24" viewBox="0 0 24 24" width="24" xmlns="http://www.w3.org/2000/svg"><path d="m20 0c.4142136 0 .75.33578644.75.75v1.25h.75c1.3807119 0 2.5 1.03318904 2.5 2.30769231v7.38461539c0 1.2745033-1.1192881 2.3076923-2.5 2.3076923h-.75v1.25c0 .4142136-.3357864.75-.75.75s-.75-.3357864-.75-.75v-1.25h-1.5v1.25c0 .4142136-.3357864.75-.75.75s-.75-.3357864-.75-.75v-1.25h-1.5v1.25c0 .4142136-.3357864.75-.75.75s-.75-.3357864-.75-.75v-1.25h-2.5v1.25c0 .4142136-.3357864.75-.75.75-.41421356 0-.75-.3357864-.75-.75v-1.25h-1.5v1.25c0 .4142136-.33578644.75-.75.75s-.75-.3357864-.75-.75v-1.25h-1.5v1.25c0 .4142136-.33578644.75-.75.75s-.75-.3357864-.75-.75v-1.25h-.75c-1.38071187 0-2.5-1.033189-2.5-2.3076923v-7.38461539c0-1.27450327 1.11928813-2.30769231 2.5-2.30769231h.75v-1.25c0-.41421356.33578644-.75.75-.75s.75.33578644.75.75v1.25h1.5v-1.25c0-.41421356.33578644-.75.75-.75s.75.33578644.75.75v1.25h1.5v-1.25c0-.41421356.33578644-.75.75-.75.4142136 0 .75.33578644.75.75v1.25h2.5v-1.25c0-.41421356.3357864-.75.75-.75s.75.33578644.75.75v1.25h1.5v-1.25c0-.41421356.3357864-.75.75-.75s.75.33578644.75.75v1.25h1.5v-1.25c0-.41421356.3357864-.75.75-.75zm1.5 3.5h-19c-.55228475 0-1 .40294373-1 .9v7.2c0 .4970563.44771525.9 1 .9h19c.5522847 0 1-.4029437 1-.9v-7.2c0-.49705627-.4477153-.9-1-.9z" fill-rule="evenodd" transform="translate(0 4)"/></svg>