<svg height="24" viewBox="0 0 24 24" width="24" xmlns="http://www.w3.org/2000/svg"><g fill="none" fill-rule="evenodd"><path d="m14.6541722.75c1.549676 0 2.1010852.18786357 2.6647955.48933916.6215235.33239439 1.1092987.82016966 1.4416931 1.44169314.3014756.56371034.4893392 1.11511947.4893392 2.6647955v13.3083444c0 1.549676-.1878636 2.1010852-.4893392 2.6647955-.3323944.6215235-.8201696 1.1092987-1.4416931 1.4416931-.5637103.3014756-1.1151195.4893392-2.6647955.4893392h-5.3083444c-1.54967603 0-2.10108516-.1878636-2.6647955-.4893392-.62152348-.3323944-1.10929875-.8201696-1.44169314-1.4416931-.30147559-.5637103-.48933916-1.1151195-.48933916-2.6647955v-13.3083444c0-1.54967603.18786357-2.10108516.48933916-2.6647955.33239439-.62152348.82016966-1.10929875 1.44169314-1.44169314.56371034-.30147559 1.11511947-.48933916 2.6647955-.48933916z" stroke="#000" stroke-width="1.5"/><circle cx="12" cy="16" r="3.75" stroke="#000" stroke-width="1.5"/><circle cx="12" cy="16" fill="#000" r="1.5"/><circle cx="12" cy="7" r="2" stroke="#000"/></g></svg>