<?xml version="1.0" encoding="UTF-8"?>
<svg width="24px" height="24px" viewBox="0 0 24 24" version="1.1" xmlns="http://www.w3.org/2000/svg" xmlns:xlink="http://www.w3.org/1999/xlink">
    <title>Icons / 24 / Speakers</title>
    <g id="Icons-/-24-/-Speakers" stroke="none" stroke-width="1" fill="none" fill-rule="evenodd">
        <g id="Color" transform="translate(5.5, 1.5)">
            <path d="M3.8458278,-0.75 L9.1541722,-0.75 C10.7038482,-0.75 11.2552574,-0.562136431 11.8189677,-0.260660843 C12.4404912,0.0717335527 12.9282664,0.559508819 13.2606608,1.1810323 C13.5621364,1.74474264 13.75,2.29615177 13.75,3.8458278 L13.75,17.1541722 C13.75,18.7038482 13.5621364,19.2552574 13.2606608,19.8189677 C12.9282664,20.4404912 12.4404912,20.9282664 11.8189677,21.2606608 C11.2552574,21.5621364 10.7038482,21.75 9.1541722,21.75 L3.8458278,21.75 C2.29615177,21.75 1.74474264,21.5621364 1.1810323,21.2606608 C0.559508819,20.9282664 0.0717335527,20.4404912 -0.260660843,19.8189677 C-0.562136431,19.2552574 -0.75,18.7038482 -0.75,17.1541722 L-0.75,3.8458278 C-0.75,2.29615177 -0.562136431,1.74474264 -0.260660843,1.1810323 C0.0717335527,0.559508819 0.559508819,0.0717335527 1.1810323,-0.260660843 C1.74474264,-0.562136431 2.29615177,-0.75 3.8458278,-0.75 Z" id="Rectangle" stroke="#FFEED6" stroke-width="1.5"></path>
            <circle id="Oval" stroke="#FFEED6" stroke-width="1.5" cx="6.5" cy="14.5" r="3.75"></circle>
            <circle id="Oval" fill="#FFEED6" cx="6.5" cy="14.5" r="1.5"></circle>
            <circle id="Oval" stroke="#FFEED6" cx="6.5" cy="5.5" r="2"></circle>
        </g>
    </g>
</svg>