<svg height="24" viewBox="0 0 24 24" width="24" xmlns="http://www.w3.org/2000/svg" xmlns:xlink="http://www.w3.org/1999/xlink"><linearGradient id="a" x1="91.292809%" x2="60.274026%" y1="71.153907%" y2="28.215833%"><stop offset="0" stop-opacity="0"/><stop offset=".0862099125" stop-opacity=".007843"/><stop offset=".165597668" stop-opacity=".035294"/><stop offset=".239300292" stop-opacity=".078431"/><stop offset=".308454811" stop-opacity=".129412"/><stop offset=".374198251" stop-opacity=".188235"/><stop offset=".437667639" stop-opacity=".254902"/><stop offset=".5" stop-opacity=".32549"/><stop offset=".562332361" stop-opacity=".396078"/><stop offset=".625801749" stop-opacity=".458824"/><stop offset=".691545189" stop-opacity=".521569"/><stop offset=".760699709" stop-opacity=".572549"/><stop offset=".834402332" stop-opacity=".615686"/><stop offset=".913790087" stop-opacity=".639216"/><stop offset="1" stop-opacity=".65098"/></linearGradient><g fill="none" fill-rule="evenodd" transform="translate(0 3)"><path d="m19.9361148 0c1.0392637 0 1.6307101.11421358 2.2481292.44441291.5873286.31410679 1.0572363.78401446 1.3713431 1.3713431.3301993.61741907.4444129 1.2088655.4444129 2.24812919v10.8722296c0 1.0392637-.1142136 1.6307101-.4444129 2.2481292-.3141068.5873286-.7840145 1.0572363-1.3713431 1.3713431-.6174191.3301993-1.2088655.4444129-2.2481292.4444129h-15.8722296c-1.03926369 0-1.63071012-.1142136-2.24812919-.4444129-.58732864-.3141068-1.05723631-.7840145-1.3713431-1.3713431-.33019933-.6174191-.44441291-1.2088655-.44441291-2.2481292v-10.8722296c0-1.03926369.11421358-1.63071012.44441291-2.24812919.31410679-.58732864.78401446-1.05723631 1.3713431-1.3713431.61741907-.33019933 1.2088655-.44441291 2.24812919-.44441291zm-.6409713 1.5h-14.590287c-1.11439842 0-1.51850622.11603201-1.92591363.33391588s-.72714312.53761958-.94502699.94502699-.33391588.81151521-.33391588 1.92591363v8.590287c0 1.1143984.11603201 1.5185062.33391588 1.9259136s.53761958.7271432.94502699.945027c.40740741.2178839.81151521.3339159 1.92591363.3339159h14.590287c1.1143984 0 1.5185062-.116032 1.9259136-.3339159.4074074-.2178838.7271432-.5376196.945027-.945027.2178839-.4074074.3339159-.8115152.3339159-1.9259136v-8.590287c0-1.11439842-.116032-1.51850622-.3339159-1.92591363-.2178838-.40740741-.5376196-.72714312-.945027-.94502699s-.8115152-.33391588-1.9259136-.33391588z" fill="#000" fill-rule="nonzero"/><rect fill="url(#a)" height="15" opacity=".5" rx="2.5" width="21" x="1.5" y="1.5"/></g></svg>