<svg height="16" viewBox="0 0 16 16" width="16" xmlns="http://www.w3.org/2000/svg"><path d="m11 0c.4142136-0 .75.33578644.75.75l.00105.85495787c.340908.07015376.6340015.17944515.933194.33945504.5873286.31410679 1.0572363.78401446 1.3713431 1.3713431.1601689.29948988.2695185.59286866.3396641.93421077l.8547488.00003322c.4142136 0 .75.33578644.75.75s-.3357864.75-.75.75h-.75v1.5h.75c.4142136 0 .75.33578644.75.75s-.3357864.75-.75.75h-.75v1.5h.75c.4142136 0 .75.3357864.75.75s-.3357864.75-.75.75l-.8549579.00105c-.0701537.340908-.1794451.6340015-.339455.933194-.3141068.5873286-.7840145 1.0572363-1.3713431 1.3713431-.2991925.1600099-.592286.2693013-.933194.339455l-.00105.8549579c0 .4142136-.3357864.75-.75.75s-.75-.3357864-.75-.75v-.75h-1.5v.75c0 .4142136-.33578644.75-.75.75s-.75-.3357864-.75-.75v-.75h-1.5v.75c0 .4142136-.33578644.75-.75.75s-.75-.3357864-.75-.75l-.00003322-.8547488c-.34134211-.0701456-.63472089-.1794952-.93421077-.3396641-.58732864-.3141068-1.05723631-.7840145-1.3713431-1.3713431-.16000989-.2991925-.26930128-.592286-.33945504-.933194l-.85495787-.00105c-.41421356 0-.75-.3357864-.75-.75s.33578644-.75.75-.75h.75v-1.5h-.75c-.41421356 0-.75-.33578644-.75-.75s.33578644-.75.75-.75h.75v-1.5h-.75c-.41421356 0-.75-.33578644-.75-.75s.33578644-.75.75-.75l.85474878-.00003322c.07014562-.34134211.17949518-.63472089.33966413-.93421077.31410679-.58732864.78401446-1.05723631 1.3713431-1.3713431.29948988-.16016895.59286866-.26951851.93421077-.33966413l.00003322-.85474878c0-.41421356.33578644-.75.75-.75s.75.33578644.75.75v.75h1.5v-.75c0-.41421356.33578644-.75.75-.75s.75.33578644.75.75v.75h1.5v-.75c0-.41421356.3357864-.75.75-.75zm-.5638852 3h-4.8722296c-.89151874 0-1.21480498.09282561-1.5407309.2671327-.32592593.1743071-.5817145.43009567-.7560216.7560216-.17430709.32592592-.2671327.64921216-.2671327 1.5407309v4.8722296c0 .8915187.09282561 1.214805.2671327 1.5407309.1743071.3259259.43009567.5817145.7560216.7560216.32592592.1743071.64921216.2671327 1.5407309.2671327h4.8722296c.8915187 0 1.214805-.0928256 1.5407309-.2671327s.5817145-.4300957.7560216-.7560216.2671327-.6492122.2671327-1.5407309v-4.8722296c0-.89151874-.0928256-1.21480498-.2671327-1.5407309-.1743071-.32592593-.4300957-.5817145-.7560216-.7560216-.3259259-.17430709-.6492122-.2671327-1.5407309-.2671327z"/></svg>