<svg height="16" viewBox="0 0 16 16" width="16" xmlns="http://www.w3.org/2000/svg"><g fill="none" fill-rule="evenodd"><path d="m13.2032988 12.2120583c-.2264753.423472-.5677685.7647652-.9912405.9912405-.0985083.0526828-.1960002.0974816-.2953254.1352495l1.4294097 1.4188296c.1572678.1572679.2306718.1979221.3189151.2246684.0882433.0267462.1784878.0267462.2667311 0 .0882433-.0267463.1616473-.0674005.3189151-.2246684l.506674-.506674c.1572679-.1572678.1979221-.2306718.2246684-.3189151.0267462-.0882433.0267462-.1784878 0-.2667311-.0267463-.0882433-.0674005-.1616473-.2246684-.3189151l-1.4215209-1.4223661c-.0344716.0909642-.0795194.1891079-.1325582.2882818zm-2.4658921-8.17856119h-5.42466668c-.44482063 0-.60612334.04631506-.76874311.13328507-.16261978.08697-.29024473.21459495-.37721473.37721473-.08697001.16261977-.13328507.32392248-.13328507.76874311v5.42466668c0 .4448206.04631506.6061233.13328507.7687431.08697.1626198.21459495.2902447.37721473.3772147.16261977.08697.32392248.1332851.76874311.1332851h5.42466668c.4448206 0 .6061233-.0463151.7687431-.1332851s.2902447-.2145949.3772147-.3772147.1332851-.3239225.1332851-.7687431v-5.42466668c0-.44482063-.0463151-.60612334-.1332851-.76874311-.08697-.16261978-.2145949-.29024473-.3772147-.37721473-.1626198-.08697001-.3239225-.13328507-.7687431-.13328507zm-8.66919552-3.01554338c-.08824331.02674624-.16164728.06740051-.31891512.22466835l-.50667398.50667398c-.15726784.15726784-.19792211.23067181-.22466835.31891512-.02674623.08824331-.02674623.17848778 0 .26673109.02674624.08824332.06740051.16164728.22466835.31891512l1.47166762 1.47251277-.00383747.01006427c.03800683-.10036972.08317894-.19883934.13639572-.29834607.22647529-.42347199.56776842-.76476512.99124041-.99124041.10350031-.05535257.2058786-.10200179.31044009-.14093723l-.02215829.00837898-1.47251277-1.47166762c-.15726784-.15726784-.2306718-.19792211-.31891512-.22466835-.08824331-.02674623-.17848778-.02674623-.26673109 0zm11.59684652 0c-.0882433.02674624-.1616473.06740051-.3189151.22466835l-1.4586344 1.45808617-.1467897-.04812523c.1620973.04726411.3154458.1108919.4713398.19426493.423472.22647529.7647652.56776842.9912405.99124041.050191.09384915.0932262.18677579.1298433.28124404l-.0115012-.02909823 1.435737-1.43637678c.1572679-.15726784.1979221-.2306718.2246684-.31891512.0267462-.08824331.0267462-.17848778 0-.26673109-.0267463-.08824331-.0674005-.16164728-.2246684-.31891512l-.506674-.50667398c-.1572678-.15726784-.2306718-.19792211-.3189151-.22466835-.0882433-.02674623-.1784878-.02674623-.2667311 0zm-10.96434945 10.86955447-1.45808617 1.4586344c-.15726784.1572678-.19792211.2306718-.22466835.3189151-.02674623.0882433-.02674623.1784878 0 .2667311.02674624.0882433.06740051.1616473.22466835.3189151l.50667398.506674c.15726784.1572679.23067181.1979221.31891512.2246684.08824331.0267462.17848778.0267462.26673109 0 .08824332-.0267463.16164728-.0674005.31891512-.2246684l1.43637678-1.435737.02909823.0115012c-.09446825-.0366171-.18739489-.0796523-.28124404-.1298433-.42347199-.2264753-.76476512-.5677685-.99124041-.9912405-.08649952-.16174-.15174514-.32074-.19951329-.4896133.0156476.0553977.0334722.1105462.05337359.1650632zm10.81229175-1.1975082 1.9499956 1.9505249c.2499078.2499079.3895909.4564502.4740421.7350783.0839497.2769737.0839497.5686665 0 .8456401-.0844512.2786281-.2241343.4851705-.4740421.7350783l-.506674.506674c-.2499078.2499078-.4564502.3895909-.7350783.4740421-.2769736.0839497-.5686664.0839497-.8456401 0-.2786281-.0844512-.4851704-.2241343-.7350783-.4740421l-1.9505249-1.9499956-5.37725998.0004907c-.15561443 0-.29788895-.0048288-.4304022-.0155577.13184049.0107061.27441981.0155577.4304022.0155577l-1.95326497 1.9495049c-.2499078.2499078-.45645018.3895909-.7350783.4740421-.27697365.0839497-.5686664.0839497-.84564005 0-.27862811-.0844512-.48517049-.2241343-.7350783-.4740421l-.50667398-.506674c-.2499078-.2499078-.38959095-.4564502-.47404213-.7350783-.08394972-.2769736-.08394972-.5686664 0-.8456401.08445118-.2786281.22413433-.4851704.47404213-.7350783l1.99899558-2.0005249v-5.281l-1.99899558-1.99952495c-.2499078-.2499078-.38959095-.45645018-.47404213-.7350783-.08394972-.27697365-.08394972-.5686664 0-.84564005.08445118-.27862811.22413433-.48517049.47404213-.7350783l.50667398-.50667398c.24990781-.2499078.45645019-.38959095.7350783-.47404213.27697365-.08394972.5686664-.08394972.84564005 0 .27862812.08445118.4851705.22413433.7350783.47404213l1.99952495 1.99899558h5.281l2.0005249-1.99899558c.2499079-.2499078.4564502-.38959095.7350783-.47404213.2769737-.08394972.5686665-.08394972.8456401 0 .2786281.08445118.4851705.22413433.7350783.47404213l.506674.50667398c.2499078.24990781.3895909.45645019.4740421.7350783.0839497.27697365.0839497.5686664 0 .84564005-.0844512.27862812-.2241343.4851705-.4740421.7350783l-1.9495056 1.95013697c-.0000611-.14674599-.0044326-.28162333-.0140161-.40764336.0096455.1267269.0140168.26271103.0140168.41077136z" fill="#000" fill-rule="nonzero"/><path d="m10.3441487 9.09678107c.2442592-.07276069.3063644-.04495527.3513197 0 .0449552.04495528.0727606.10706042.0727606.17565986v.99789407c0 .0685994-.0278054.1307046-.0727606.1756598-.0449553.0449553-.1070605.0727607-.1756599.0727607s-.1307046-.0278054-.1756598-.0727607c-.0449553-.0449552-.0727607-.1070604-.0727607-.1756598v-.99789407c0-.06859944.0278054-.13070458.0727607-.17565986zm-2.4947352 0c.24425929-.07276069.30636443-.04495527.3513197 0 .04495528.04495528.0727607.10706042.0727607.17565986v.99789407c0 .0685994-.02780542.1307046-.0727607.1756598-.04495527.0449553-.10706041.0727607-.17565985.0727607s-.13070457-.0278054-.17565985-.0727607c-.04495528-.0449552-.07276069-.1070604-.07276069-.1756598v-.99789407c0-.06859944.02780541-.13070458.07276069-.17565986zm-2.49473515 0c.24425929-.07276069.30636443-.04495527.3513197 0 .04495528.04495528.0727607.10706042.0727607.17565986v.99789407c0 .0685994-.02780542.1307046-.0727607.1756598-.04495527.0449553-.10706041.0727607-.17565985.0727607s-.13070458-.0278054-.17565985-.0727607c-.04495528-.0449552-.0727607-.1070604-.0727607-.1756598v-.99789407c0-.06859944.02780542-.13070458.0727607-.17565986zm4.98947035-3.49262921c.2442592-.07276069.3063644-.04495527.3513197 0 .0449552.04495528.0727606.10706042.0727606.17565985v.99789407c0 .06859944-.0278054.13070457-.0727606.17565985-.0449553.04495527-.1070605.07276069-.1756599.07276069s-.1307046-.02780542-.1756598-.07276069c-.0449553-.04495528-.0727607-.10706041-.0727607-.17565985v-.99789407c0-.06859943.0278054-.13070457.0727607-.17565985zm-2.4947352 0c.24425929-.07276069.30636443-.04495527.3513197 0 .04495528.04495528.0727607.10706042.0727607.17565985v.99789407c0 .06859944-.02780542.13070457-.0727607.17565985-.04495527.04495527-.10706041.07276069-.17565985.07276069s-.13070457-.02780542-.17565985-.07276069c-.04495528-.04495528-.07276069-.10706041-.07276069-.17565985v-.99789407c0-.06859943.02780541-.13070457.07276069-.17565985zm-2.49473515 0c.24425929-.07276069.30636443-.04495527.3513197 0 .04495528.04495528.0727607.10706042.0727607.17565985v.99789407c0 .06859944-.02780542.13070457-.0727607.17565985-.04495527.04495527-.10706041.07276069-.17565985.07276069s-.13070458-.02780542-.17565985-.07276069c-.04495528-.04495528-.0727607-.10706041-.0727607-.17565985v-.99789407c0-.06859943.02780542-.13070457.0727607-.17565985z" stroke="#000"/></g></svg>