<svg height="16" viewBox="0 0 16 16" width="16" xmlns="http://www.w3.org/2000/svg"><path d="m12.5 0c.4142136-0 .75.33578644.75.75v.75l.1955261.00387584c.5088646.01841428.8721052.10471256 1.250295.30697071.4243657.22695325.7663791.56896664.9933323.99333231.2311522.43221698.3108466.84490836.3108466 1.47776374v3.4361148c0 .63285538-.0796944 1.04554676-.3108466 1.47776374-.2269532.42436567-.5689666.76637906-.9933323.99333226-.4246008.2270791-.8303581.307991-1.4445126.310772l-.0013085.7500746c0 .4142136-.3357864.75-.75.75s-.75-.3357864-.75-.75v-.75h-1.5v.75c0 .4142136-.33578644.75-.75.75s-.75-.3357864-.75-.75v-.75h-1.5v.75c0 .4142136-.33578644.75-.75.75s-.75-.3357864-.75-.75v-.75h-1.5v.75c0 .4142136-.33578644.75-.75.75s-.75-.3357864-.75-.75v-.751l-.19552612-.0028758c-.50886459-.0184143-.87210516-.1047126-1.25029502-.3069708-.42436567-.2269532-.76637906-.56896659-.9933323-.99333226-.23115218-.43221698-.31084656-.84490836-.31084656-1.47776374v-3.4361148c0-.63285538.07969438-1.04554676.31084656-1.47776374.22695324-.42436567.56896663-.76637906.9933323-.99333231.42483883-.22720629.83081299-.30808157 1.44554557-.31077652l.00027557-.75007003c0-.41421356.33578644-.75.75-.75s.75.33578644.75.75v.75h1.5v-.75c0-.41421356.33578644-.75.75-.75s.75.33578644.75.75v.75h1.5v-.75c0-.41421356.33578644-.75.75-.75s.75.33578644.75.75v.75h1.5v-.75c0-.41421356.3357864-.75.75-.75zm.7180574 3h-10.4361148c-.44575937 0-.60740249.04641281-.77036545.13356635-.16296296.08715355-.29085725.21504784-.3780108.3780108-.08715354.16296296-.13356635.32460608-.13356635.77036545v3.4361148c0 .44575937.04641281.60740249.13356635.77036545.08715355.16296296.21504784.29085725.3780108.3780108.16296296.08715354.32460608.13356635.77036545.13356635h10.4361148c.4457594 0 .6074025-.04641281.7703655-.13356635.1629629-.08715355.2908572-.21504784.3780107-.3780108.0871536-.16296296.1335664-.32460608.1335664-.77036545v-3.4361148c0-.44575937-.0464128-.60740249-.1335664-.77036545-.0871535-.16296296-.2150478-.29085725-.3780107-.3780108-.162963-.08715354-.3246061-.13356635-.7703655-.13356635z" transform="translate(0 2)"/></svg>