<svg height="64" viewBox="0 0 64 64" width="64" xmlns="http://www.w3.org/2000/svg"><g fill="none" fill-rule="evenodd"><path d="m7.6916556-0h48.6166888c2.6745562 0 3.6444149.27847683 4.6221927.80139811s1.7451435 1.290287 2.2680648 2.26806478.8013981 1.94763649.8013981 4.62219271v48.6166888c0 2.6745562-.2784768 3.6444149-.8013981 4.6221927s-1.290287 1.7451435-2.2680648 2.2680648-1.9476365.8013981-4.6221927.8013981h-48.6166888c-2.67455622 0-3.64441493-.2784768-4.62219271-.8013981s-1.7451435-1.290287-2.26806478-2.2680648-.80139811-1.9476365-.80139811-4.6221927v-48.6166888c0-2.67455622.27847683-3.64441493.80139811-4.62219271s1.290287-1.7451435 2.26806478-2.26806478 1.94763649-.80139811 4.62219271-.80139811z" fill="#000"/><path d="m39.7901233 33.5c.5522848 0 1 .4477153 1 1v2c0 .5522847-.4477152 1-1 1h-10c-.5522847 0-1-.4477153-1-1v-2c0-.5522847.4477153-1 1-1zm-22 0c.5522848 0 1 .4477153 1 1v2c0 .5522847-.4477152 1-1 1h-9.99999997c-.55228475 0-1-.4477153-1-1v-2c0-.5522847.44771525-1 1-1zm7-23c.5522848 0 1 .4477153 1 1v10c0 .5522847-.4477152 1-1 1h-2c-.5522847 0-1-.4477153-1-1v-10c0-.5522847.4477153-1 1-1z" fill="#ffc704" transform="translate(8.2099 8)"/></g></svg>