<svg height="20" viewBox="0 0 20 20" width="20" xmlns="http://www.w3.org/2000/svg" xmlns:xlink="http://www.w3.org/1999/xlink"><linearGradient id="a" x1="49.999997%" x2="49.999997%" y1="0%" y2="100.000056%"><stop offset="0" stop-color="#798dfd"/><stop offset="1" stop-color="#798dfd"/></linearGradient><path d="m9.17145749.00070559c2.92571011.01303772 4.20646001.20300782 4.55330551.25654563 2.1291933.32815526 3.9253571 2.02164851 4.2026161 4.17056663.0502819.53207209.0692688 1.17545022.0722054 1.81260157l-.0005687.47485954c-.0072376 1.09671128-.0519572 2.08436696-.0524564 2.33306453 0 .12544622-.0174394 1.27080071-.0244033 1.39169311-.1866098 3.0706478-2.0228457 4.2832639-3.9523866 4.6696026-.0261443.0081846-.0566852.0136307-.0871967.02-1.2232917.249077-2.5337802.3154155-3.7771079.3517848-.29732461.0081846-.59379344.0081846-.8910885.0081846-1.23624581.0003385-2.46815392-.1522155-3.66987515-.4544925-.00637377-.0017231-.01304262-.001877-.01947541-.0004001-.00643279.0014462-.01242295.0044924-.01752787.0088308-.00510491.0043385-.00914754.009877-.01180327.0161231-.00265574.0062769-.00386558.0131385-.00351148.0199693.03396393.4079386.11897704.8095081.25285572 1.1944622.16651474.4454156.74809175 1.5153239 2.91042275 1.5153239 1.25648843.0024 2.50881621-.150154 3.73092761-.4545234.0061967-.0014769.012659-.0015076.0188557-.0000615.0062263.0014462.0120689.0043077.0170853.0084s.0090885.0093231.0119213.0152616c.0028328.0059692.0043377.0124923.0044557.0191384v1.5071393c-.000236.0071077-.0020065.0140616-.0051934.0203693-.0031574.0062769-.0076426.0117538-.0131312.016-.3993344.3017848-.9425507.4736002-1.40639.6272003-.2046099.0672924-.4118459.1263693-.6216787.1772617-1.9074687.4529848-3.89823905.3434463-5.74937662-.3163387-1.72900611-.6326772-3.49375549-2.1834473-3.92971251-4.0469253-.23281376-1.0089852-.39685276-2.0338781-.49088593-3.0670171-.13601832-1.5553239-.14735301-3.11427864-.20577115-4.67597182-.04097986-1.08898522-.01743825-2.27615511.20315524-3.34698647.4586261-2.17436429 2.3489299-3.69605744 4.41884714-4.01512039.35923276-.05544988 1.03582615-.25725122 4.18954396-.25725122zm2.72751541 3.27175777c-1.0367114 0-1.8214228.41630792-2.34457357 1.24806223l-.50571144.88356972-.5048262-.88356972c-.52315078-.83175431-1.3078622-1.24806223-2.34631459-1.24806223-.89719665 0-1.61999988.32904633-2.17106542.96990823-.53418684.64236959-.80129502 1.50895468-.80129502 2.59978606v5.33864915h2.02806871v-5.18138752c0-1.09083138.44032128-1.64713938 1.32181958-1.64713938.97480321 0 1.46396055.65812344 1.46396055 1.95803186v2.83612464h2.0167081v-2.83612464c0-1.29990842.4882721-1.95803186 1.4630753-1.95803186.8867507 0 1.3227048.556308 1.3227048 1.64713938v5.18138752h2.0289254v-5.33864915c.0005892-1.09141599-.2659288-1.95803186-.799555-2.59978606-.552777-.6408619-1.2755802-.96990823-2.1719212-.96990823z" fill="url(#a)" transform="translate(1)"/></svg>