<svg height="20" viewBox="0 0 20 20" width="20" xmlns="http://www.w3.org/2000/svg" xmlns:xlink="http://www.w3.org/1999/xlink"><defs><linearGradient id="a" x1="50%" x2="50%" y1="0%" y2="100%"><stop offset="0" stop-opacity="0"/><stop offset="1"/></linearGradient><path id="b" d="m9.99994029 0c-5.52269728 0-9.99994029 4.47723052-9.99994029 10.0000597 0 5.523068 4.47724301 9.9999403 9.99994029 9.9999403 5.52329431 0 10.00005971-4.4768723 10.00005971-9.9999403 0-5.52247093-4.4767654-9.99958204-10.00017912-9.99958204zm4.58590821 14.4229564c-.1791184.2937611-.5636259.3869049-.85738.2065881-2.3478837-1.4341754-5.30357582-1.7589845-8.78444299-.9636799-.33542902.0764257-.66978333-.1337449-.74620717-.4693014-.07678208-.3355564.1325476-.6699187.4688125-.7463444 3.80925087-.8706555 7.07672836-.4955727 9.71263446 1.1153371.2937541.1803168.3868957.5636393.2065832.8574005zm1.2239755-2.7232615c-.2256891.3672014-.7057264.4830341-1.072322.2573395-2.6879698-1.6525856-6.78536243-2.13108192-9.96471366-1.165969-.41233051.1245499-.847827-.1078319-.97297104-.5194557-.12418874-.4123404.10830691-.84701138.51992095-.97239724 3.63168485-1.10196259 8.14654275-.56817707 11.23334945 1.32873184.3665956.2256946.4824255.7057433.2567363 1.07187zm.1050828-2.83539225c-3.2229367-1.91434355-8.5403643-2.09036141-11.61749864-1.15641588-.49412791.14986596-1.01667592-.12908773-1.16641889-.62322743-.14974296-.49437854.12896523-1.01658079.62345137-1.16680499 3.53233386-1.07234764 9.40443136-.86516243 13.11504776 1.337688.4454077.26378797.5910906.83781638.3271896 1.28168232-.262707.44446302-.8382741.59098536-1.2812935.32707798z"/></defs><g fill="none"><use fill="#14b761" xlink:href="#b"/><use fill="url(#a)" fill-opacity=".1" xlink:href="#b"/></g></svg>