<svg height="20" viewBox="0 0 20 20" width="20" xmlns="http://www.w3.org/2000/svg"><g fill="none" fill-rule="evenodd"><path d="m5.1277704-0h9.7444592c1.7830375 0 2.42961.18565122 3.0814618.53426541.6518519.34861418 1.163429.86019133 1.5120432 1.51204318s.5342654 1.29842433.5342654 3.08146181v9.7444592c0 1.7830375-.1856512 2.42961-.5342654 3.0814618-.3486142.6518519-.8601913 1.163429-1.5120432 1.5120432-.6518518.3486142-1.2984243.5342654-3.0814618.5342654h-9.7444592c-1.78303748 0-2.42960996-.1856512-3.08146181-.5342654s-1.163429-.8601913-1.51204318-1.5120432c-.34861419-.6518518-.53426541-1.2984243-.53426541-3.0814618v-9.7444592c0-1.78303748.18565122-2.42960996.53426541-3.08146181.34861418-.65185185.86019133-1.163429 1.51204318-1.51204318.65185185-.34861419 1.29842433-.53426541 3.08146181-.53426541z" fill="#000"/><path d="m13.4361148 0c.8915187 0 1.214805.09282561 1.5407309.2671327.3259259.1743071.5817145.43009567.7560216.7560216.1743071.32592592.2671327.64921216.2671327 1.5407309v8.8722296c0 .8915187-.0928256 1.214805-.2671327 1.5407309s-.4300957.5817145-.7560216.7560216-.6492122.2671327-1.5407309.2671327h-10.8722296c-.89151874 0-1.21480498-.0928256-1.5407309-.2671327-.32592593-.1743071-.5817145-.4300957-.7560216-.7560216-.16089885-.3008547-.2523697-.5994602-.26549007-1.3448229l-.00164263-9.0681376c0-.89151874.09282561-1.21480498.2671327-1.5407309.1743071-.32592593.43009567-.5817145.7560216-.7560216.3008547-.16089885.5994602-.2523697 1.34482293-.26549007zm-9.1861148 1.5c-.27614237 0-.5.22385763-.5.5v1c0 .41421356-.33578644.75-.75.75s-.75-.33578644-.75-.75l-.0007744-1.22412808c-.00005436-.08918844-.07239995-.16144589-.16158839-.16139152-.0265364.00001617-.05265991.00657141-.07606006.01908595-.16296296.08715355-.29085725.21504784-.3780108.3780108-.08715354.16296296-.13356635.32460608-.13356635.77036545v6.4361148c0 .44575937.04641281.60740249.13356635.77036545.08715355.16296295.21504784.29085725.3780108.37801075.16296296.0871536.32460608.1335664.77036545.1335664h2.5770861c.22287968 0 .30370124.0232064.38518273.0667832.08148148.0435767.14542862.1075239.18900539.1890054.04357678.0814815.06678318.162303.06678318.3851827v.7180574c0 .2228797.0232064.3037012.06678318.3851827.04357677.0814815.10752391.1454287.18900539.1890054.08148149.0435768.16230305.0667832.38518273.0667832h2.7180574c.22287968 0 .30370124-.0232064.38518273-.0667832.08148148-.0435767.14542862-.1075239.18900539-.1890054.04357678-.0814815.06678318-.162303.06678318-.3851827v-.7180574c0-.2228797.0232064-.3037012.0667832-.3851827.0435767-.0814815.1075239-.1454287.1890054-.1890054.0679012-.036314.1353442-.0584819.2849203-.0648625l2.6773485-.0019207c.4457594 0 .6074025-.0464128.7703655-.1335664.1629629-.0871535.2908572-.2150478.3780107-.37801075.0871536-.16296296.1335664-.32460608.1335664-.77036545v-6.4361148c0-.44575937-.0464128-.60740249-.1335664-.77036545-.0871535-.16296296-.2150478-.29085725-.3780107-.3780108-.078359-.04190682-.1758537-.01235654-.2177605.06600241-.0124509.02328125-.0189815.04926871-.0190158.07567026l-.0016466 1.22476098c0 .41421356-.3357864.75-.75.75s-.75-.33578644-.75-.75v-1c0-.27614237-.2238576-.5-.5-.5s-.5.22385763-.5.5v1c0 .41421356-.3357864.75-.75.75s-.75-.33578644-.75-.75v-1c0-.27614237-.22385763-.5-.5-.5s-.5.22385763-.5.5v1c0 .41421356-.33578644.75-.75.75s-.75-.33578644-.75-.75v-1c0-.27614237-.22385763-.5-.5-.5s-.5.22385763-.5.5v1c0 .41421356-.33578644.75-.75.75s-.75-.33578644-.75-.75v-1c0-.27614237-.22385763-.5-.5-.5z" fill="#ffc704" transform="translate(2 3)"/></g></svg>