<svg height="20" viewBox="0 0 20 20" width="20" xmlns="http://www.w3.org/2000/svg"><g fill="none" fill-rule="evenodd"><path d="m5.1277704-0h9.7444592c1.7830375 0 2.42961.18565122 3.0814618.53426541.6518519.34861418 1.163429.86019133 1.5120432 1.51204318s.5342654 1.29842433.5342654 3.08146181v9.7444592c0 1.7830375-.1856512 2.42961-.5342654 3.0814618-.3486142.6518519-.8601913 1.163429-1.5120432 1.5120432-.6518518.3486142-1.2984243.5342654-3.0814618.5342654h-9.7444592c-1.78303748 0-2.42960996-.1856512-3.08146181-.5342654s-1.163429-.8601913-1.51204318-1.5120432c-.34861419-.6518518-.53426541-1.2984243-.53426541-3.0814618v-9.7444592c0-1.78303748.18565122-2.42960996.53426541-3.08146181.34861418-.65185185.86019133-1.163429 1.51204318-1.51204318.65185185-.34861419 1.29842433-.53426541 3.08146181-.53426541z" fill="#000"/><path d="m-3.2180574 4.5h13.4361148c.4457594 0 .6074025.04641281.7703655.13356635.1629629.08715355.2908572.21504784.3780107.3780108.0871536.16296296.1335664.32460608.1335664.77036545v2.7180574c0 .55228475-.4477153 1-1 1h-.69019769c-.12910405 0-.17376348.00467465-.22326143.0160827-.04949794.01140805-.0932953.02954951-.13636234.05648313s-.0779515.05520713-.16924186.14649749l-1.56187336 1.56187338c-.09129036.0912903-.12617482.1195638-.16924186.1464975-.04306704.0269336-.0868644.045075-.13636234.0564831-.04949795.0114081-.09415738.0160827-.22326143.0160827h-3.69019769-3.69019769c-.12910405 0-.17376348-.0046746-.22326143-.0160827-.04949794-.0114081-.0932953-.0295495-.13636234-.0564831-.04306704-.0269337-.07795151-.0552072-.16924186-.1464975l-1.56187336-1.56187338c-.09129036-.09129036-.12617482-.11956387-.16924186-.14649749s-.0868644-.04507508-.13636234-.05648313c-.04949795-.01140805-.09415738-.0160827-.22326143-.0160827h-.69019769c-.55228475 0-1-.44771525-1-1v-2.7180574c0-.44575937.04641281-.60740249.13356635-.77036545.08715355-.16296296.21504784-.29085725.3780108-.3780108.16296296-.08715354.32460608-.13356635.77036545-.13356635z" stroke="#ffc704" stroke-width="1.5" transform="matrix(0 1 -1 0 18 6.5)"/></g></svg>