<svg height="20" viewBox="0 0 20 20" width="20" xmlns="http://www.w3.org/2000/svg"><g fill="none" fill-rule="evenodd"><path d="m5.1277704-0h9.7444592c1.7830375 0 2.42961.18565122 3.0814618.53426541.6518519.34861418 1.163429.86019133 1.5120432 1.51204318s.5342654 1.29842433.5342654 3.08146181v9.7444592c0 1.7830375-.1856512 2.42961-.5342654 3.0814618-.3486142.6518519-.8601913 1.163429-1.5120432 1.5120432-.6518518.3486142-1.2984243.5342654-3.0814618.5342654h-9.7444592c-1.78303748 0-2.42960996-.1856512-3.08146181-.5342654s-1.163429-.8601913-1.51204318-1.5120432c-.34861419-.6518518-.53426541-1.2984243-.53426541-3.0814618v-9.7444592c0-1.78303748.18565122-2.42960996.53426541-3.08146181.34861418-.65185185.86019133-1.163429 1.51204318-1.51204318.65185185-.34861419 1.29842433-.53426541 3.08146181-.53426541z" fill="#000"/><g transform="matrix(0 -1 1 0 7.5 17.5)"><path d="m12.5-.75c.8974627 0 1.7099627.36376864 2.298097.95190296.5881344.58813432.951903 1.40063432.951903 2.29809704s-.3637686 1.70996272-.951903 2.29809704c-.5881343.58813432-1.4006343.95190296-2.298097.95190296h-10c-.89746272 0-1.70996272-.36376864-2.29809704-.95190296s-.95190296-1.40063432-.95190296-2.29809704.36376864-1.70996272.95190296-2.29809704 1.40063432-.95190296 2.29809704-.95190296z" stroke="#ffc704" stroke-width="1.5"/><g fill="#ffc704"><path d="m13.25 3.5c.4142136 0 .75.33578644.75.75v.75h-1.5v-.75c0-.41421356.3357864-.75.75-.75z"/><path d="m10.95 3.5c.4142136 0 .75.33578644.75.75v.75h-1.5v-.75c0-.41421356.3357864-.75.75-.75z"/><path d="m8.65 3.5c.41421356 0 .75.33578644.75.75v.75h-1.5v-.75c0-.41421356.33578644-.75.75-.75z"/><path d="m6.35 3.5c.41421356 0 .75.33578644.75.75v.75h-1.5v-.75c0-.41421356.33578644-.75.75-.75z"/><path d="m4.05 3.5c.41421356 0 .75.33578644.75.75v.75h-1.5v-.75c0-.41421356.33578644-.75.75-.75z"/><path d="m1.75 3.5c.41421356 0 .75.33578644.75.75v.75h-1.5v-.75c0-.41421356.33578644-.75.75-.75z"/></g></g></g></svg>