<svg height="20" viewBox="0 0 20 20" width="20" xmlns="http://www.w3.org/2000/svg"><g fill="none" fill-rule="evenodd"><path d="m5.1277704-0h9.7444592c1.7830375 0 2.42961.18565122 3.0814618.53426541.6518519.34861418 1.163429.86019133 1.5120432 1.51204318s.5342654 1.29842433.5342654 3.08146181v9.7444592c0 1.7830375-.1856512 2.42961-.5342654 3.0814618-.3486142.6518519-.8601913 1.163429-1.5120432 1.5120432-.6518518.3486142-1.2984243.5342654-3.0814618.5342654h-9.7444592c-1.78303748 0-2.42960996-.1856512-3.08146181-.5342654s-1.163429-.8601913-1.51204318-1.5120432c-.34861419-.6518518-.53426541-1.2984243-.53426541-3.0814618v-9.7444592c0-1.78303748.18565122-2.42960996.53426541-3.08146181.34861418-.65185185.86019133-1.163429 1.51204318-1.51204318.65185185-.34861419 1.29842433-.53426541 3.08146181-.53426541z" fill="#000"/><g stroke="#ffc704" stroke-width="1.5" transform="translate(1 6)"><path d="m14.0705931.75c.750989.16297872.8263375.21152328.9612598.34345973l1.7806271 1.77968041c.1636359.16363589.2405513.24369924.2957607.31883229.1269769.35551137.1417593.46229766.1417593.73743451v2.14767916c0 .45624114-.0209941.63222604-.1117094.80184903-.0597966.11180985-.1475456.19955888-.2593555.25935544-.169623.09071537-.3456079.11170943-.801849.11170943h-14.1541722c-.45624114 0-.63222604-.02099406-.80184903-.11170943-.11180985-.05979656-.19955888-.14754559-.25935544-.25935544-.09071537-.16962299-.11170943-.34560789-.11170943-.80184903v-2.14767916c0-.23280953.00225282-.34374923.01655109-.43625098.14642763-.31473807.19497219-.39008652.32690864-.52500884l1.77968041-1.78062708c.16467109-.16467109.2447089-.241521.32024382-.29679617.32603971-.11899242.41363589-.13794327.60218166-.14005444z"/><path d="m4.5 4.5h9" stroke-linecap="round"/></g></g></svg>