<svg height="20" viewBox="0 0 20 20" width="20" xmlns="http://www.w3.org/2000/svg"><g fill="none" fill-rule="evenodd"><path d="m5.1277704-0h9.7444592c1.7830375 0 2.42961.18565122 3.0814618.53426541.6518519.34861418 1.163429.86019133 1.5120432 1.51204318s.5342654 1.29842433.5342654 3.08146181v9.7444592c0 1.7830375-.1856512 2.42961-.5342654 3.0814618-.3486142.6518519-.8601913 1.163429-1.5120432 1.5120432-.6518518.3486142-1.2984243.5342654-3.0814618.5342654h-9.7444592c-1.78303748 0-2.42960996-.1856512-3.08146181-.5342654s-1.163429-.8601913-1.51204318-1.5120432c-.34861419-.6518518-.53426541-1.2984243-.53426541-3.0814618v-9.7444592c0-1.78303748.18565122-2.42960996.53426541-3.08146181.34861418-.65185185.86019133-1.163429 1.51204318-1.51204318.65185185-.34861419 1.29842433-.53426541 3.08146181-.53426541z" fill="#000"/><path d="m13.4361148 0c.8915187-0 1.214805.09282561 1.5407309.2671327.3259259.1743071.5817145.43009567.7560216.7560216.1743071.32592592.2671327.64921216.2671327 1.5407309v4.8722296c0 .89151874-.0928256 1.21480498-.2671327 1.5407309-.1743071.32592593-.4300957.5817145-.7560216.7560216-.3259259.17430709-.6492122.2671327-1.5407309.2671327h-10.8722296c-.89151874 0-1.21480498-.09282561-1.5407309-.2671327-.32592593-.1743071-.5817145-.43009567-.7560216-.7560216-.17430709-.32592592-.2671327-.64921216-.2671327-1.5407309v-4.8722296c0-.89151874.09282561-1.21480498.2671327-1.5407309.1743071-.32592593.43009567-.5817145.7560216-.7560216.32592592-.17430709.64921216-.2671327 1.5407309-.2671327zm-.2180574 1.5h-10.4361148c-.44575937 0-.60740249.04641281-.77036545.13356635-.16296296.08715355-.29085725.21504784-.3780108.3780108-.08715354.16296296-.13356635.32460608-.13356635.77036545v4.4361148c0 .44575937.04641281.60740249.13356635.77036545.08715355.16296296.21504784.29085725.3780108.3780108.16296296.08715354.32460608.13356635.77036545.13356635h2.4680574c0-.41421356.33578644-.75.75-.75h4c.4142136 0 .75.33578644.75.75h2.4680574c.4457594 0 .6074025-.04641281.7703655-.13356635.1629629-.08715355.2908572-.21504784.3780107-.3780108.0871536-.16296296.1335664-.32460608.1335664-.77036545v-4.4361148c0-.44575937-.0464128-.60740249-.1335664-.77036545-.0871535-.16296296-.2150478-.29085725-.3780107-.3780108-.162963-.08715354-.3246061-.13356635-.7703655-.13356635z" fill="#ffc704" transform="translate(2 5)"/></g></svg>