<svg height="20" viewBox="0 0 20 20" width="20" xmlns="http://www.w3.org/2000/svg"><g fill="none" fill-rule="evenodd"><path d="m5.1277704-0h9.7444592c1.7830375 0 2.42961.18565122 3.0814618.53426541.6518519.34861418 1.163429.86019133 1.5120432 1.51204318s.5342654 1.29842433.5342654 3.08146181v9.7444592c0 1.7830375-.1856512 2.42961-.5342654 3.0814618-.3486142.6518519-.8601913 1.163429-1.5120432 1.5120432-.6518518.3486142-1.2984243.5342654-3.0814618.5342654h-9.7444592c-1.78303748 0-2.42960996-.1856512-3.08146181-.5342654s-1.163429-.8601913-1.51204318-1.5120432c-.34861419-.6518518-.53426541-1.2984243-.53426541-3.0814618v-9.7444592c0-1.78303748.18565122-2.42960996.53426541-3.08146181.34861418-.65185185.86019133-1.163429 1.51204318-1.51204318.65185185-.34861419 1.29842433-.53426541 3.08146181-.53426541z" fill="#000"/><path d="m13-.75c.7593915 0 1.4468915.30780423 1.9445436.80545635.4976522.49765212.8054564 1.18515212.8054564 1.94454365s-.3078042 1.44689153-.8054564 1.94454365c-.4976521.49765212-1.1851521.80545635-1.9445436.80545635h-11c-.75939153 0-1.44689153-.30780423-1.94454365-.80545635s-.80545635-1.18515212-.80545635-1.94454365.30780423-1.44689153.80545635-1.94454365 1.18515212-.80545635 1.94454365-.80545635z" stroke="#ffc704" stroke-width="1.5" transform="translate(2.5 8)"/></g></svg>