<svg height="30" viewBox="0 0 30 30" width="30" xmlns="http://www.w3.org/2000/svg"><g fill="none" fill-rule="evenodd"><path d="m7.6916556-0h14.6166888c2.6745562 0 3.6444149.27847683 4.6221927.80139811s1.7451435 1.290287 2.2680648 2.26806478.8013981 1.94763649.8013981 4.62219271v14.6166888c0 2.6745562-.2784768 3.6444149-.8013981 4.6221927s-1.290287 1.7451435-2.2680648 2.2680648-1.9476365.8013981-4.6221927.8013981h-14.6166888c-2.67455622 0-3.64441493-.2784768-4.62219271-.8013981s-1.7451435-1.290287-2.26806478-2.2680648-.80139811-1.9476365-.80139811-4.6221927v-14.6166888c0-2.67455622.27847683-3.64441493.80139811-4.62219271s1.290287-1.7451435 2.26806478-2.26806478 1.94763649-.80139811 4.62219271-.80139811z" fill="#000"/><path d="m3.60486756.00162755 16.54930464-.00162755c1.1701183 0 1.6876572.10660441 2.1262761.30841372l.1848203.09228534c.4888888.26146064.8725717.6451435 1.1340323 1.13403238l.0922854.18482021c.2018093.43861897.3084137.9561578.3084137 2.12627615v12.3083444c0 1.1701183-.1066044 1.6876572-.3084137 2.1262761l-.0922854.1848203c-.2614606.4888888-.6451435.8725717-1.1340323 1.1340323l-.1848203.0922854c-.4386189.2018093-.9561578.3084137-2.1262761.3084137h-16.3083444c-1.17011835 0-1.68765718-.1066044-2.12627615-.3084137l-.18482021-.0922854c-.48888888-.2614606-.87257174-.6451435-1.13403238-1.1340323l-.09228534-.1848203c-.18739436-.407289-.29269878-.8826263-.30678617-1.8853159l-.00162755-12.5493046c0-1.17011835.10660441-1.68765718.30841372-2.12627615l.09228534-.18482021c.26146064-.48888888.6451435-.87257174 1.13403238-1.13403238l.18482021-.09228534c.40728905-.18739436.88262634-.29269878 1.88531591-.30678617zm1.64513244 6.24837245c0 .41421356-.33578644.75-.75.75s-.75-.33578644-.75-.75v-3.5c0-.41421356-.33578644-.75-.75-.75-.51283584 0-.93550716.38604019-.99327227.88337887l-.00672773.11662113v11c0 .5522847.44771525 1 1 1h5c.55228475 0 1 .4477153 1 1v1c0 .5522847.44771525 1 1 1h4c.5522847 0 1-.4477153 1-1v-1c0-.5522847.4477153-1 1-1h5c.5522847 0 1-.4477153 1-1v-11c0-.55228475-.4477153-1-1-1-.4142136 0-.75.33578644-.75.75v3.5c0 .41421356-.3357864.75-.75.75s-.75-.33578644-.75-.75v-3.5c0-.41421356-.3357864-.75-.75-.75s-.75.33578644-.75.75v3.5c0 .41421356-.3357864.75-.75.75s-.75-.33578644-.75-.75v-3.5c0-.41421356-.3357864-.75-.75-.75s-.75.33578644-.75.75v3.5c0 .41421356-.3357864.75-.75.75s-.75-.33578644-.75-.75v-3.5c0-.41421356-.3357864-.75-.75-.75s-.75.33578644-.75.75v3.5c0 .41421356-.3357864.75-.75.75s-.75-.33578644-.75-.75v-3.5c0-.41421356-.33578644-.75-.75-.75s-.75.33578644-.75.75v3.5c0 .41421356-.33578644.75-.75.75s-.75-.33578644-.75-.75v-3.5c0-.41421356-.33578644-.75-.75-.75s-.75.33578644-.75.75z" fill="#ffc704" transform="translate(3 5)"/></g></svg>