<svg height="30" viewBox="0 0 30 30" width="30" xmlns="http://www.w3.org/2000/svg"><g fill="none" fill-rule="evenodd"><path d="m7.6916556-0h14.6166888c2.6745562 0 3.6444149.27847683 4.6221927.80139811s1.7451435 1.290287 2.2680648 2.26806478.8013981 1.94763649.8013981 4.62219271v14.6166888c0 2.6745562-.2784768 3.6444149-.8013981 4.6221927s-1.290287 1.7451435-2.2680648 2.2680648-1.9476365.8013981-4.6221927.8013981h-14.6166888c-2.67455622 0-3.64441493-.2784768-4.62219271-.8013981s-1.7451435-1.290287-2.26806478-2.2680648-.80139811-1.9476365-.80139811-4.6221927v-14.6166888c0-2.67455622.27847683-3.64441493.80139811-4.62219271s1.290287-1.7451435 2.26806478-2.26806478 1.94763649-.80139811 4.62219271-.80139811z" fill="#000"/><path d="m21-1h-20c-1.1045695 0-2 .8954305-2 2v4c0 1.1045695.8954305 2 2 2h1.08578644l1.41421356 1.41421356.14716372.13183094c.39950675.30871296.82678987.4539555 1.26704984.4539555h12.17157284l.1972791-.01084191c.5007869-.06420091.9056237-.26363371 1.2169345-.57494453l1.4142136-1.41421356h1.0857864c1.1045695 0 2-.8954305 2-2v-4c0-1.1045695-.8954305-2-2-2zm-20 2h20v4h-1.0857864c-.530433 0-1.0391408.21071368-1.4142136.58578644l-1.4141952 1.41421356-.0658534.00216948-12.10572595-.00215542-.04809834-.04503241-1.36612711-1.36919521c-.37507276-.37507276-.88378058-.58578644-1.41421356-.58578644h-1.08578644z" fill="#ffc704" fill-rule="nonzero" transform="translate(4 11)"/></g></svg>