<svg height="30" viewBox="0 0 30 30" width="30" xmlns="http://www.w3.org/2000/svg"><g fill="none" fill-rule="evenodd"><path d="m7.6916556-0h14.6166888c2.6745562 0 3.6444149.27847683 4.6221927.80139811s1.7451435 1.290287 2.2680648 2.26806478.8013981 1.94763649.8013981 4.62219271v14.6166888c0 2.6745562-.2784768 3.6444149-.8013981 4.6221927s-1.290287 1.7451435-2.2680648 2.2680648-1.9476365.8013981-4.6221927.8013981h-14.6166888c-2.67455622 0-3.64441493-.2784768-4.62219271-.8013981s-1.7451435-1.290287-2.26806478-2.2680648-.80139811-1.9476365-.80139811-4.6221927v-14.6166888c0-2.67455622.27847683-3.64441493.80139811-4.62219271s1.290287-1.7451435 2.26806478-2.26806478 1.94763649-.80139811 4.62219271-.80139811z" fill="#000"/><path d="m15 7h-20c-1.1045695 0-2 .8954305-2 2v4c0 1.1045695.8954305 2 2 2h1.08578644l1.41421356 1.4142136.14716372.1318309c.39950675.308713.82678987.4539555 1.26704984.4539555h12.17157284l.1972791-.0108419c.5007869-.0642009.9056237-.2636337 1.2169345-.5749445l1.4142136-1.4142136h1.0857864c1.1045695 0 2-.8954305 2-2v-4c0-1.1045695-.8954305-2-2-2zm-20 2h20v4h-1.0857864c-.530433 0-1.0391408.2107137-1.4142136.5857864l-1.4141952 1.4142136-.0658534.0021695-12.10572595-.0021554-1.41422545-1.4142277c-.37507276-.3750727-.88378058-.5857864-1.41421356-.5857864h-1.08578644z" fill="#ffc704" fill-rule="nonzero" transform="matrix(0 1 -1 0 27 10)"/></g></svg>