<svg height="30" viewBox="0 0 30 30" width="30" xmlns="http://www.w3.org/2000/svg"><g fill="none" fill-rule="evenodd"><path d="m7.6916556-0h14.6166888c2.6745562 0 3.6444149.27847683 4.6221927.80139811s1.7451435 1.290287 2.2680648 2.26806478.8013981 1.94763649.8013981 4.62219271v14.6166888c0 2.6745562-.2784768 3.6444149-.8013981 4.6221927s-1.290287 1.7451435-2.2680648 2.2680648-1.9476365.8013981-4.6221927.8013981h-14.6166888c-2.67455622 0-3.64441493-.2784768-4.62219271-.8013981s-1.7451435-1.290287-2.26806478-2.2680648-.80139811-1.9476365-.80139811-4.6221927v-14.6166888c0-2.67455622.27847683-3.64441493.80139811-4.62219271s1.290287-1.7451435 2.26806478-2.26806478 1.94763649-.80139811 4.62219271-.80139811z" fill="#000"/><path d="m19 0c2.7614237-0 5 2.23857625 5 5s-2.2385763 5-5 5h-14c-2.76142375 0-5-2.23857625-5-5s2.23857625-5 5-5zm0 2h-14c-1.65685425 0-3 1.34314575-3 3 0 1.1105424.60342711 2.08014684 1.50028797 2.59881997l-.00028797-.09881997c0-.55228475.44771525-1 1-1s1 .44771525 1 1v.5h1v-.5c0-.55228475.44771525-1 1-1s1 .44771525 1 1v.5h1v-.5c0-.55228475.44771525-1 1-1 .5522847 0 1 .44771525 1 1v.5h1v-.5c0-.55228475.4477153-1 1-1s1 .44771525 1 1v.5h1v-.5c0-.55228475.4477153-1 1-1s1 .44771525 1 1v.5h1v-.5c0-.55228475.4477153-1 1-1s1 .44771525 1 1l.0007215.09823591c.8963042-.51881674 1.4992785-1.48811023 1.4992785-2.59823591 0-1.65685425-1.3431458-3-3-3z" fill="#ffc704" transform="matrix(0 -1 1 0 10 27)"/></g></svg>