<svg height="30" viewBox="0 0 30 30" width="30" xmlns="http://www.w3.org/2000/svg"><g fill="none" fill-rule="evenodd"><path d="m7.6916556-0h14.6166888c2.6745562 0 3.6444149.27847683 4.6221927.80139811s1.7451435 1.290287 2.2680648 2.26806478.8013981 1.94763649.8013981 4.62219271v14.6166888c0 2.6745562-.2784768 3.6444149-.8013981 4.6221927s-1.290287 1.7451435-2.2680648 2.2680648-1.9476365.8013981-4.6221927.8013981h-14.6166888c-2.67455622 0-3.64441493-.2784768-4.62219271-.8013981s-1.7451435-1.290287-2.26806478-2.2680648-.80139811-1.9476365-.80139811-4.6221927v-14.6166888c0-2.67455622.27847683-3.64441493.80139811-4.62219271s1.290287-1.7451435 2.26806478-2.26806478 1.94763649-.80139811 4.62219271-.80139811z" fill="#000"/><g stroke="#ffc704" stroke-width="2" transform="translate(3 10)"><path d="m18.8940632 1.00026558c.2859872.00135288.4055109.00863229.5351857.03851914.3687467.17996983.4674372.27211491.7398976.54457533l2.2474935 2.24749347c.2724604.27246041.3646055.37115093.4452463.50009626.1334854.38800111.1381137.52294226.1381137.90825947v2.25158692c0 .55474078-.0299553.79195757-.1489459 1.01445067-.5683004.46479787-.8055171.49475316-1.3602579.49475316h-18.98159237c-.55474078 0-.79195757-.02995529-1.01445067-.1489459-.46479787-.56830036-.49475316-.80551715-.49475316-1.36025793v-2.25158692c0-.38531721.00462832-.52025836.03878472-.6684582.17996983-.3687466.27211491-.46743712.54457533-.73989753l2.24749347-2.24749347c.27246041-.27246042.37115093-.3646055.50009626-.44524639.36414269-.12798657.47854461-.13478966.7481926-.13740982z"/><path d="m6 5.5h12" stroke-linecap="round" stroke-linejoin="round"/></g></g></svg>