<svg height="30" viewBox="0 0 30 30" width="30" xmlns="http://www.w3.org/2000/svg"><g fill="none" fill-rule="evenodd"><path d="m7.6916556-0h14.6166888c2.6745562 0 3.6444149.27847683 4.6221927.80139811s1.7451435 1.290287 2.2680648 2.26806478.8013981 1.94763649.8013981 4.62219271v14.6166888c0 2.6745562-.2784768 3.6444149-.8013981 4.6221927s-1.290287 1.7451435-2.2680648 2.2680648-1.9476365.8013981-4.6221927.8013981h-14.6166888c-2.67455622 0-3.64441493-.2784768-4.62219271-.8013981s-1.7451435-1.290287-2.26806478-2.2680648-.80139811-1.9476365-.80139811-4.6221927v-14.6166888c0-2.67455622.27847683-3.64441493.80139811-4.62219271s1.290287-1.7451435 2.26806478-2.26806478 1.94763649-.80139811 4.62219271-.80139811z" fill="#000"/><g stroke="#ffc704" stroke-width="2" transform="translate(3 9)"><path d="m16.2925869 1c.4738847 0 .6490957.0116172.8338789.07564433.4420102.3233525.5307577.47487059.7426853.89872595l1.5128149 3.02562972 2.2258002.00090473c.4835146.0056233.6939331.03918273.8974806.14804117.4667611.57197125.4947532.80661778.4947532 1.4149393v1.8722296c0 .60832152-.0279921.84296805-.1489459 1.06913204-.5719712.46676108-.8066178.49475316-1.4149393.49475316h-18.8722296c-.60832152 0-.84296805-.02799208-1.06913204-.1489459-.46676108-.57197125-.49475316-.80661778-.49475316-1.4149393l.00090473-2.043881c.0056233-.4835146.03918273-.69393305.14804117-.89748064.57197125-.46676108.80661778-.49475316 1.4149393-.49475316h2.05414879l1.51281486-3.02562972c.21192768-.42385536.30067515-.57537345.44058033-.7120148.48688822-.25073828.6620992-.26235548 1.1359839-.26235548z"/><path d="m7.5 6.5h9" stroke-linecap="round" stroke-linejoin="round"/></g></g></svg>