<svg height="30" viewBox="0 0 30 30" width="30" xmlns="http://www.w3.org/2000/svg"><g fill="none" fill-rule="evenodd"><path d="m7.6916556-0h14.6166888c2.6745562 0 3.6444149.27847683 4.6221927.80139811s1.7451435 1.290287 2.2680648 2.26806478.8013981 1.94763649.8013981 4.62219271v14.6166888c0 2.6745562-.2784768 3.6444149-.8013981 4.6221927s-1.290287 1.7451435-2.2680648 2.2680648-1.9476365.8013981-4.6221927.8013981h-14.6166888c-2.67455622 0-3.64441493-.2784768-4.62219271-.8013981s-1.7451435-1.290287-2.26806478-2.2680648-.80139811-1.9476365-.80139811-4.6221927v-14.6166888c0-2.67455622.27847683-3.64441493.80139811-4.62219271s1.290287-1.7451435 2.26806478-2.26806478 1.94763649-.80139811 4.62219271-.80139811z" fill="#000"/><path d="m21.4361148 0c.8915187 0 1.214805.09282561 1.5407309.2671327.3259259.1743071.5817145.43009567.7560216.7560216.1743071.32592592.2671327.64921216.2671327 1.5407309v4.8722296c0 .89151874-.0928256 1.21480498-.2671327 1.5407309-.1743071.32592593-.4300957.5817145-.7560216.7560216-.3259259.17430709-.6492122.2671327-1.5407309.2671327h-18.8722296c-.89151874 0-1.21480498-.09282561-1.5407309-.2671327-.32592593-.1743071-.5817145-.43009567-.7560216-.7560216-.16089885-.3008547-.2523697-.5994602-.26549007-1.34482293l-.00164263-5.06813757c0-.89151874.09282561-1.21480498.2671327-1.5407309.1743071-.32592593.43009567-.5817145.7560216-.7560216.3008547-.16089885.5994602-.2523697 1.34482293-.26549007zm-.7180574 2h-17.4361148c-.44575937 0-.60740249.04641281-.77036545.13356635-.16296296.08715355-.29085725.21504784-.3780108.3780108-.07625935.14259259-.12132657.28417468-.13140183.61596614l-.00216452.15439931v3.4361148c0 .44575937.04641281.60740249.13356635.77036545.08715355.16296296.21504784.29085725.3780108.3780108.14259259.07625935.28417468.12132657.61596614.13140183l.15439931.00216452h17.4361148c.4457594 0 .6074025-.04641281.7703655-.13356635.1629629-.08715355.2908572-.21504784.3780107-.3780108.0762594-.14259259.1213266-.28417468.1314019-.61596614l.0021645-.15439931v-3.4361148c0-.44575937-.0464128-.60740249-.1335664-.77036545-.0871535-.16296296-.2150478-.29085725-.3780107-.3780108-.1425926-.07625935-.2841747-.12132657-.6159662-.13140183zm.2819426 3v1.5c0 .27614237-.2238576.5-.5.5h-17c-.27614237 0-.5-.22385763-.5-.5v-1.5z" fill="#ffc704" transform="translate(3 10)"/></g></svg>