<svg height="24" viewBox="0 0 24 24" width="24" xmlns="http://www.w3.org/2000/svg" xmlns:xlink="http://www.w3.org/1999/xlink"><linearGradient id="a" x1="100%" x2="27.725964%" y1="66.451972%" y2="50%"><stop offset="0" stop-opacity="0"/><stop offset="1"/></linearGradient><g fill="url(#a)" fill-rule="evenodd" transform="translate(.6863 -3.3137)"><path d="m8.35934299 12.988055 8.26391211-1.2631176c1.0918886-.1668924 2.1123322.5829652 2.2792245 1.6748538.0306144.2002938.0306144.4040769 0 .6043707l-1.2631176 8.2639121c-.1679758 1.0989769-.3130593 1.4847274-.5489977 1.8789993-.2359383.3942718-.5490192.7073527-.943291.943291-.3942719.2359384-.7800224.3810219-1.8789993.5489977l-8.2639121 1.2631176c-1.09188861.1668924-2.11233219-.5829652-2.27922455-1.6748538-.03061439-.2002938-.03061439-.4040769 0-.6043707l1.26311763-8.2639121c.16797577-1.0989769.31305933-1.4847274.54899769-1.8789993.23593835-.3942718.5490192-.7073527.94329107-.943291.39427188-.2359384.78002238-.3810219 1.87899925-.5489977z" transform="matrix(-.70710678 -.70710678 .70710678 -.70710678 5.656846 40.970542)"/><path d="m8.35934299 4.98805498 8.26391211-1.26311763c1.0918886-.16689235 2.1123322.58296527 2.2792245 1.67485387.0306144.20029381.0306144.40407686 0 .60437068l-1.2631176 8.2639121c-.1679758 1.0989769-.3130593 1.4847274-.5489977 1.8789993-.2359383.3942718-.5490192.7073527-.943291.943291-.3942719.2359384-.7800224.3810219-1.8789993.5489977l-8.2639121 1.2631176c-1.09188861.1668924-2.11233219-.5829652-2.27922455-1.6748538-.03061439-.2002938-.03061439-.4040769 0-.6043707l1.26311763-8.26391211c.16797577-1.09897687.31305933-1.48472737.54899769-1.87899925.23593835-.39427187.5490192-.70735272.94329107-.94329107.39427188-.23593836.78002238-.38102192 1.87899925-.54899769z" transform="matrix(.70710678 .70710678 -.70710678 .70710678 11.3137 -4.686288)"/></g></svg>