<svg height="24" viewBox="0 0 24 24" width="24" xmlns="http://www.w3.org/2000/svg" xmlns:xlink="http://www.w3.org/1999/xlink"><linearGradient id="a" x1="100%" x2="27.725964%" y1="63.824226%" y2="50%"><stop offset="0" stop-opacity="0"/><stop offset="1"/></linearGradient><path d="m12.056612.00318629 6.5899724.74416382c.1390873.01570632.2654188.08849031.3488352.20097627l4.9051203 6.61449365c.1401657.18901162.1313654.44984428-.0212207.62896322l-11.6872059 13.71947295c-.0904553.1061843-.2497958.1188778-.355897.0283517-.0101788-.0086845-.0196518-.018165-.0283296-.0283517l-11.68720593-13.71947295c-.15258608-.17911894-.16138634-.4399516-.02122068-.62896322l4.90512028-6.61449365c.08341638-.11248596.20974789-.18526995.34883522-.20097627l6.58997241-.74416382c.037622-.00424839.075602-.00424839.113224 0zm1.2250095 1.41907167c-.041917.03370046-.0518023.09251561-.0254233.1376l.0090057.01307454 3.7162283 4.62952437c.0360126.04486296.0556427.10068539.0556427.15823208 0 .13255846-.102007.24127333-.2317482.25181337l-.020705.00083752h-9.56924337c-.05750166 0-.11328041-.01964541-.15810822-.05568615-.1026568-.08253423-.12381582-.22896766-.05228913-.33662236l.01358677-.01857446 3.71622825-4.62952437c.0342966-.04272526.0308598-.10446163-.0079668-.14310979-.0381218-.03794671-.0976253-.04124536-.1394655-.01000117l-.0119831.01040947-5.03440621 5.06556853c-.04024812.04049727-.09573856.0620613-.15274815.05935902-.10486207-.00497048-.18724809-.08912496-.19217824-.19196926l-.00000328-.01948755.17364855-3.6691922c.00231764-.0489717-.03082032-.09254462-.07860296-.10335438-.04986476-.01128085-.09945113.01647997-.11684086.06311818l-.0039204.01317239-.95390522 4.22316296c-.03263091.14446467-.14131435.25873482-.28214214.29931016l-.02677115.0067336-2.36186273.50924622c-.04650749.0100276-.07971351.05118175-.07971351.09879356 0 .05116296.0379897.09344592.0872787.1001378l.01370256.0009226h2.35603179c.13700185 0 .26398767.06942819.33820791.18322176l.01412785.02334285 5.65185228 10.08954865c.03885676.0693661.12466871.0968913.19657721.0630543.0706579-.0332484.1036927-.1141241.0788428-.1863588l-.0062183-.0153261-4.56913135-9.72529803c-.01896117-.04035856-.02879221-.0844065-.02879221-.12900351 0-.1601622.12409479-.29131783.28130884-.30241989l.02163496-.00076123h12.19728526c.0445622 0 .0885757.00983874.1289026.02881477.1448267.06814902.2106218.23634428.1537664.3834518l-.0085174.01991806-4.5691313 9.72529803c-.0338105.0719648-.0063068.157844.063005.1967311.0681063.038211.1530655.0180985.1973506-.0441276l.0088461-.0139729 5.6518523-10.08954865c.0669948-.11959756.1896052-.19650065.3250816-.20564631l.0272541-.0009183h2.3560318c.0475746 0 .0886966-.03323203.0987163-.07977595.010767-.05001537-.0174723-.09935729-.0642474-.11628799l-.0132011-.00379002-2.3618628-.50924622c-.1446742-.03119348-.2599484-.13880068-.3019144-.27932111l-.0069988-.02672265-.9539052-4.22316296c-.0108014-.04782002-.0543401-.08098405-.1032736-.07866456-.0510656.00242049-.0914709.04239782-.0958182.09198682l-.0002725.01374155.1736486 3.6691922c.0027002.05705425-.018847.11258811-.0593126.15286781-.0741407.07380016-.1911648.07810962-.2703158.01314625l-.0153013-.01391627-5.0344063-5.06556853c-.0386179-.03885702-.1003059-.04229653-.1429978-.00797305z" fill="url(#a)" fill-rule="evenodd" transform="translate(0 1)"/></svg>