<svg height="24" viewBox="0 0 24 24" width="24" xmlns="http://www.w3.org/2000/svg"><g fill="none" fill-rule="evenodd" transform="translate(.5 1.5)"><g fill="#000"><path d="m7.5 3v1.5c-3.3137085 0-6 2.6862915-6 6s2.6862915 6 6 6v1.5c-4.14213562 0-7.5-3.3578644-7.5-7.5 0-4.14213562 3.35786438-7.5 7.5-7.5zm0 4.5v1c-1.1045695 0-2 .8954305-2 2s.8954305 2 2 2v1c-1.65685425 0-3-1.3431458-3-3 0-1.65685425 1.34314575-3 3-3z" fill-rule="nonzero"/><path d="m20.2180574 0c.6328554 0 1.0455468.07969438 1.4777637.31084656.4243657.22695324.7663791.56896663.9933323.9933323.2311522.43221698.3108466.84490836.3108466 1.47776374v15.4361148c0 .6328554-.0796944 1.0455468-.3108466 1.4777637-.2269532.4243657-.5689666.7663791-.9933323.9933323-.4322169.2311522-.8449083.3108466-1.4777637.3108466h-10.4361148c-.63285538 0-1.04554676-.0796944-1.47776374-.3108466-.42436567-.2269532-.76637906-.5689666-.99333231-.9933323-.23115217-.4322169-.31084655-.8449083-.31084655-1.4777637v-15.4361148c0-.63285538.07969438-1.04554676.31084655-1.47776374.22695325-.42436567.56896664-.76637906.99333231-.9933323.43221698-.23115218.84490836-.31084656 1.47776374-.31084656zm0 1.5h-10.4361148c-.44575937 0-.60740249.04641281-.77036545.13356635-.16296296.08715355-.29085725.21504784-.3780108.3780108-.08715354.16296296-.13356635.32460608-.13356635.77036545v15.4361148c0 .4457594.04641281.6074025.13356635.7703655.08715355.1629629.21504784.2908572.3780108.3780107.16296296.0871536.32460608.1335664.77036545.1335664h10.4361148c.4457594 0 .6074025-.0464128.7703655-.1335664.1629629-.0871535.2908572-.2150478.3780107-.3780107.0871536-.162963.1335664-.3246061.1335664-.7703655v-15.4361148c0-.44575937-.0464128-.60740249-.1335664-.77036545-.0871535-.16296296-.2150478-.29085725-.3780107-.3780108-.162963-.08715354-.3246061-.13356635-.7703655-.13356635z" fill-rule="nonzero"/><path d="m8.5 6.5h13v1.5h-13z"/><path d="m10.6409713 3h1.7180574c.2228797 0 .3037012.0232064.3851827.06678318.0814815.04357677.1454287.10752391.1890054.18900539.0435768.08148149.0667832.16230305.0667832.38518273v.7180574c0 .22287968-.0232064.30370124-.0667832.38518273-.0435767.08148148-.1075239.14542862-.1890054.18900539-.0814815.04357678-.162303.06678318-.3851827.06678318h-1.7180574c-.2228797 0-.3037012-.0232064-.3851827-.06678318-.0814815-.04357677-.1454287-.10752391-.1890054-.18900539-.0435768-.08148149-.0667832-.16230305-.0667832-.38518273v-.7180574c0-.22287968.0232064-.30370124.0667832-.38518273.0435767-.08148148.1075239-.14542862.1890054-.18900539.0814815-.04357678.162303-.06678318.3851827-.06678318z"/><path d="m14.6409713 3h4.7180574c.2228797 0 .3037012.0232064.3851827.06678318.0814815.04357677.1454287.10752391.1890054.18900539.0435768.08148149.0667832.16230305.0667832.38518273v.7180574c0 .22287968-.0232064.30370124-.0667832.38518273-.0435767.08148148-.1075239.14542862-.1890054.18900539-.0814815.04357678-.162303.06678318-.3851827.06678318h-4.7180574c-.2228797 0-.3037012-.0232064-.3851827-.06678318-.0814815-.04357677-.1454287-.10752391-.1890054-.18900539-.0435768-.08148149-.0667832-.16230305-.0667832-.38518273v-.7180574c0-.22287968.0232064-.30370124.0667832-.38518273.0435767-.08148148.1075239-.14542862.1890054-.18900539.0814815-.04357678.162303-.06678318.3851827-.06678318z"/></g><path d="m22.25 11.75v6.4680574c0 .6581573-.095038.8862802-.2222065 1.1240646-.1580873.2955976-.3900739.5275842-.6856715.6856715-.2377844.1271685-.4659073.2222065-1.1240646.2222065h-7.9680574v-5.1861148c0-1.1039167.1414508-1.4936827.3557728-1.89443.2452409-.4585606.6051218-.8184415 1.0636824-1.0636824.4007473-.214322.7905133-.3557728 1.89443-.3557728z" stroke="#000" stroke-width="1.5"/></g></svg>