<svg height="24" viewBox="0 0 24 24" width="24" xmlns="http://www.w3.org/2000/svg"><path d="m7.909713 0 8.5279519.0018377c2.0299427.02222012 3.1005605.24895139 4.2118476.84327426 1.0762176.57556743 1.9298081 1.42915797 2.5053755 2.50537549.6273408 1.17302532.845112 2.30073692.845112 4.55922555v8.180574c0 2.2584886-.2177712 3.3862002-.845112 4.5592255-.5755674 1.0762176-1.4291579 1.9298081-2.5053755 2.5053755-1.1730253.6273408-2.3007369.845112-4.5592255.845112h-8.180574c-2.25848863 0-3.38620023-.2177712-4.55922555-.845112-1.07621752-.5755674-1.92980806-1.4291579-2.50537549-2.5053755-.6273408-1.1730253-.84511196-2.3007369-.84511196-4.5592255l.0018377-8.5279519c.02222012-2.02994273.24895139-3.1005605.84327426-4.21184765.57556743-1.07621752 1.42915797-1.92980806 2.50537549-2.50537549 1.17302532-.6273408 2.30073692-.84511196 4.55922555-.84511196zm8.180574 1.5-8.47582962.00143575c-1.81588339.0181693-2.62058682.20846617-3.33344077.55262208l-.22313087.11377393c-.81481481.43576773-1.45428625 1.07523917-1.89005398 1.89005398l-.05815758.11120424-.10867549.22537984c-.32790961.72506894-.50099869 1.59037317-.50099869 3.51524318l.00143575 8.4758296c.0181693 1.8158834.20846617 2.6205868.55262208 3.3334408l.11377393.2231309c.43576773.8148148 1.07523917 1.4542862 1.89005398 1.8900539l.11120424.0581576.22537984.1086755c.64874589.2933928 1.40975771.4628434 2.94153825.4952664l.57370493.0057323h8.180574l.5737049-.0057323c1.6218853-.0343302 2.3796562-.2222831 3.0549915-.5483255l.2231309-.113774c.8148148-.4357677 1.4542862-1.0752391 1.8900539-1.8900539l.0581576-.1112043.1086755-.2253798c.2933928-.6487459.4628434-1.4097577.4952664-2.9415383l.0057323-.5737049v-8.180574l-.0057323-.57370493c-.0343302-1.62188527-.2222831-2.37965614-.5483255-3.05499146l-.113774-.22313087c-.4357677-.81481481-1.0752391-1.45428625-1.8900539-1.89005398l-.1112043-.05815758-.2253798-.10867549c-.725069-.32790961-1.5903732-.50099869-3.5152432-.50099869zm-4.090287 13.1346154c1.0220513 0 1.8223161.1627538 2.4078691.5200142.3535959.2157378.4653521.6772739.2496144 1.0308699s-.6772738.4653522-1.0308698.2496144c-.3109988-.1897481-.8555616-.3004985-1.6266137-.3004985s-1.3156149.1107504-1.6266137.3004985c-.353596.2157378-.81513211.1039816-1.03086983-.2496144-.21573771-.353596-.10398151-.8151321.24961446-1.0308699.58555297-.3572604 1.38581777-.5200142 2.40786907-.5200142zm0-3.6923077c1.4995152 0 2.9168593.4578125 4.2347755 1.3624177.3415061.2344066.4283274.701276.1939209 1.0427822-.2344066.3415061-.7012761.4283274-1.0427822.1939209-1.0728885-.7364205-2.1957742-1.0991208-3.3859142-1.0991208s-2.31302572.3627003-3.38591418 1.0991208c-.34150613.2344065-.80837562.1475852-1.04278219-.1939209-.23440657-.3415062-.14758523-.8083756.1939209-1.0427822 1.31791613-.9046052 2.73526027-1.3624177 4.23477547-1.3624177zm0-3.6923077c2.7254263 0 5.0732476.88911579 7.0063486 2.65826535.3055643.27964855.3265731.75405735.0469245 1.05962165s-.7540574.3265732-1.0596217.0469246c-1.6531059-1.51290174-3.6386179-2.2648116-5.9936514-2.2648116-2.35503351 0-4.34054547.75190986-5.99365144 2.2648116-.3055643.2796486-.77997308.2586397-1.05962167-.0469246s-.25863975-.7799731.04692455-1.05962165c1.93310093-1.76914956 4.2809223-2.65826535 7.00634856-2.65826535z"/></svg>