<svg height="24" viewBox="0 0 24 24" width="24" xmlns="http://www.w3.org/2000/svg"><path d="m10.5 20v2.5h3v-2.5h1.5v2.5h1.25c.4142136 0 .75.3357864.75.75s-.3357864.75-.75.75h-8.5c-.41421356 0-.75-.3357864-.75-.75s.33578644-.75.75-.75h1.25v-2.5zm8.3722296-20c1.7830375-0 2.42961.18565122 3.0814618.53426541.6518519.34861418 1.163429.86019133 1.5120432 1.51204318s.5342654 1.29842433.5342654 3.08146181v9.7444592c0 1.7830375-.1856512 2.42961-.5342654 3.0814618-.3486142.6518519-.8601913 1.163429-1.5120432 1.5120432-.6518518.3486142-1.2984243.5342654-3.0814618.5342654h-13.7444592c-1.78303748 0-2.42960996-.1856512-3.08146181-.5342654s-1.163429-.8601913-1.51204318-1.5120432c-.34861419-.6518518-.53426541-1.2984243-.53426541-3.0814618v-9.7444592c0-1.78303748.18565122-2.42960996.53426541-3.08146181.34861418-.65185185.86019133-1.163429 1.51204318-1.51204318.65185185-.34861419 1.29842433-.53426541 3.08146181-.53426541zm3.4000382 17.0007491h-20.54453556c.03214179.0759818.06756266.1480931.10618364.220308.21788387.4074074.53761958.7271432.94502699.945027.40740741.2178839.81151521.3339159 1.92591363.3339159h14.590287c1.1143984 0 1.5185062-.116032 1.9259136-.3339159.4074074-.2178838.7271432-.5376196.945027-.945027.038621-.0722149.0740419-.1443262.1061837-.220308zm-2.9771243-15.5007491h-14.590287c-1.11439842 0-1.51850622.11603201-1.92591363.33391588s-.72714312.53761958-.94502699.94502699-.33391588.81151521-.33391588 1.92591363v10.590287l.001.2048565 20.9975707.0010681c.0009516-.065843.0014293-.1344217.0014293-.2059246v-10.590287c0-1.11439842-.116032-1.51850622-.3339159-1.92591363-.2178838-.40740741-.5376196-.72714312-.945027-.94502699s-.8115152-.33391588-1.9259136-.33391588z" fill-rule="evenodd"/></svg>