<svg height="24" viewBox="0 0 24 24" width="24" xmlns="http://www.w3.org/2000/svg"><path d="m11.6541722 0c1.445672 0 2.2158735.14873277 3.0184946.57797926.7502916.40126034 1.3480936.9990623 1.7493539 1.7493539.4292465.80262115.5779793 1.57282264.5779793 3.01849464v13.3083444c0 1.445672-.1487328 2.2158735-.5779793 3.0184946-.4012603.7502916-.9990623 1.3480936-1.7493539 1.7493539-.8026211.4292465-1.5728226.5779793-3.0184946.5779793h-6.3083444c-1.445672 0-2.21587349-.1487328-3.01849464-.5779793-.7502916-.4012603-1.34809356-.9990623-1.7493539-1.7493539-.42924649-.8026211-.57797926-1.5728226-.57797926-3.0184946v-13.3083444c0-1.445672.14873277-2.21587349.57797926-3.01849464.40126034-.7502916.9990623-1.34809356 1.7493539-1.7493539.80262115-.42924649 1.57282264-.57797926 3.01849464-.57797926zm0 1.5h-6.3083444c-1.17011835 0-1.68765718.10660441-2.12627615.30841372l-.18482021.09228534c-.48888888.26146063-.87257175.6451435-1.13403238 1.13403238l-.09228534.18482021c-.20180931.43861897-.30841372.9561578-.30841372 2.12627615l.00162755 13.5493046c.01408739 1.0026896.11939181 1.4780269.30678617 1.8853159l.09228534.1848203c.26146063.4888888.6451435.8725717 1.13403238 1.1340323l.18482021.0922854c.43861897.2018093.9561578.3084137 2.12627615.3084137h6.3083444c1.1701183 0 1.6876572-.1066044 2.1262761-.3084137l.1848203-.0922854c.4888888-.2614606.8725717-.6451435 1.1340323-1.1340323l.0922854-.1848203c.2018093-.4386189.3084137-.9561578.3084137-2.1262761v-13.3083444c0-1.17011835-.1066044-1.68765718-.3084137-2.12627615l-.0922854-.18482021c-.2614606-.48888888-.6451435-.87257175-1.1340323-1.13403238l-.1848203-.09228534c-.4386189-.20180931-.9561578-.30841372-2.1262761-.30841372zm-2.4361148 7c.63285538 0 1.0455468.07969438 1.4777637.31084655.4243657.22695325.7663791.56896664.9933323.99333231.2311522.43221694.3108466.84490834.3108466 1.47776374v6.4361148c0 .6328554-.0796944 1.0455468-.3108466 1.4777637-.2269532.4243657-.5689666.7663791-.9933323.9933323-.4322169.2311522-.84490832.3108466-1.4777637.3108466h-1.4361148c-.63285538 0-1.04554676-.0796944-1.47776374-.3108466-.42436567-.2269532-.76637906-.5689666-.99333231-.9933323-.23115217-.4322169-.31084655-.8449083-.31084655-1.4777637v-6.4361148c0-.6328554.07969438-1.0455468.31084655-1.47776374.22695325-.42436567.56896664-.76637906.99333231-.99333231.43221698-.23115217.84490836-.31084655 1.47776374-.31084655zm0 1.5h-1.4361148c-.44575937 0-.60740249.0464128-.77036545.1335664-.16296296.0871535-.29085725.2150478-.3780108.3780107-.08715354.162963-.13356635.3246061-.13356635.7703655v6.4361148c0 .4457594.04641281.6074025.13356635.7703655.08715355.1629629.21504784.2908572.3780108.3780107.16296296.0871536.32460608.1335664.77036545.1335664h1.4361148c.44575937 0 .60740249-.0464128.77036545-.1335664.16296295-.0871535.29085725-.2150478.37801075-.3780107.0871536-.162963.1335664-.3246061.1335664-.7703655v-6.4361148c0-.4457594-.0464128-.6074025-.1335664-.7703655-.0871535-.1629629-.2150478-.2908572-.37801075-.3780107-.16296296-.0871536-.32460608-.1335664-.77036545-.1335664zm-.04359269-5.65377176c.03489294 0 .09436955.00526542.17842982.01579626s.17644726.04024285.27716098.08913604.19230769.129755.27478192.24258543c-.00475813.00451322-.02775575.02068558-.06899286.04851709-.04123712.0278315-.08723236.06845046-.13798573.12185686-.05075337.05340641-.09516257.12110467-.13322759.20309478-.03806503.08199011-.05709755.17940039-.05709755.29223082 0 .12937889.02418716.23920051.07256146.32946486.04837431.09026435.10467883.16285192.16891356.21776273.06423474.05491081.12133228.09515367.17129263.12072857.04996035.02557489.07652656.03911455.07969865.04061895-.00158604.00601762-.02180809.05942403-.06066614.16021922-.03885805.10079518-.10269627.21287341-.19151467.33623468-.0777161.10681281-.16137986.20535139-.25099128.29561573-.08961142.09026435-.19706582.13539652-.3223632.13539652-.08406027 0-.15305313-.01165914-.20697859-.03497743-.05392545-.02331829-.10943695-.04663658-.16653449-.06995487-.05709755-.02331829-.13402062-.03497743-.23076924-.03497743-.09357652 0-.17168913.01203524-.23433782.03610574-.06264869.02407049-.1221253.04814098-.17842982.07221147s-.12252181.03610574-.19865186.03610574c-.11578113 0-.21728787-.04362777-.30452023-.1308833-.08723235-.08725554-.17684377-.19181174-.26883425-.3136686-.10626487-.14442295-.19706582-.32081453-.27240286-.52917473-.07533703-.2083602-.11300555-.4186009-.11300555-.63072211 0-.22716527.04520222-.4178487.13560666-.57205029s.20658208-.27079304.34853291-.34977434.28905631-.11847196.44131642-.11847196c.08088818 0 .15701824.01241135.22839016.03723405.07137193.02482269.13838224.05002149.20103093.07559639.06264869.02557489.11934972.03836234.17010309.03836234.04916733 0 .10626487-.01353965.17129263-.04061895.06502776-.02707931.13798572-.05378251.21887391-.08010961.08088818-.0263271.16732752-.03949065.259318-.03949065zm.05709754-.84622824c.00475813.01955727.00713719.04287556.00713719.06995487 0 .09026434-.01823949.17789598-.05471847.2628949-.03647899.08499893-.08326725.16059532-.14036479.22678917-.06185567.07070707-.13957177.129755-.2331483.17714378-.09357652.04738878-.18239492.07108317-.26645519.07108317-.01744647 0-.03409992-.0015044-.04996035-.00451321-.00158604-.00451322-.00317209-.01278745-.00475813-.0248227s-.00237906-.02482269-.00237906-.03836235c0-.09026434.02061855-.17789598.06185567-.2628949.04123711-.08499893.08802537-.1553299.14036479-.21099291.0666138-.07522029.15067406-.13765313.25218081-.18729852.10150674-.04964539.19825535-.07597249.29024583-.0789813z" transform="translate(3.5)"/></svg>