<svg height="24" viewBox="0 0 24 24" width="24" xmlns="http://www.w3.org/2000/svg"><path d="m10.5 19.999h-5.999l.0007197.7501976c.0101719.4805586.0652997.7082442.16089391.9089819l.03773592.0744548c.13073032.2444444.32257175.4362859.56701619.5670162.24444445.1307303.48690913.2003495 1.15554818.2003495h2.1541722c.66863905 0 .91110373-.0696192 1.15554818-.2003495.24444444-.1307303.43628592-.3225718.56701622-.5670162.1307303-.2444445.2003495-.4869091.2003495-1.1555482zm.4361148-14.499-7.06813757.00164263c-.13512654.00237859-.25556999.00733224-.36400564.01480778-.08411336.00580402-.16072772.01309162-.23140655.02186095-.01878523.00232984-.03730337.00478588-.0554189.00734787l.0554189-.00734787c-.04008696.0049737-.07826457.01042405-.11475814.01634656l.05933924-.00899869c-.04148528.00586706-.08085912.01228977-.11840702.01926246l.05906778-.01026377c-.03507405.00569214-.06859253.01182042-.10075545.01838088l.04168767-.00811711c-.2423377.04500244-.40861488.11291451-.57558482.20221101-.32592593.1743071-.5817145.43009567-.7560216.7560216-.17430709.32592592-.2671327.64921216-.2671327 1.5407309l.00164263 8.0681376c.01312037.7453627.10459122 1.0439682.26549007 1.3448229.1743071.3259259.43009567.5817145.7560216.7560216.17062361.0912505.3405238.1601705.59160353.2051323.06423202.0114977.13357025.0214048.20955104.029726.06305677.0069083.13085845.0127352.20403979.0174489.08636221.0055763.18122807.0096248.28506738.0120641l.12145467.0020714 7.00124409.00069c.0887257 0 .1718232-.0009194.2498554-.002747.1044531-.0024537.1993189-.0065022.2865388-.0121338.0723237-.0046584.1401254-.0104853.2033301-.0174098.0758328-.008305.145171-.0182121.209226-.0296781l.0049349-.0010313c.0081557-.0013449.0113606-.0019381.0145523-.0025352l-.0095523.0015352.0455707-.0085551c.0180627-.0036648.0356982-.0074653.0529416-.011401l-.08896.0184209c.240554-.0450052.4060805-.1127059.5722934-.2015975.3259259-.1743071.5817145-.4300957.7560216-.7560216s.2671327-.6492122.2671327-1.5407309v-7.8722296c0-.89151874-.0928256-1.21480498-.2671327-1.5407309-.1743071-.32592593-.4300957-.5817145-.7560216-.7560216-.1253561-.06704119-.2503218-.1220289-.4073771-.16431771l-.0686466-.01717703-.097278-.02029119c-.0067253-.00125536-.0135091-.002493-.0203533-.00371291-.0155371-.00276774-.0311155-.00540093-.0470126-.00794539l.0470126.00794539c-.0418942-.00746726-.0860468-.01426972-.1328363-.02039987l.0858237.01245448c-.0380693-.0060933-.077966-.01167769-.1199421-.01674817l.0341184.00429369c-.0837333-.01097036-.1759113-.01978757-.2787031-.02640853-.0865254-.00558378-.1813612-.00962906-.2851635-.0120663-.0785498-.00183976-.1616473-.00275916-.250373-.00275916zm4.0638852 10.4361148c0 1.0392637-.1142136 1.6307101-.4444129 2.2481292-.3141068.5873286-.7840145 1.0572363-1.3713431 1.3713431-.3697583.1977489-.7302014.3180336-1.1830946.3827138l-.0011494.6387852c0 .8360595-.096954 1.3381284-.3776297 1.8629465-.27053.5058471-.6764906.9118077-1.1823377 1.1823377-.52481806.2806757-1.02688697.3776297-1.8629465.3776297h-2.1541722c-.83605953 0-1.33812844-.096954-1.86294647-.3776297-.50584715-.27053-.91180768-.6764906-1.1823377-1.1823377-.28067575-.5248181-.37762973-1.026887-.37762973-1.8629465l-.00114938-.6387852c-.45289318-.0646802-.8133363-.1849649-1.18309461-.3827138-.58732864-.3141068-1.05723631-.7840145-1.3713431-1.3713431-.33019933-.6174191-.44441291-1.2088655-.44441291-2.2481292v-7.8722296c0-1.03926369.11421358-1.63071012.44441291-2.24812919.31410679-.58732864.78401446-1.05723631 1.3713431-1.3713431.36975831-.19774891.73020143-.31803364 1.18309461-.38271382l.00114938-.63878519c0-.83605953.09695398-1.33812844.37762973-1.86294647.27053002-.50584715.67649055-.91180768 1.1823377-1.1823377.52481803-.28067575 1.02688694-.37762973 1.86294647-.37762973h2.1541722c.83605953 0 1.33812844.09695398 1.8629465.37762973.5058471.27053002.9118077.67649055 1.1823377 1.1823377.2806757.52481803.3776297 1.02688694.3776297 1.86294647l.0011494.63878519c.4528932.06468018.8133363.18496491 1.1830946.38271382.5873286.31410679 1.0572363.78401446 1.3713431 1.3713431.3301993.61741907.4444129 1.2088655.4444129 2.24812919v-.0638852h.5c.2761424 0 .5.22385763.5.5v1c0 .27614237-.2238576.5-.5.5h-.5zm-6.4229139-14.4361148-2.32628368.0017197c-.54062842.01144339-.76121448.07978408-.9834367.19862983-.24444444.13073032-.43628587.32257175-.56701619.56701619-.13073032.24444445-.20034953.48690913-.20034953 1.15554818v.5760861h6v-.5760861c0-.60785369-.0575365-.86349714-.1662173-1.08860892l-.0341322-.06693926c-.1307303-.24444444-.32257178-.43628587-.56701622-.56701619-.24444445-.13073032-.48690913-.20034953-1.15554818-.20034953z" fill-rule="evenodd" transform="translate(4)"/></svg>