<svg height="24" viewBox="0 0 24 24" width="24" xmlns="http://www.w3.org/2000/svg"><path d="m12 0c6.627417 0 12 5.372583 12 12s-5.372583 12-12 12-12-5.372583-12-12 5.372583-12 12-12zm0 2c-5.5228475 0-10 4.4771525-10 10s4.4771525 10 10 10 10-4.4771525 10-10-4.4771525-10-10-10zm0 1.375c4.763456 0 8.625 3.86154403 8.625 8.625 0 4.763456-3.861544 8.625-8.625 8.625-4.76345597 0-8.625-3.861544-8.625-8.625 0-4.76345597 3.86154403-8.625 8.625-8.625zm0 1.125c-4.14213562 0-7.5 3.35786438-7.5 7.5 0 4.1421356 3.35786438 7.5 7.5 7.5 4.1421356 0 7.5-3.3578644 7.5-7.5 0-4.14213562-3.3578644-7.5-7.5-7.5zm0 10c.5522847 0 1 .4477153 1 1s-.4477153 1-1 1-1-.4477153-1-1 .4477153-1 1-1zm-3.5-3.5c.55228475 0 1 .4477153 1 1s-.44771525 1-1 1-1-.4477153-1-1 .44771525-1 1-1zm7 0c.5522847 0 1 .4477153 1 1s-.4477153 1-1 1-1-.4477153-1-1 .4477153-1 1-1zm-3.5-3.5c.5522847 0 1 .44771525 1 1s-.4477153 1-1 1-1-.44771525-1-1 .4477153-1 1-1z" fill-rule="evenodd"/></svg>