<svg height="24" viewBox="0 0 24 24" width="24" xmlns="http://www.w3.org/2000/svg"><path d="m7.909713 0 8.5279519.0018377c2.0299427.02222012 3.1005605.24895139 4.2118476.84327426 1.0762176.57556743 1.9298081 1.42915797 2.5053755 2.50537549.6273408 1.17302532.845112 2.30073692.845112 4.55922555v8.180574c0 2.2584886-.2177712 3.3862002-.845112 4.5592255-.5755674 1.0762176-1.4291579 1.9298081-2.5053755 2.5053755-1.1730253.6273408-2.3007369.845112-4.5592255.845112h-8.180574c-2.25848863 0-3.38620023-.2177712-4.55922555-.845112-1.07621752-.5755674-1.92980806-1.4291579-2.50537549-2.5053755-.6273408-1.1730253-.84511196-2.3007369-.84511196-4.5592255l.0018377-8.5279519c.02222012-2.02994273.24895139-3.1005605.84327426-4.21184765.57556743-1.07621752 1.42915797-1.92980806 2.50537549-2.50537549 1.17302532-.6273408 2.30073692-.84511196 4.55922555-.84511196zm8.180574 1.5-8.47582962.00143575c-1.81588339.0181693-2.62058682.20846617-3.33344077.55262208l-.22313087.11377393c-.81481481.43576773-1.45428625 1.07523917-1.89005398 1.89005398l-.05815758.11120424-.10867549.22537984c-.32790961.72506894-.50099869 1.59037317-.50099869 3.51524318l.00143575 8.4758296c.0181693 1.8158834.20846617 2.6205868.55262208 3.3334408l.11377393.2231309c.43576773.8148148 1.07523917 1.4542862 1.89005398 1.8900539l.11120424.0581576.22537984.1086755c.64874589.2933928 1.40975771.4628434 2.94153825.4952664l.57370493.0057323h8.180574l.5737049-.0057323c1.6218853-.0343302 2.3796562-.2222831 3.0549915-.5483255l.2231309-.113774c.8148148-.4357677 1.4542862-1.0752391 1.8900539-1.8900539l.0581576-.1112043.1086755-.2253798c.2933928-.6487459.4628434-1.4097577.4952664-2.9415383l.0057323-.5737049v-8.180574l-.0057323-.57370493c-.0343302-1.62188527-.2222831-2.37965614-.5483255-3.05499146l-.113774-.22313087c-.4357677-.81481481-1.0752391-1.45428625-1.8900539-1.89005398l-.1112043-.05815758-.2253798-.10867549c-.725069-.32790961-1.5903732-.50099869-3.5152432-.50099869zm-7.75532606 8.38037109c.06445312 0 .1743164.01025391.32958984.03076172s.32592774.07836914.51196289.17358399c.18603516.0952148.35522461.2526855.50756836.4724121l-.03845215.0302124c-.02124023.0157471-.05090332.0371704-.08898926.06427-.07617187.0541992-.16113281.1333008-.25488281.2373047s-.17578125.2358399-.24609375.3955078c-.0703125.159668-.10546875.3493653-.10546875.5690918 0 .2519532.04467774.4658203.13403321.6416016.08935546.1757812.19335937.3171387.31201171.4240723.11865235.1069335.2241211.1853027.31640625.2351074.09228516.0498047.14135743.0761719.1472168.0791015-.00292969.0117188-.0402832.1157227-.11206055.3120118-.07177734.196289-.18969726.4145507-.35375976.6547851-.14355469.2080078-.2980957.3999024-.46362305.5756836-.16552734.1757813-.36401367.2636719-.59545898.2636719-.15527344 0-.28271485-.0227051-.38232422-.0681153-.09960938-.0454101-.20214844-.0908203-.30761719-.1362304-.10546875-.0454102-.24755859-.0681153-.42626953-.0681153-.17285156 0-.31713867.0234375-.43286133.0703125-.11572265.046875-.22558594.09375-.32958984.140625-.10400391.046875-.22631836.0703125-.36694336.0703125-.21386719 0-.40136719-.0849609-.5625-.2548828-.16113281-.1699218-.32666016-.3735351-.49658203-.6108398-.19628906-.28125-.36401367-.6247559-.50317383-1.0305176s-.20874023-.8151855-.20874023-1.2282715c0-.4423828.08349609-.8137207.25048828-1.1140136.16699218-.300293.38159179-.5273438.64379882-.6811524.26220704-.15380858.53393555-.23071288.81518555-.23071288.14941406 0 .29003906.02416992.421875.07250976.13183594.04833982.25561524.09741212.37133789.14721682.11572266.0498047.22045899.074707.31420899.074707.09082031 0 .19628906-.0263672.31640625-.0791016.12011718-.0527343.25488281-.1047363.40429687-.15600581.14941406-.05126953.30908203-.0769043.47900391-.0769043zm4.95678706-.87451171v1.15576172h.9997559v.9667969h-.9997559v2.2719726c0 .2167969.0494385.3757324.1483155.4768067.0988769.1010742.2567138.1516113.4735107.1516113.0820313 0 .1501465-.0018311.2043457-.0054932s.1120606-.0084228.173584-.0142822v.9536133c-.0791016.0146484-.1746826.0274658-.2867432.0384521-.1120605.0109864-.2303466.0164795-.3548584.0164795-.5874023 0-1.0100097-.1029052-1.2678222-.3087158-.2578125-.2058105-.3867188-.5430908-.3867188-1.0118408v-2.5686035h-.744873v-.9667969h.744873v-1.15576172zm3.1882325 1.15576172 1.0019531 3.6386719h.0791016l.993164-3.6386719h1.3469238l-1.6721191 4.8383789h-1.4414062l-1.6831055-4.8383789zm-8.03955081-1.92919922c.00878906.03808593.01318359.08349609.01318359.13623046 0 .17578125-.0336914.34643555-.10107422.51196289-.06738281.16552735-.15380859.31274415-.25927734.44165039-.11425781.13769532-.2578125.25268555-.43066406.34497071-.17285157.09228515-.33691407.13842773-.4921875.13842773-.03222657 0-.06298828-.00292968-.09228516-.00878906-.00292969-.00878906-.00585938-.02490234-.00878906-.04833984-.00292969-.0234375-.00439453-.04833985-.00439453-.07470704 0-.17578124.03808593-.34643554.11425781-.51196289.07617187-.16552734.16259766-.30249023.25927734-.41088867.12304688-.14648437.27832032-.2680664.46582032-.36474609s.36621093-.14794922.53613281-.15380859z"/></svg>