<svg height="24" viewBox="0 0 24 24" width="24" xmlns="http://www.w3.org/2000/svg"><path d="m22 0c1.1045695 0 2 .8954305 2 2v1.5c0 1.38071187-1.1192881 2.5-2.5 2.5v8.5c0 5.2467051-4.2532949 9.5-9.5 9.5-5.24670512 0-9.5-4.2532949-9.5-9.5v-8.5c-1.38071187 0-2.5-1.11928813-2.5-2.5v-1.5c0-1.1045695.8954305-2 2-2zm-2 8.75h-16v5.75c0 4.418278 3.581722 8 8 8s8-3.581722 8-8zm-8 1.25c2.7614237 0 5 2.2385763 5 5s-2.2385763 5-5 5c-2.76142375 0-5-2.2385763-5-5s2.23857625-5 5-5zm0 1.5c-1.9329966 0-3.5 1.5670034-3.5 3.5s1.5670034 3.5 3.5 3.5 3.5-1.5670034 3.5-3.5-1.5670034-3.5-3.5-3.5zm0 1c1.3807119 0 2.5 1.1192881 2.5 2.5s-1.1192881 2.5-2.5 2.5-2.5-1.1192881-2.5-2.5 1.1192881-2.5 2.5-2.5zm0 1.5c-.5522847 0-1 .4477153-1 1s.4477153 1 1 1 1-.4477153 1-1-.4477153-1-1-1zm-5.6409713-4c.22287968 0 .30370124.0232064.38518273.0667832.08148148.0435767.14542862.1075239.18900539.1890054.04357678.0814815.06678318.162303.06678318.3851827v.7180574c0 .2228797-.0232064.3037012-.06678318.3851827-.04357677.0814815-.10752391.1454287-.18900539.1890054-.08148149.0435768-.16230305.0667832-.38518273.0667832h-.7180574c-.22287968 0-.30370124-.0232064-.38518273-.0667832-.08148148-.0435767-.14542862-.1075239-.18900539-.1890054-.04357678-.0814815-.06678318-.162303-.06678318-.3851827v-.7180574c0-.2228797.0232064-.3037012.06678318-.3851827.04357677-.0814815.10752391-.1454287.18900539-.1890054.08148149-.0435768.16230305-.0667832.38518273-.0667832zm13.6409713-4h-16v1.25h16zm2-4.5h-20c-.27614237 0-.5.22385763-.5.5v1.5c0 .55228475.44771525 1 1 1h19c.5522847 0 1-.44771525 1-1v-1.5c0-.27614237-.2238576-.5-.5-.5z"/></svg>