<svg height="24" viewBox="0 0 24 24" width="24" xmlns="http://www.w3.org/2000/svg"><path d="m19.5791902 2.7819426c0-.44575937-.0464128-.60740249-.1335663-.77036545-.0871536-.16296296-.2150479-.29085725-.3780108-.3780108-.162963-.08715354-.3246061-.13356635-.7703655-.13356635h-13.43611478c-.44575937 0-.60740249.04641281-.77036545.13356635-.16296296.08715355-.29085725.21504784-.3780108.3780108-.08715354.16296296-.13356635.32460608-.13356635.77036545v9.2180574h-1.5v-9.4361148c0-.89151874.09282561-1.21480498.2671327-1.5407309.1743071-.32592593.43009567-.5817145.7560216-.7560216.32592592-.17430709.64921216-.2671327 1.5407309-.2671327h13.87222958c.8915188 0 1.214805.09282561 1.5407309.2671327.325926.1743071.5817145.43009567.7560216.7560216.1743071.32592592.2671327.64921216.2671327 1.5407309v9.4361148h.5788354c.8284271 0 1.5.6715729 1.5 1.5 0 .1226427-.015041.2448225-.0447862.3638034l-.1564911.6259645c-.139965.5598598-.2365976.7517843-.3816521.9416684-.1450545.1898842-.3271053.3320251-.5465008.426695-.2193956.0946699-.4290266.1418687-1.0061168.1418687h-18.88657671c-.57709029 0-.78672127-.0471988-1.00611683-.1418687s-.4014463-.2368108-.54650081-.426695c-.14505452-.1898841-.24168711-.3818086-.38165207-.9416684l-.1564911-.6259645c-.20092309-.8036923.28771795-1.6180941 1.09141031-1.8190172.11898091-.0297452.24116073-.0447862.36380344-.0447862h18.07883537zm1.8356159 10.7180574h-19.67123177c-.07302456 0-.14356701.0265053-.19852359.0745923-.12530464.1096415-.13800208.3001031-.02836052.4254077l.21843804.2496435c.08999461.102851.12573468.1350996.17052396.1659702.04478927.0308706.09128125.0519671.14400769.0653461.05272644.0133789.10053099.0190402.2371961.0190402h18.58466839c.1366651 0 .1844697-.0056613.2371961-.0190402.0527265-.013379.0992184-.0344755.1440077-.0653461s.0805294-.0631192.170524-.1659702l.218438-.2496435c.048087-.0549566.0745923-.125499.0745923-.1985236 0-.1665008-.1349756-.3014764-.3014764-.3014764zm-17.8348061-2.5h16v1h-16z" fill-rule="evenodd" transform="translate(.42 4)"/></svg>