<svg height="24" viewBox="0 0 24 24" width="24" xmlns="http://www.w3.org/2000/svg"><path d="m9.98726003.77539266-9 8.14285715c-.62861218.56874435-.98726003 1.37689079-.98726003 2.22460729v9.334314c0 1.6568543 1.34314575 3 3 3h5.5c1.1045695 0 2-.8954305 2-2v-5h3v5c0 1.1045695.8954305 2 2 2h5.5c1.6568542 0 3-1.3431457 3-3v-9.334314c0-.8477165-.3586478-1.65586294-.98726-2.22460729l-9-8.14285715c-1.142684-1.03385688-2.882796-1.03385688-4.02547997 0zm3.01910997 1.11230367 9 8.14285717c.3143061.2843722.49363.6884454.49363 1.1123036v9.334314c0 .8284271-.6715729 1.5-1.5 1.5h-5.5c-.2761424 0-.5-.2238576-.5-.5v-5c0-.8284271-.6715729-1.5-1.5-1.5h-3c-.82842712 0-1.5.6715729-1.5 1.5v5c0 .2761424-.22385763.5-.5.5h-5.5c-.82842712 0-1.5-.6715729-1.5-1.5v-9.334314c0-.4238582.17932392-.8279314.49363001-1.1123036l8.99999999-8.14285717c.571342-.51692844 1.441398-.51692844 2.01274 0z" transform="translate(0 .5228)"/></svg>