<svg height="24" viewBox="0 0 24 24" width="24" xmlns="http://www.w3.org/2000/svg"><path d="m7.909713 0 8.5279519.0018377c2.0299427.02222012 3.1005605.24895139 4.2118476.84327426 1.0762176.57556743 1.9298081 1.42915797 2.5053755 2.50537549.6273408 1.17302532.845112 2.30073692.845112 4.55922555v8.180574c0 2.2584886-.2177712 3.3862002-.845112 4.5592255-.5755674 1.0762176-1.4291579 1.9298081-2.5053755 2.5053755-1.1730253.6273408-2.3007369.845112-4.5592255.845112h-8.180574c-2.25848863 0-3.38620023-.2177712-4.55922555-.845112-1.07621752-.5755674-1.92980806-1.4291579-2.50537549-2.5053755-.6273408-1.1730253-.84511196-2.3007369-.84511196-4.5592255l.0018377-8.5279519c.02222012-2.02994273.24895139-3.1005605.84327426-4.21184765.57556743-1.07621752 1.42915797-1.92980806 2.50537549-2.50537549 1.17302532-.6273408 2.30073692-.84511196 4.55922555-.84511196zm8.180574 1.5-8.47582962.00143575c-1.81588339.0181693-2.62058682.20846617-3.33344077.55262208l-.22313087.11377393c-.81481481.43576773-1.45428625 1.07523917-1.89005398 1.89005398l-.05815758.11120424-.10867549.22537984c-.32790961.72506894-.50099869 1.59037317-.50099869 3.51524318l.00143575 8.4758296c.0181693 1.8158834.20846617 2.6205868.55262208 3.3334408l.11377393.2231309c.43576773.8148148 1.07523917 1.4542862 1.89005398 1.8900539l.11120424.0581576.22537984.1086755c.64874589.2933928 1.40975771.4628434 2.94153825.4952664l.57370493.0057323h8.180574l.5737049-.0057323c1.6218853-.0343302 2.3796562-.2222831 3.0549915-.5483255l.2231309-.113774c.8148148-.4357677 1.4542862-1.0752391 1.8900539-1.8900539l.0581576-.1112043.1086755-.2253798c.2933928-.6487459.4628434-1.4097577.4952664-2.9415383l.0057323-.5737049v-8.180574l-.0057323-.57370493c-.0343302-1.62188527-.2222831-2.37965614-.5483255-3.05499146l-.113774-.22313087c-.4357677-.81481481-1.0752391-1.45428625-1.8900539-1.89005398l-.1112043-.05815758-.2253798-.10867549c-.725069-.32790961-1.5903732-.50099869-3.5152432-.50099869zm-.090287 15.5c.5522847 0 1 .4477153 1 1s-.4477153 1-1 1-1-.4477153-1-1 .4477153-1 1-1zm-4 0c.5522847 0 1 .4477153 1 1s-.4477153 1-1 1-1-.4477153-1-1 .4477153-1 1-1zm-4 0c.55228475 0 1 .4477153 1 1s-.44771525 1-1 1-1-.4477153-1-1 .44771525-1 1-1zm4-12c2.4852814 0 4.5 2.01471863 4.5 4.5 0 2.4852814-2.0147186 4.5-4.5 4.5-2.48528137 0-4.5-2.0147186-4.5-4.5 0-2.48528137 2.01471863-4.5 4.5-4.5zm0 1.5c-1.6568542 0-3 1.34314575-3 3 0 1.6568542 1.3431458 3 3 3s3-1.3431458 3-3c0-1.65685425-1.3431458-3-3-3z"/></svg>