<svg height="24" viewBox="0 0 24 24" width="24" xmlns="http://www.w3.org/2000/svg"><path d="m21.2180574.5c.5299194 0 .878714.05748479 1.2419643.25175315.336741.18009105.6081341.45148416.7882251.78822514.1942684.36325026.2517532.7120449.2517532 1.24196431v7.4361148c0 .5299194-.0574848.878714-.2517532 1.2419643-.180091.336741-.4514841.6081341-.7882251.7882251-.4148709.2218754-.8108857.265329-1.4794156.2484981l-.585616.7307888-16.35052601.268532-.80710947-.9976421c-.89221563.0108896-1.28692945-.0306674-1.69737633-.2501768-.33674098-.180091-.60813409-.4514841-.78822514-.7882251-.19426836-.3632503-.25175315-.7120449-.25175315-1.2419643v-7.4361148c0-.52991941.05748479-.87871405.25175315-1.24196431.18009105-.33674098.45148416-.60813409.78822514-.78822514.36325026-.19426836.7120449-.25175315 1.24196431-.25175315zm0 .5h-18.4361148c-.58735798 0-.79332095.07882957-1.00616488.19265975-.25138603.13444272-.44867525.33173194-.58311797.58311797-.11383018.21284393-.19265975.4188069-.19265975 1.00616488v7.4361148c0 .587358.07882957.793321.19265975 1.0061649.13444272.251386.33173194.4486752.58311797.5831179.21284393.1138302.4188069.1926598 1.00616488.1926598h18.4361148c.587358 0 .793321-.0788296 1.0061649-.1926598.251386-.1344427.4486752-.3317319.5831179-.5831179.1138302-.2128439.1926598-.4188069.1926598-1.0061649v-7.4361148c0-.58735798-.0788296-.79332095-.1926598-1.00616488-.1344427-.25138603-.3317319-.44867525-.5831179-.58311797-.2128439-.11383018-.4188069-.19265975-1.0061649-.19265975zm-.864504 8.14644661c.0904822.0904822.1464466.2154822.1464466.35355339s-.0559644.26307119-.1464466.35355339-.2154822.14644661-.3535534.14644661-.2630712-.05596441-.3535534-.14644661-.1464466-.2154822-.1464466-.35355339.0559644-.26307119.1464466-.35355339c.4916246-.14644661.6166246-.0904822.7071068 0z" fill-rule="evenodd" stroke="#000" transform="translate(0 5)"/></svg>