<svg height="24" viewBox="0 0 24 24" width="24" xmlns="http://www.w3.org/2000/svg"><path d="m19.9361148 0c1.0392637 0 1.6307101.11421358 2.2481292.44441291.5873286.31410679 1.0572363.78401446 1.3713431 1.3713431.3301993.61741907.4444129 1.2088655.4444129 2.24812919v15.8722296c0 1.0392637-.1142136 1.6307101-.4444129 2.2481292-.3141068.5873286-.7840145 1.0572363-1.3713431 1.3713431-.6174191.3301993-1.2088655.4444129-2.2481292.4444129h-15.8722296c-1.03926369 0-1.63071012-.1142136-2.24812919-.4444129-.58732864-.3141068-1.05723631-.7840145-1.3713431-1.3713431-.33019933-.6174191-.44441291-1.2088655-.44441291-2.2481292v-15.8722296c0-1.03926369.11421358-1.63071012.44441291-2.24812919.31410679-.58732864.78401446-1.05723631 1.3713431-1.3713431.61741907-.33019933 1.2088655-.44441291 2.24812919-.44441291zm0 1.5-16.06813757.00164263c-.74536273.01312037-1.04396823.10459122-1.34482293.26549007-.32592593.1743071-.5817145.43009567-.7560216.7560216-.17430709.32592592-.2671327.64921216-.2671327 1.5407309l.00164263 16.0681376c.01312037.7453627.10459122 1.0439682.26549007 1.3448229.1743071.3259259.43009567.5817145.7560216.7560216.32592592.1743071.64921216.2671327 1.5407309.2671327h15.8722296c.8915187 0 1.214805-.0928256 1.5407309-.2671327s.5817145-.4300957.7560216-.7560216.2671327-.6492122.2671327-1.5407309v-15.8722296c0-.89151874-.0928256-1.21480498-.2671327-1.5407309-.1743071-.32592593-.4300957-.5817145-.7560216-.7560216-.3259259-.17430709-.6492122-.2671327-1.5407309-.2671327zm-7.7180574 2c.6328554 0 1.0455468.07969438 1.4777637.31084655.2060357.11018909.392659.24750065.5561264.40819135.1595724-.1606907.3461957-.29800226.5522314-.40819135.4322169-.23115217.8449083-.31084655 1.4777637-.31084655h1.4361148c.6328554 0 1.0455468.07969438 1.4777637.31084655.4243657.22695325.7663791.56896664.9933323.99333231.2311522.43221698.3108466.84490836.3108466 1.47776374v11.4361148c0 .6328554-.0796944 1.0455468-.3108466 1.4777637-.2269532.4243657-.5689666.7663791-.9933323.9933323-.4322169.2311522-.8449083.3108466-1.4777637.3108466h-1.4361148c-.6328554 0-1.0455468-.0796944-1.4777637-.3108466-.2056118-.1099623-.3918909-.2469357-.5551171-.4071997-.1613498.160264-.3476289.2972374-.5532407.4071997-.4322169.2311522-.8449083.3108466-1.4777637.3108466h-1.4361148c-.6328554 0-1.04554676-.0796944-1.47776374-.3108466-.42436567-.2269532-.76637906-.5689666-.99333231-.9933323-.23115217-.4322169-.31084655-.8449083-.31084655-1.4777637v-11.4361148c0-.63285538.07969438-1.04554676.31084655-1.47776374.22695325-.42436567.56896664-.76637906.99333231-.99333231.43221698-.23115217.84490834-.31084655 1.47776374-.31084655zm5.5 1.5h-1.4361148c-.4457594 0-.6074025.04641281-.7703655.13356635-.1629629.08715355-.2908572.21504784-.3780107.3780108-.0871536.16296296-.1335664.32460608-.1335664.77036545v11.4361148c0 .4457594.0464128.6074025.1335664.7703655.0871535.1629629.2150478.2908572.3780107.3780107.162963.0871536.3246061.1335664.7703655.1335664h1.4361148c.4457594 0 .6074025-.0464128.7703655-.1335664.1629629-.0871535.2908572-.2150478.3780107-.3780107.0871536-.162963.1335664-.3246061.1335664-.7703655v-11.4361148c0-.44575937-.0464128-.60740249-.1335664-.77036545-.0871535-.16296296-.2150478-.29085725-.3780107-.3780108-.162963-.08715354-.3246061-.13356635-.7703655-.13356635zm-5.5 0h-1.4361148c-.4457594 0-.6074025.04641281-.7703655.13356635-.16296291.08715355-.2908572.21504784-.37801075.3780108-.08715354.16296296-.13356635.32460608-.13356635.77036545v11.4361148c0 .4457594.04641281.6074025.13356635.7703655.08715355.1629629.21504784.2908572.37801075.3780107.162963.0871536.3246061.1335664.7703655.1335664h1.4361148c.4457594 0 .6074025-.0464128.7703655-.1335664.1629629-.0871535.2908572-.2150478.3780107-.3780107.0871536-.162963.1335664-.3246061.1335664-.7703655v-11.4361148c0-.44575937-.0464128-.60740249-.1335664-.77036545-.0871535-.16296296-.2150478-.29085725-.3780107-.3780108-.162963-.08715354-.3246061-.13356635-.7703655-.13356635zm-7.2180574 1.5c.55228475 0 1 .44771525 1 1s-.44771525 1-1 1-1-.44771525-1-1 .44771525-1 1-1zm0-3c.55228475 0 1 .44771525 1 1s-.44771525 1-1 1-1-.44771525-1-1 .44771525-1 1-1z"/></svg>