<svg height="24" viewBox="0 0 24 24" width="24" xmlns="http://www.w3.org/2000/svg"><path d="m21.2180574 0c.6328554 0 1.0455468.07969438 1.4777637.31084656.4243657.22695324.7663791.56896663.9933323.9933323.2311522.43221698.3108466.84490836.3108466 1.47776374v2.4361148c0 .63285538-.0796944 1.04554676-.3108466 1.47776374-.2269532.42436567-.5689666.76637906-.9933323.99333231-.4322169.23115217-.8449083.31084655-1.4777637.31084655h-18.4361148c-.63285538 0-1.04554676-.07969438-1.47776374-.31084655-.42436567-.22695325-.76637906-.56896664-.9933323-.99333231-.23115218-.43221698-.31084656-.84490836-.31084656-1.47776374v-2.4361148c0-.63285538.07969438-1.04554676.31084656-1.47776374.22695324-.42436567.56896663-.76637906.9933323-.9933323.43221698-.23115218.84490836-.31084656 1.47776374-.31084656zm0 1.5h-18.4361148c-.44575937 0-.60740249.04641281-.77036545.13356635-.16296296.08715355-.29085725.21504784-.3780108.3780108-.08715354.16296296-.13356635.32460608-.13356635.77036545v2.4361148c0 .44575937.04641281.60740249.13356635.77036545.08715355.16296296.21504784.29085725.3780108.3780108.16296296.08715354.32460608.13356635.77036545.13356635h18.4361148c.4457594 0 .6074025-.04641281.7703655-.13356635.1629629-.08715355.2908572-.21504784.3780107-.3780108.0871536-.16296296.1335664-.32460608.1335664-.77036545v-2.4361148c0-.44575937-.0464128-.60740249-.1335664-.77036545-.0871535-.16296296-.2150478-.29085725-.3780107-.3780108-.162963-.08715354-.3246061-.13356635-.7703655-.13356635zm-.4680574 2c.1380712 0 .25.11192881.25.25v.5c0 .13807119-.1119288.25-.25.25h-.5c-.1380712 0-.25-.11192881-.25-.25v-.5c0-.13807119.1119288-.25.25-.25zm-2 0c.1380712 0 .25.11192881.25.25v.5c0 .13807119-.1119288.25-.25.25h-.5c-.1380712 0-.25-.11192881-.25-.25v-.5c0-.13807119.1119288-.25.25-.25zm-2 0c.1380712 0 .25.11192881.25.25v.5c0 .13807119-.1119288.25-.25.25h-.5c-.1380712 0-.25-.11192881-.25-.25v-.5c0-.13807119.1119288-.25.25-.25zm-2 0c.1380712 0 .25.11192881.25.25v.5c0 .13807119-.1119288.25-.25.25h-.5c-.1380712 0-.25-.11192881-.25-.25v-.5c0-.13807119.1119288-.25.25-.25zm-5 0c.13807119 0 .25.11192881.25.25v.5c0 .13807119-.11192881.25-.25.25h-.5c-.13807119 0-.25-.11192881-.25-.25v-.5c0-.13807119.11192881-.25.25-.25zm-2 0c.13807119 0 .25.11192881.25.25v.5c0 .13807119-.11192881.25-.25.25h-.5c-.13807119 0-.25-.11192881-.25-.25v-.5c0-.13807119.11192881-.25.25-.25zm-2 0c.13807119 0 .25.11192881.25.25v.5c0 .13807119-.11192881.25-.25.25h-.5c-.13807119 0-.25-.11192881-.25-.25v-.5c0-.13807119.11192881-.25.25-.25zm-2 0c.13807119 0 .25.11192881.25.25v.5c0 .13807119-.11192881.25-.25.25h-.5c-.13807119 0-.25-.11192881-.25-.25v-.5c0-.13807119.11192881-.25.25-.25z" transform="translate(0 8)"/></svg>