<svg height="24" viewBox="0 0 24 24" width="24" xmlns="http://www.w3.org/2000/svg"><path d="m9.6541722 0c1.445672 0 2.2158735.14873277 3.0184946.57797926.7502916.40126034 1.3480936.9990623 1.7493539 1.7493539.4292465.80262115.5779793 1.57282264.5779793 3.01849464v13.3083444c0 1.445672-.1487328 2.2158735-.5779793 3.0184946-.4012603.7502916-.9990623 1.3480936-1.7493539 1.7493539-.8026211.4292465-1.5728226.5779793-3.0184946.5779793h-4.3083444c-1.445672 0-2.21587349-.1487328-3.01849464-.5779793-.7502916-.4012603-1.34809356-.9990623-1.7493539-1.7493539-.42924649-.8026211-.57797926-1.5728226-.57797926-3.0184946v-13.3083444c0-1.445672.14873277-2.21587349.57797926-3.01849464.40126034-.7502916.9990623-1.34809356 1.7493539-1.7493539.80262115-.42924649 1.57282264-.57797926 3.01849464-.57797926zm0 1.5h-4.3083444c-1.17011835 0-1.68765718.10660441-2.12627615.30841372l-.18482021.09228534c-.48888888.26146063-.87257175.6451435-1.13403238 1.13403238l-.09228534.18482021c-.20180931.43861897-.30841372.9561578-.30841372 2.12627615l.00162755 13.5493046c.01408739 1.0026896.11939181 1.4780269.30678617 1.8853159l.09228534.1848203c.26146063.4888888.6451435.8725717 1.13403238 1.1340323l.18482021.0922854c.43861897.2018093.9561578.3084137 2.12627615.3084137h4.3083444c1.1701183 0 1.6876572-.1066044 2.1262761-.3084137l.1848203-.0922854c.4888888-.2614606.8725717-.6451435 1.1340323-1.1340323l.0922854-.1848203c.2018093-.4386189.3084137-.9561578.3084137-2.1262761v-13.3083444c0-1.17011835-.1066044-1.68765718-.3084137-2.12627615l-.0922854-.18482021c-.2614606-.48888888-.6451435-.87257175-1.1340323-1.13403238l-.1848203-.09228534c-.4386189-.20180931-.9561578-.30841372-2.1262761-.30841372zm-.58434798 4.82080078c.09375.04980469.15893555.12890625.19555664.23730469.02746582.08129883.02815247.17495727.00205994.28097534l-.03501892.11013794-1.48535157 3.81884765h2.87402349c.1230468 0 .2263183.0380859.3098144.1142578s.1252441.1757813.1252441.2988281c0 .0966797-.0280151.1892395-.0840454.2776795l-.0653686.0870666-4.67578127 5.5327149c-.10253906.1201172-.21240234.1933594-.32958984.2197265-.1171875.0263672-.22265625.0153809-.31640625-.0329589-.09375-.0483399-.15820313-.1274414-.19335938-.2373047-.02636718-.0823975-.02636718-.1759186 0-.2805634l.03515625-.1083526 1.48535157-3.8232422h-2.87402344c-.12597656 0-.22998047-.038086-.31201172-.1142578-.08203125-.0761719-.12304688-.1743164-.12304688-.2944336 0-.098877.02719117-.1919861.08157349-.2793274l.06344605-.0854187 4.68017578-5.53271487c.10253906-.12304688.21166992-.19775391.32739257-.2241211.11572266-.02636719.22045899-.01464844.31420899.03515625z" transform="translate(4.5)"/></svg>