<svg height="24" viewBox="0 0 24 24" width="24" xmlns="http://www.w3.org/2000/svg"><path d="m16.9361148 0c1.0392637 0 1.6307101.11421358 2.2481292.44441291.5873286.31410679 1.0572363.78401446 1.3713431 1.3713431.3301993.61741907.4444129 1.2088655.4444129 2.24812919v14.8722296c0 1.0392637-.1142136 1.6307101-.4444129 2.2481292-.3141068.5873286-.7840145 1.0572363-1.3713431 1.3713431-.6174191.3301993-1.2088655.4444129-2.2481292.4444129h.0638852v.3590287c0 .2228797-.0232064.3037012-.0667832.3851827-.0435767.0814815-.1075239.1454287-.1890054.1890054-.0814815.0435768-.162303.0667832-.3851827.0667832h-.7180574c-.2228797 0-.3037012-.0232064-.3851827-.0667832-.0814815-.0435767-.1454287-.1075239-.1890054-.1890054-.0435768-.0814815-.0667832-.162303-.0667832-.3851827v-.3590287h-9v.3590287c0 .2228797-.0232064.3037012-.06678318.3851827-.04357677.0814815-.10752391.1454287-.18900539.1890054-.08148149.0435768-.16230305.0667832-.38518273.0667832h-.7180574c-.22287968 0-.30370124-.0232064-.38518273-.0667832-.08148148-.0435767-.14542862-.1075239-.18900539-.1890054-.04357678-.0814815-.06678318-.162303-.06678318-.3851827v-.3590287h.0638852c-1.03926369 0-1.63071012-.1142136-2.24812919-.4444129-.58732864-.3141068-1.05723631-.7840145-1.3713431-1.3713431-.33019933-.6174191-.44441291-1.2088655-.44441291-2.2481292v-14.8722296c0-1.03926369.11421358-1.63071012.44441291-2.24812919.31410679-.58732864.78401446-1.05723631 1.3713431-1.3713431.61741907-.33019933 1.2088655-.44441291 2.24812919-.44441291zm2.5638852 17.5h-17.999l.00064263 1.6320228c.01312037.7453627.10459122 1.0439682.26549007 1.3448229.1743071.3259259.43009567.5817145.7560216.7560216.32592592.1743071.64921216.2671327 1.5407309.2671327h12.8722296c.8915187 0 1.214805-.0928256 1.5407309-.2671327s.5817145-.4300957.7560216-.7560216.2671327-.6492122.2671327-1.5407309zm-2 1.5c.2761424 0 .5.2238576.5.5s-.2238576.5-.5.5-.5-.2238576-.5-.5.2238576-.5.5-.5zm-2 0c.2761424 0 .5.2238576.5.5s-.2238576.5-.5.5-.5-.2238576-.5-.5.2238576-.5.5-.5zm4-6.75h-17.999v3.75h17.999zm-14 1c.27614237 0 .5.2238576.5.5v.75c0 .2761424-.22385763.5-.5.5s-.5-.2238576-.5-.5v-.75c0-.2761424.22385763-.5.5-.5zm-2 0c.27614237 0 .5.2238576.5.5v.75c0 .2761424-.22385763.5-.5.5s-.5-.2238576-.5-.5v-.75c0-.2761424.22385763-.5.5-.5zm16-6.25h-18l.001 3.75h17.999zm-14 1c.27614237 0 .5.22385763.5.5v.75c0 .27614237-.22385763.5-.5.5s-.5-.22385763-.5-.5v-.75c0-.27614237.22385763-.5.5-.5zm-2 0c.27614237 0 .5.22385763.5.5v.75c0 .27614237-.22385763.5-.5.5s-.5-.22385763-.5-.5v-.75c0-.27614237.22385763-.5.5-.5zm13.4361148-6.5-13.06813757.00164263c-.74536273.01312037-1.04396823.10459122-1.34482293.26549007-.32592593.1743071-.5817145.43009567-.7560216.7560216-.17430709.32592592-.2671327.64921216-.2671327 1.5407309v1.4361148h18v-1.4361148c0-.89151874-.0928256-1.21480498-.2671327-1.5407309-.1743071-.32592593-.4300957-.5817145-.7560216-.7560216-.3259259-.17430709-.6492122-.2671327-1.5407309-.2671327zm-11.6861148 1.25c.41421356 0 .75.33578644.75.75s-.33578644.75-.75.75h-1.5c-.41421356 0-.75-.33578644-.75-.75s.33578644-.75.75-.75z" transform="translate(2)"/></svg>