<svg height="24" viewBox="0 0 24 24" width="24" xmlns="http://www.w3.org/2000/svg"><path d="m18.5132009 0c1.5601578-0 2.1259087.16244482 2.6962791.46748223s1.0180004.75266742 1.3230378 1.32303779.4674822 1.13612129.4674822 2.69627908l.0015744 1.5232455c.2758631.20185621.4994223.46021165.6645097.76889827.2178839.40740741.3339159.84451079.3339159 1.76093572v.92024282c0 .91642489-.116032 1.35352829-.3339159 1.76093569-.1650874.3086867-.3886466.5670421-.6645097.7688983l-.0015744 5.5232455c0 1.5601578-.1624448 2.1259087-.4674822 2.6962791s-.7526674 1.0180004-1.3230378 1.3230378-1.1361213.4674822-2.6962791.4674822h-1.0132009c0 1.1045695-.8954305 2-2 2s-2-.8954305-2-2l-1.0768057.0015221c-.0561861.2723288-.142576.5053748-.2571102.719535-.2178838.4074074-.5376196.7271432-.945027.945027-.4074074.2178839-.8831612.3339159-1.5676833.3339159h-.3067476c-.68452206 0-1.16027592-.116032-1.56768333-.3339159-.40740741-.2178838-.72714312-.5376196-.94502699-.945027-.11453414-.2141602-.2009241-.4472062-.25711013-.719535l-1.09000665-.0015221c-1.56015779 0-2.12590871-.1624448-2.69627908-.4674822s-1.01800038-.7526674-1.32303779-1.3230378-.46748223-1.1361213-.46748223-2.6962791l-.00157443-1.5232455c-.27586303-.2018562-.49942228-.4602116-.66450969-.7688983-.21788387-.4074074-.33391588-.8831612-.33391588-1.5676833v-5.3067476c0-.68452206.11603201-1.16027592.33391588-1.56768333.16528442-.30905499.3891803-.56765859.66549749-.76962066l.00058663-1.52252311c0-1.56015779.16244482-2.12590871.46748223-2.69627908s.75266742-1.01800038 1.32303779-1.32303779 1.13612129-.46748223 2.69627908-.46748223zm-3.0132009 17.5c-.2761424 0-.5.2238576-.5.5v4c0 .2761424.2238576.5.5.5s.5-.2238576.5-.5v-4c0-.2761424-.2238576-.5-.5-.5zm-5.75460192 1h-.49079616c-.41295055 0-.58006181.0464128-.74302477.1335664-.16296296.0871535-.29085725.2150478-.3780108.3780107-.08715354.162963-.13356635.3300743-.13356635.7430248v1.4907962c0 .4129505.04641281.5800618.13356635.7430248.08715355.1629629.21504784.2908572.3780108.3780107.16296296.0871536.33007422.1335664.74302477.1335664h.49079616c.41295052 0 .58006182-.0464128.74302482-.1335664.1629629-.0871535.2908572-.2150478.3780107-.3780107.0871536-.162963.1335664-.3300743.1335664-.7430248v-1.4907962c0-.4129505-.0464128-.5800618-.1335664-.7430248-.0871535-.1629629-.2150478-.2908572-.3780107-.3780107-.162963-.0871536-.3300743-.1335664-.74302482-.1335664zm9.19071672-17h-13.8722296c-.89151874 0-1.21480498.09282561-1.5407309.2671327-.32592593.1743071-.5817145.43009567-.7560216.7560216-.17430709.32592592-.2671327.64921216-.2671327 1.5407309l-.00083918 1.44712932c.10970023-.00731612.22525567-.01101452.34746538-.01101452h.3067476c.68452206 0 1.16027592.11603201 1.56768333.33391588s.72714312.53761958.94502699.94502699c.11467572.21442495.20113763.44778244.25731835.72054509l1.32659753.00051204c.41421356 0 .75.33578644.75.75s-.33578644.75-.75.75h-1.25v1h1.25c.41421356 0 .75.3357864.75.75s-.33578644.75-.75.75h-1.25v1h1.25c.41421356 0 .75.3357864.75.75s-.33578644.75-.75.75l-1.26108093.0018333c-.03374137.5042596-.14396804.8847718-.32283495 1.2192238-.21788387.4074074-.53761958.7271432-.94502699.945027-.40740741.2178839-.88316127.3339159-1.56768333.3339159h-.3067476c-.12220971 0-.23776515-.0036984-.34746538-.0110145l.00083918 1.4471293c0 .8915187.09282561 1.214805.2671327 1.5407309.1743071.3259259.43009567.5817145.7560216.7560216.32592592.1743071.64921216.2671327 1.5407309.2671327h1.4361148v-.6533738c0-.6845221.11603201-1.1602759.33391588-1.5676833s.53761958-.7271432.94502699-.945027c.40740741-.2178839.88316127-.3339159 1.56768333-.3339159h.3067476c.6845221 0 1.1602759.116032 1.5676833.3339159.4074074.2178838.7271432.5376196.945027.945027.2178839.4074074.3339159.8831612.3339159 1.5676833v.6533738h1v-2.5c0-1.1045695.8954305-2 2-2s2 .8954305 2 2v2.5h1.4361148c.8915187 0 1.214805-.0928256 1.5407309-.2671327s.5817145-.4300957.7560216-.7560216.2671327-.6492122.2671327-1.5407309l.0023643-5.4529653c-.1605701.0111826-.3396997.0168505-.5422429.0168505h-.9202428c-.9164249 0-1.3535283-.116032-1.7609357-.3339159-.4074074-.2178838-.7271432-.5376196-.945027-.945027-.2178839-.4074074-.3339159-.8445108-.3339159-1.76093569v-.92024282c0-.91642493.116032-1.35352831.3339159-1.76093572.2178838-.40740741.5376196-.72714312.945027-.94502699s.8445108-.33391588 1.7609357-.33391588h.9202428c.2025432 0 .3816728.00566786.5422429.0168505l-.0023643-1.4529653c0-.89151874-.0928256-1.21480498-.2671327-1.5407309-.1743071-.32592593-.4300957-.5817145-.7560216-.7560216-.3259259-.17430709-.6492122-.2671327-1.5407309-.2671327zm.3138852 16c.4142136 0 .75.3357864.75.75s-.3357864.75-.75.75-.75-.3357864-.75-.75.3357864-.75.75-.75zm-14.5 0c.41421356 0 .75.3357864.75.75s-.33578644.75-.75.75-.75-.3357864-.75-.75.33578644-.75.75-.75zm-1.50460192-10.5h-.49079616c-.41295055 0-.58006181.04641281-.74302477.13356635-.16296296.08715355-.29085725.21504784-.3780108.3780108-.08715354.16296296-.13356635.33007422-.13356635.74302477v5.49079618c0 .4129505.04641281.5800618.13356635.7430248.08715355.1629629.21504784.2908572.3780108.3780107.16296296.0871536.33007422.1335664.74302477.1335664h.49079616c.41295055 0 .58006181-.0464128.74302477-.1335664.16296296-.0871535.29085725-.2150478.3780108-.3780107.08715354-.162963.13356635-.3300743.13356635-.7430248v-5.49079618c0-.41295055-.04641281-.58006181-.13356635-.74302477-.08715355-.16296296-.21504784-.29085725-.3780108-.3780108-.16296296-.08715354-.33007422-.13356635-.74302477-.13356635zm9.21472332.5c.9164249 0 1.3535283.11603201 1.7609357.33391588s.7271432.53761958.945027.94502699c.2178839.40740741.3339159.84451079.3339159 1.76093573v.9202428c0 .9164249-.116032 1.3535283-.3339159 1.7609357-.2178838.4074074-.5376196.7271432-.945027.945027-.4074074.2178839-.8445108.3339159-1.7609357.3339159h-.9202428c-.9164249 0-1.3535283-.116032-1.76093573-.3339159-.40740741-.2178838-.72714312-.5376196-.94502699-.945027s-.33391588-.8445108-.33391588-1.7609357v-.9202428c0-.91642494.11603201-1.35352832.33391588-1.76093573s.53761958-.72714312.94502699-.94502699c.40740743-.21788387.84451083-.33391588 1.76093573-.33391588zm.257936 1.5h-1.4361148c-.4457594 0-.6074025.04641281-.7703655.13356635-.1629629.08715355-.2908572.21504784-.3780107.3780108-.0871536.16296296-.1335664.32460608-.1335664.77036545v1.4361148c0 .4457594.0464128.6074025.1335664.7703655.0871535.1629629.2150478.2908572.3780107.3780107.162963.0871536.3246061.1335664.7703655.1335664h1.4361148c.4457594 0 .6074025-.0464128.7703655-.1335664.1629629-.0871535.2908572-.2150478.3780107-.3780107.0871536-.162963.1335664-.3246061.1335664-.7703655v-1.4361148c0-.44575937-.0464128-.60740249-.1335664-.77036545-.0871535-.16296296-.2150478-.29085725-.3780107-.3780108-.162963-.08715354-.3246061-.13356635-.7703655-.13356635zm8.5-2h-1.4361148c-.4457594 0-.6074025.04641281-.7703655.13356635-.1629629.08715355-.2908572.21504784-.3780107.3780108-.0871536.16296296-.1335664.32460608-.1335664.77036545v1.4361148c0 .4457594.0464128.6074025.1335664.7703655.0871535.1629629.2150478.2908572.3780107.3780107.162963.0871536.3246061.1335664.7703655.1335664h1.4361148c.4457594 0 .6074025-.0464128.7703655-.1335664.1629629-.0871535.2908572-.2150478.3780107-.3780107.0871536-.162963.1335664-.3246061.1335664-.7703655v-1.4361148c0-.44575937-.0464128-.60740249-.1335664-.77036545-.0871535-.16296296-.2150478-.29085725-.3780107-.3780108-.162963-.08715354-.3246061-.13356635-.7703655-.13356635zm-5.2180574-4c.2761424 0 .5.22385763.5.5v1.5c0 .27614237-.2238576.5-.5.5s-.5-.22385763-.5-.5v-1.5c0-.27614237.2238576-.5.5-.5zm-2 0c.2761424 0 .5.22385763.5.5v1.5c0 .27614237-.2238576.5-.5.5s-.5-.22385763-.5-.5v-1.5c0-.27614237.2238576-.5.5-.5zm-2 0c.2761424 0 .5.22385763.5.5v1.5c0 .27614237-.2238576.5-.5.5s-.5-.22385763-.5-.5v-1.5c0-.27614237.2238576-.5.5-.5zm-2 0c.2761424 0 .5.22385763.5.5v1.5c0 .27614237-.2238576.5-.5.5-.27614237 0-.5-.22385763-.5-.5v-1.5c0-.27614237.22385763-.5.5-.5zm-2 0c.27614237 0 .5.22385763.5.5v1.5c0 .27614237-.22385763.5-.5.5s-.5-.22385763-.5-.5v-1.5c0-.27614237.22385763-.5.5-.5zm11.25 0c.4142136 0 .75.33578644.75.75s-.3357864.75-.75.75-.75-.33578644-.75-.75.3357864-.75.75-.75zm-14.5 0c.41421356 0 .75.33578644.75.75s-.33578644.75-.75.75-.75-.33578644-.75-.75.33578644-.75.75-.75z" fill-rule="evenodd"/></svg>