<svg height="24" viewBox="0 0 24 24" width="24" xmlns="http://www.w3.org/2000/svg"><path d="m19.6626978.01802036c.3706541.08236757.6157692.42587428.5848361.7940058l-.0153936.10083234-.8531403 3.8371415 1.8390574.00016065c.5537485 0 .9389338.06101601 1.3161295.23112391l.1616342.07972265c.4243657.22695324.7663791.56896663.9933323.9933323.2311522.43221699.3108466.84490837.3108466 1.47776374v2.4361148c0 .63285535-.0796944 1.04554675-.3108466 1.47776375-.2269532.4243657-.5689666.7663791-.9933323.9933323-.4322169.2311522-.8449083.3108466-1.4777637.3108466h-18.4361148c-.63285538 0-1.04554676-.0796944-1.47776374-.3108466-.42436567-.2269532-.76637906-.5689666-.9933323-.9933323-.23115218-.432217-.31084656-.8449084-.31084656-1.47776375v-2.4361148c0-.63285537.07969438-1.04554675.31084656-1.47776374.22695324-.42436567.56896663-.76637906.9933323-.9933323.43221698-.23115218.84490836-.31084656 1.47776374-.31084656l1.8380574-.00016065-.8521403-3.8371415c-.08985553-.40434992.16509254-.8049826.56944246-.89483814.37065409-.08236758.73818467.12499566.86607742.47158059l.02876072.09786186.9248597 4.16253719h11.685l.9258597-4.16253719c.0898555-.40434992.4904882-.65929799.8948381-.56944245zm1.5553596 6.23214029h-18.4361148c-.44575937 0-.60740249.04641281-.77036545.13356636-.16296296.08715354-.29085725.21504783-.3780108.37801079-.08715354.16296296-.13356635.32460608-.13356635.77036545v2.4361148c0 .44575935.04641281.60740245.13356635.77036545.08715355.162963.21504784.2908573.3780108.3780108s.32460608.1335664.77036545.1335664h18.4361148c.4457594 0 .6074025-.0464129.7703655-.1335664.1629629-.0871535.2908572-.2150478.3780107-.3780108.0871536-.162963.1335664-.3246061.1335664-.77036545v-2.4361148c0-.44575937-.0464128-.60740249-.1335664-.77036545-.0871535-.16296296-.2150478-.29085725-.3780107-.37801079-.162963-.08715355-.3246061-.13356636-.7703655-.13356636zm-1.2180574 1.5c.5522847 0 1 .44771525 1 1s-.4477153 1-1 1-1-.44771525-1-1 .4477153-1 1-1zm-3 0c.5522847 0 1 .44771525 1 1s-.4477153 1-1 1-1-.44771525-1-1 .4477153-1 1-1z" transform="translate(0 6)"/></svg>