<svg height="24" viewBox="0 0 24 24" width="24" xmlns="http://www.w3.org/2000/svg"><path d="m11.9361148 0c1.0392637 0 1.6307101.11421358 2.2481292.44441291.5873286.31410679 1.0572363.78401446 1.3713431 1.3713431.3301993.61741907.4444129 1.2088655.4444129 2.24812919v15.8722296c0 1.0392637-.1142136 1.6307101-.4444129 2.2481292-.3141068.5873286-.7840145 1.0572363-1.3713431 1.3713431-.6174191.3301993-1.2088655.4444129-2.2481292.4444129h-7.8722296c-1.03926369 0-1.63071012-.1142136-2.24812919-.4444129-.58732864-.3141068-1.05723631-.7840145-1.3713431-1.3713431-.33019933-.6174191-.44441291-1.2088655-.44441291-2.2481292v-15.8722296c0-1.03926369.11421358-1.63071012.44441291-2.24812919.31410679-.58732864.78401446-1.05723631 1.3713431-1.3713431.61741907-.33019933 1.2088655-.44441291 2.24812919-.44441291zm2.4781778 21.0011211-12.82844518.000603c.0441376.1899144.10488445.3322645.18128528.4751216.1743071.3259259.43009567.5817145.7560216.7560216.32592592.1743071.64921216.2671327 1.5407309.2671327h7.8722296c.8915187 0 1.214805-.0928256 1.5407309-.2671327s.5817145-.4300957.7560216-.7560216c.0764817-.1430083.1372762-.2855084.1814253-.4757246zm-12.9132926-1.5011211h12.999v-15h-13zm11.499-2c.2761424 0 .5.2238576.5.5s-.2238576.5-.5.5-.5-.2238576-.5-.5.2238576-.5.5-.5zm-2 0c.2761424 0 .5.2238576.5.5s-.2238576.5-.5.5-.5-.2238576-.5-.5.2238576-.5.5-.5zm-2 0c.27614237 0 .5.2238576.5.5s-.22385763.5-.5.5-.5-.2238576-.5-.5.22385763-.5.5-.5zm-2 0c.27614237 0 .5.2238576.5.5s-.22385763.5-.5.5-.5-.2238576-.5-.5.22385763-.5.5-.5zm-2 0c.27614237 0 .5.2238576.5.5s-.22385763.5-.5.5-.5-.2238576-.5-.5.22385763-.5.5-.5zm-2 0c.27614237 0 .5.2238576.5.5s-.22385763.5-.5.5-.5-.2238576-.5-.5.22385763-.5.5-.5zm10-2c.2761424 0 .5.2238576.5.5s-.2238576.5-.5.5-.5-.2238576-.5-.5.2238576-.5.5-.5zm-2 0c.2761424 0 .5.2238576.5.5s-.2238576.5-.5.5-.5-.2238576-.5-.5.2238576-.5.5-.5zm-2 0c.27614237 0 .5.2238576.5.5s-.22385763.5-.5.5-.5-.2238576-.5-.5.22385763-.5.5-.5zm-2 0c.27614237 0 .5.2238576.5.5s-.22385763.5-.5.5-.5-.2238576-.5-.5.22385763-.5.5-.5zm-2 0c.27614237 0 .5.2238576.5.5s-.22385763.5-.5.5-.5-.2238576-.5-.5.22385763-.5.5-.5zm-2 0c.27614237 0 .5.2238576.5.5s-.22385763.5-.5.5-.5-.2238576-.5-.5.22385763-.5.5-.5zm10-2c.2761424 0 .5.2238576.5.5s-.2238576.5-.5.5-.5-.2238576-.5-.5.2238576-.5.5-.5zm-2 0c.2761424 0 .5.2238576.5.5s-.2238576.5-.5.5-.5-.2238576-.5-.5.2238576-.5.5-.5zm-2 0c.27614237 0 .5.2238576.5.5s-.22385763.5-.5.5-.5-.2238576-.5-.5.22385763-.5.5-.5zm-2 0c.27614237 0 .5.2238576.5.5s-.22385763.5-.5.5-.5-.2238576-.5-.5.22385763-.5.5-.5zm-2 0c.27614237 0 .5.2238576.5.5s-.22385763.5-.5.5-.5-.2238576-.5-.5.22385763-.5.5-.5zm-2 0c.27614237 0 .5.2238576.5.5s-.22385763.5-.5.5-.5-.2238576-.5-.5.22385763-.5.5-.5zm10-2c.2761424 0 .5.2238576.5.5s-.2238576.5-.5.5-.5-.2238576-.5-.5.2238576-.5.5-.5zm-2 0c.2761424 0 .5.2238576.5.5s-.2238576.5-.5.5-.5-.2238576-.5-.5.2238576-.5.5-.5zm-2 0c.27614237 0 .5.2238576.5.5s-.22385763.5-.5.5-.5-.2238576-.5-.5.22385763-.5.5-.5zm-2 0c.27614237 0 .5.2238576.5.5s-.22385763.5-.5.5-.5-.2238576-.5-.5.22385763-.5.5-.5zm-2 0c.27614237 0 .5.2238576.5.5s-.22385763.5-.5.5-.5-.2238576-.5-.5.22385763-.5.5-.5zm-2 0c.27614237 0 .5.2238576.5.5s-.22385763.5-.5.5-.5-.2238576-.5-.5.22385763-.5.5-.5zm10-2c.2761424 0 .5.22385763.5.5 0 .2761424-.2238576.5-.5.5s-.5-.2238576-.5-.5c0-.27614237.2238576-.5.5-.5zm-2 0c.2761424 0 .5.22385763.5.5 0 .2761424-.2238576.5-.5.5s-.5-.2238576-.5-.5c0-.27614237.2238576-.5.5-.5zm-2 0c.27614237 0 .5.22385763.5.5 0 .2761424-.22385763.5-.5.5s-.5-.2238576-.5-.5c0-.27614237.22385763-.5.5-.5zm-2 0c.27614237 0 .5.22385763.5.5 0 .2761424-.22385763.5-.5.5s-.5-.2238576-.5-.5c0-.27614237.22385763-.5.5-.5zm-2 0c.27614237 0 .5.22385763.5.5 0 .2761424-.22385763.5-.5.5s-.5-.2238576-.5-.5c0-.27614237.22385763-.5.5-.5zm-2 0c.27614237 0 .5.22385763.5.5 0 .2761424-.22385763.5-.5.5s-.5-.2238576-.5-.5c0-.27614237.22385763-.5.5-.5zm10-2c.2761424 0 .5.22385763.5.5s-.2238576.5-.5.5-.5-.22385763-.5-.5.2238576-.5.5-.5zm-2 0c.2761424 0 .5.22385763.5.5s-.2238576.5-.5.5-.5-.22385763-.5-.5.2238576-.5.5-.5zm-2 0c.27614237 0 .5.22385763.5.5s-.22385763.5-.5.5-.5-.22385763-.5-.5.22385763-.5.5-.5zm-2 0c.27614237 0 .5.22385763.5.5s-.22385763.5-.5.5-.5-.22385763-.5-.5.22385763-.5.5-.5zm-2 0c.27614237 0 .5.22385763.5.5s-.22385763.5-.5.5-.5-.22385763-.5-.5.22385763-.5.5-.5zm-2 0c.27614237 0 .5.22385763.5.5s-.22385763.5-.5.5-.5-.22385763-.5-.5.22385763-.5.5-.5zm10-2c.2761424 0 .5.22385763.5.5s-.2238576.5-.5.5-.5-.22385763-.5-.5.2238576-.5.5-.5zm-2 0c.2761424 0 .5.22385763.5.5s-.2238576.5-.5.5-.5-.22385763-.5-.5.2238576-.5.5-.5zm-2 0c.27614237 0 .5.22385763.5.5s-.22385763.5-.5.5-.5-.22385763-.5-.5.22385763-.5.5-.5zm-2 0c.27614237 0 .5.22385763.5.5s-.22385763.5-.5.5-.5-.22385763-.5-.5.22385763-.5.5-.5zm-2 0c.27614237 0 .5.22385763.5.5s-.22385763.5-.5.5-.5-.22385763-.5-.5.22385763-.5.5-.5zm-2 0c.27614237 0 .5.22385763.5.5s-.22385763.5-.5.5-.5-.22385763-.5-.5.22385763-.5.5-.5zm8.9361148-4-8.06813757.00164263c-.74536273.01312037-1.04396823.10459122-1.34482293.26549007-.32592593.1743071-.5817145.43009567-.7560216.7560216-.0766185.14326414-.13749369.28601826-.18166212.47674594h12.82905882c-.0441684-.19072768-.1050436-.3334818-.1816621-.47674594-.1743071-.32592593-.4300957-.5817145-.7560216-.7560216-.3259259-.17430709-.6492122-.2671327-1.5407309-.2671327z" fill-rule="evenodd" transform="translate(4)"/></svg>