<svg height="24" viewBox="0 0 24 24" width="24" xmlns="http://www.w3.org/2000/svg"><path d="m20.5770861 0c.8360595 0 1.3381284.09695398 1.8629465.37762973.5058471.27053002.9118077.67649055 1.1823377 1.1823377.2806757.52481803.3776297 1.02688694.3776297 1.86294647v5.1541722c0 .83605953-.096954 1.33812844-.3776297 1.8629465-.27053.5058471-.6764906.9118077-1.1823377 1.1823377-.5248181.2806757-1.026887.3776297-1.8629465.3776297h-17.1541722c-.83605953 0-1.33812844-.096954-1.86294647-.3776297-.50584715-.27053-.91180768-.6764906-1.1823377-1.1823377-.28067575-.52481806-.37762973-1.02688697-.37762973-1.8629465v-5.1541722c0-.83605953.09695398-1.33812844.37762973-1.86294647.27053002-.50584715.67649055-.91180768 1.1823377-1.1823377.52481803-.28067575 1.02688694-.37762973 1.86294647-.37762973zm0 1.5-17.32628368.0017197c-.54062842.01144339-.76121448.07978408-.9834367.19862983-.24444444.13073032-.43628587.32257175-.56701619.56701619-.13073032.24444445-.20034953.48690913-.20034953 1.15554818l.0017197 5.32628368c.01144339.54062842.07978408.76121448.19862983.9834367.13073032.24444444.32257175.43628592.56701619.56701622.24444445.1307303.48690913.2003495 1.15554818.2003495h17.1541722c.6686391 0 .9111037-.0696192 1.1555482-.2003495.2444444-.1307303.4362859-.32257178.5670162-.56701622.1307303-.24444445.2003495-.48690913.2003495-1.15554818v-5.1541722c0-.66863905-.0696192-.91110373-.2003495-1.15554818-.1307303-.24444444-.3225718-.43628587-.5670162-.56701619-.2444445-.13073032-.4869091-.20034953-1.1555482-.20034953zm-1.3270861 5c.1380712 0 .25.11192881.25.25v.5c0 .13807119-.1119288.25-.25.25h-.5c-.1380712 0-.25-.11192881-.25-.25v-.5c0-.13807119.1119288-.25.25-.25zm-2 0c.1380712 0 .25.11192881.25.25v.5c0 .13807119-.1119288.25-.25.25h-.5c-.1380712 0-.25-.11192881-.25-.25v-.5c0-.13807119.1119288-.25.25-.25zm-2 0c.1380712 0 .25.11192881.25.25v.5c0 .13807119-.1119288.25-.25.25h-.5c-.1380712 0-.25-.11192881-.25-.25v-.5c0-.13807119.1119288-.25.25-.25zm-2 0c.1380712 0 .25.11192881.25.25v.5c0 .13807119-.1119288.25-.25.25h-.5c-.1380712 0-.25-.11192881-.25-.25v-.5c0-.13807119.1119288-.25.25-.25zm-2 0c.1380712 0 .25.11192881.25.25v.5c0 .13807119-.1119288.25-.25.25h-.5c-.1380712 0-.25-.11192881-.25-.25v-.5c0-.13807119.1119288-.25.25-.25zm-2 0c.13807119 0 .25.11192881.25.25v.5c0 .13807119-.11192881.25-.25.25h-.5c-.13807119 0-.25-.11192881-.25-.25v-.5c0-.13807119.11192881-.25.25-.25zm-2 0c.13807119 0 .25.11192881.25.25v.5c0 .13807119-.11192881.25-.25.25h-.5c-.13807119 0-.25-.11192881-.25-.25v-.5c0-.13807119.11192881-.25.25-.25zm-2 0c.13807119 0 .25.11192881.25.25v.5c0 .13807119-.11192881.25-.25.25h-.5c-.13807119 0-.25-.11192881-.25-.25v-.5c0-.13807119.11192881-.25.25-.25zm14-2c.1380712 0 .25.11192881.25.25v.5c0 .13807119-.1119288.25-.25.25h-.5c-.1380712 0-.25-.11192881-.25-.25v-.5c0-.13807119.1119288-.25.25-.25zm-2 0c.1380712 0 .25.11192881.25.25v.5c0 .13807119-.1119288.25-.25.25h-.5c-.1380712 0-.25-.11192881-.25-.25v-.5c0-.13807119.1119288-.25.25-.25zm-2 0c.1380712 0 .25.11192881.25.25v.5c0 .13807119-.1119288.25-.25.25h-.5c-.1380712 0-.25-.11192881-.25-.25v-.5c0-.13807119.1119288-.25.25-.25zm-2 0c.1380712 0 .25.11192881.25.25v.5c0 .13807119-.1119288.25-.25.25h-.5c-.1380712 0-.25-.11192881-.25-.25v-.5c0-.13807119.1119288-.25.25-.25zm-2 0c.1380712 0 .25.11192881.25.25v.5c0 .13807119-.1119288.25-.25.25h-.5c-.1380712 0-.25-.11192881-.25-.25v-.5c0-.13807119.1119288-.25.25-.25zm-2 0c.13807119 0 .25.11192881.25.25v.5c0 .13807119-.11192881.25-.25.25h-.5c-.13807119 0-.25-.11192881-.25-.25v-.5c0-.13807119.11192881-.25.25-.25zm-2 0c.13807119 0 .25.11192881.25.25v.5c0 .13807119-.11192881.25-.25.25h-.5c-.13807119 0-.25-.11192881-.25-.25v-.5c0-.13807119.11192881-.25.25-.25zm-2 0c.13807119 0 .25.11192881.25.25v.5c0 .13807119-.11192881.25-.25.25h-.5c-.13807119 0-.25-.11192881-.25-.25v-.5c0-.13807119.11192881-.25.25-.25z" transform="translate(0 6)"/></svg>