<svg height="24" viewBox="0 0 24 24" width="24" xmlns="http://www.w3.org/2000/svg"><path d="m13.9361148 0h-9.8722296c-1.03926369 0-1.63071012.11421358-2.24812919.44441291-.58732864.31410679-1.05723631.78401446-1.3713431 1.3713431-.33019933.61741907-.44441291 1.2088655-.44441291 2.24812919v15.8722296c0 1.0392637.11421358 1.6307101.44441291 2.2481292.31410679.5873286.78401446 1.0572363 1.3713431 1.3713431.61741907.3301993 1.2088655.4444129 2.24812919.4444129h9.8722296c1.0392637 0 1.6307101-.1142136 2.2481292-.4444129.5873286-.3141068 1.0572363-.7840145 1.3713431-1.3713431.3301993-.6174191.4444129-1.2088655.4444129-2.2481292v-15.8722296c0-1.03926369-.1142136-1.63071012-.4444129-2.24812919-.3141068-.58732864-.7840145-1.05723631-1.3713431-1.3713431-.6174191-.33019933-1.2088655-.44441291-2.2481292-.44441291zm0 1.5c.8915187 0 1.214805.09282561 1.5407309.2671327.3259259.1743071.5817145.43009567.7560216.7560216.1743071.32592592.2671327.64921216.2671327 1.5407309v15.8722296c0 .8915187-.0928256 1.214805-.2671327 1.5407309s-.4300957.5817145-.7560216.7560216-.6492122.2671327-1.5407309.2671327h-9.8722296c-.89151874 0-1.21480498-.0928256-1.5407309-.2671327-.32592593-.1743071-.5817145-.4300957-.7560216-.7560216-.16089885-.3008547-.2523697-.5994602-.26549007-1.3448229l-.00164263-16.0681376c0-.89151874.09282561-1.21480498.2671327-1.5407309.1743071-.32592593.43009567-.5817145.7560216-.7560216.3008547-.16089885.5994602-.2523697 1.34482293-.26549007z" fill-rule="evenodd" transform="translate(3)"/></svg>