<svg height="24" viewBox="0 0 24 24" width="24" xmlns="http://www.w3.org/2000/svg"><path d="m11 16v1h2v-1zm10.2180574-14.5h-18.4361148c-.44575937 0-.60740249.04641281-.77036545.13356635-.16296296.08715355-.29085725.21504784-.3780108.3780108-.08715354.16296296-.13356635.32460608-.13356635.77036545v10.4361148c0 .4457594.04641281.6074025.13356635.7703655.08715355.1629629.21504784.2908572.3780108.3780107.16296296.0871536.32460608.1335664.77036545.1335664h18.4361148c.4457594 0 .6074025-.0464128.7703655-.1335664.1629629-.0871535.2908572-.2150478.3780107-.3780107.0871536-.162963.1335664-.3246061.1335664-.7703655v-10.4361148c0-.44575937-.0464128-.60740249-.1335664-.77036545-.0871535-.16296296-.2150478-.29085725-.3780107-.3780108-.162963-.08715354-.3246061-.13356635-.7703655-.13356635zm-6.7180574 17h2.75c.4142136 0 .75.3357864.75.75s-.3357864.75-.75.75h-10.5c-.41421356 0-.75-.3357864-.75-.75s.33578644-.75.75-.75h2.75v-2.5h-6.2951435c-1.11439842 0-1.51850622-.116032-1.92591363-.3339159-.40740741-.2178838-.72714312-.5376196-.94502699-.945027s-.33391588-.8115152-.33391588-1.9259136v-9.590287c0-1.11439842.11603201-1.51850622.33391588-1.92591363s.53761958-.72714312.94502699-.94502699.81151521-.33391588 1.92591363-.33391588h17.590287c1.1143984 0 1.5185062.11603201 1.9259136.33391588s.7271432.53761958.945027.94502699c.2178839.40740741.3339159.81151521.3339159 1.92591363v9.590287c0 1.1143984-.116032 1.5185062-.3339159 1.9259136-.2178838.4074074-.5376196.7271432-.945027.945027-.4074074.2178839-.8115152.3339159-1.9259136.3339159h-6.2951435z" fill-rule="evenodd" transform="translate(0 2)"/></svg>