<svg height="24" viewBox="0 0 24 24" width="24" xmlns="http://www.w3.org/2000/svg"><path d="m6.5 0c3.5898509 0 6.5 2.91014913 6.5 6.5v11c0 3.5898509-2.9101491 6.5-6.5 6.5-3.58985087 0-6.5-2.9101491-6.5-6.5v-11c0-3.58985087 2.91014913-6.5 6.5-6.5zm0 1.5c-2.76142375 0-5 2.23857625-5 5v11c0 2.7614237 2.23857625 5 5 5s5-2.2385763 5-5v-11c0-2.76142375-2.23857625-5-5-5zm0 16c1.93299662 0 3.5.8954305 3.5 2s-1.56700338 2.25-3.5 2.25-3.5-1.1454305-3.5-2.25 1.56700338-2 3.5-2zm0-15c2.209139 0 4 1.790861 4 4v5c0 2.209139-1.790861 4-4 4s-4-1.790861-4-4v-5c0-2.209139 1.790861-4 4-4zm0 1c-1.65685425 0-3 1.34314575-3 3v5c0 1.6568542 1.34314575 3 3 3s3-1.3431458 3-3v-5c0-1.65685425-1.34314575-3-3-3zm0 9c.27614237 0 .5.2238576.5.5s-.22385763.5-.5.5-.5-.2238576-.5-.5.22385763-.5.5-.5zm1-1c.27614237 0 .5.2238576.5.5s-.22385763.5-.5.5-.5-.2238576-.5-.5.22385763-.5.5-.5zm-2 0c.27614237 0 .5.2238576.5.5s-.22385763.5-.5.5-.5-.2238576-.5-.5.22385763-.5.5-.5zm3-1c.27614237 0 .5.2238576.5.5s-.22385763.5-.5.5-.5-.2238576-.5-.5.22385763-.5.5-.5zm-4 0c.27614237 0 .5.2238576.5.5s-.22385763.5-.5.5-.5-.2238576-.5-.5.22385763-.5.5-.5zm2 0c.27614237 0 .5.2238576.5.5s-.22385763.5-.5.5-.5-.2238576-.5-.5.22385763-.5.5-.5zm1-1c.27614237 0 .5.22385763.5.5 0 .2761424-.22385763.5-.5.5s-.5-.2238576-.5-.5c0-.27614237.22385763-.5.5-.5zm-2 0c.27614237 0 .5.22385763.5.5 0 .2761424-.22385763.5-.5.5s-.5-.2238576-.5-.5c0-.27614237.22385763-.5.5-.5zm3-1c.27614237 0 .5.22385763.5.5s-.22385763.5-.5.5-.5-.22385763-.5-.5.22385763-.5.5-.5zm-2 0c.27614237 0 .5.22385763.5.5s-.22385763.5-.5.5-.5-.22385763-.5-.5.22385763-.5.5-.5zm-2 0c.27614237 0 .5.22385763.5.5s-.22385763.5-.5.5-.5-.22385763-.5-.5.22385763-.5.5-.5zm3-1c.27614237 0 .5.22385763.5.5s-.22385763.5-.5.5-.5-.22385763-.5-.5.22385763-.5.5-.5zm-2 0c.27614237 0 .5.22385763.5.5s-.22385763.5-.5.5-.5-.22385763-.5-.5.22385763-.5.5-.5zm1-1c.27614237 0 .5.22385763.5.5s-.22385763.5-.5.5-.5-.22385763-.5-.5.22385763-.5.5-.5zm2 0c.27614237 0 .5.22385763.5.5s-.22385763.5-.5.5-.5-.22385763-.5-.5.22385763-.5.5-.5zm-4 0c.27614237 0 .5.22385763.5.5s-.22385763.5-.5.5-.5-.22385763-.5-.5.22385763-.5.5-.5zm3-1c.27614237 0 .5.22385763.5.5s-.22385763.5-.5.5-.5-.22385763-.5-.5.22385763-.5.5-.5zm-2 0c.27614237 0 .5.22385763.5.5s-.22385763.5-.5.5-.5-.22385763-.5-.5.22385763-.5.5-.5zm1-1c.27614237 0 .5.22385763.5.5s-.22385763.5-.5.5-.5-.22385763-.5-.5.22385763-.5.5-.5z" transform="translate(5.5)"/></svg>