<svg height="24" viewBox="0 0 24 24" width="24" xmlns="http://www.w3.org/2000/svg"><path d="m19.9361148 0c1.0392637 0 1.6307101.11421358 2.2481292.44441291.5873286.31410679 1.0572363.78401446 1.3713431 1.3713431.3301993.61741907.4444129 1.2088655.4444129 2.24812919v3.8722296c0 1.03926369-.1142136 1.63071012-.4444129 2.2481292-.3141068.5873286-.7840145 1.0572363-1.3713431 1.3713431-.6174191.3301993-1.2088655.4444129-2.2481292.4444129h-15.8722296c-1.03926369 0-1.63071012-.1142136-2.24812919-.4444129-.58732864-.3141068-1.05723631-.7840145-1.3713431-1.3713431-.33019933-.61741908-.44441291-1.20886551-.44441291-2.2481292v-3.8722296c0-1.03926369.11421358-1.63071012.44441291-2.24812919.31410679-.58732864.78401446-1.05723631 1.3713431-1.3713431.61741907-.33019933 1.2088655-.44441291 2.24812919-.44441291zm-10.6861148 1.501-5.38202277.00064263c-.74536273.01312037-1.04396823.10459122-1.34482293.26549007-.32592593.1743071-.5817145.43009567-.7560216.7560216-.17430709.32592592-.2671327.64921216-.2671327 1.5407309l.00164263 4.06813757c.01312037.74536273.10459122 1.04396823.26549007 1.34482293.1743071.32592593.43009567.5817145.7560216.7560216.32592592.1743071.64921216.2671327 1.5407309.2671327h5.1861148zm10.6861148-.001-9.1861148.001v8.999h9.1861148c.8915187 0 1.214805-.0928256 1.5407309-.2671327s.5817145-.43009567.7560216-.7560216c.1743071-.32592592.2671327-.64921216.2671327-1.5407309v-3.8722296c0-.89151874-.0928256-1.21480498-.2671327-1.5407309-.1743071-.32592593-.4300957-.5817145-.7560216-.7560216-.3259259-.17430709-.6492122-.2671327-1.5407309-.2671327zm-1.7213915 2.5c.5034744 0 .7734665.06961921 1.017911.20034953.2444444.13073032.4362859.32257175.5670162.56701619.1307303.24444445.2003495.51443657.2003495 1.01791096v.42944664c0 .50347439-.0696192.77346651-.2003495 1.01791096-.1307303.24444444-.3225718.43628587-.5670162.56701619-.2444445.13073032-.5144366.20034953-1.017911.20034953h-3.4294466c-.5034744 0-.7734665-.06961921-1.017911-.20034953-.2444444-.13073032-.4362859-.32257175-.5670162-.56701619-.1307303-.24444445-.2003495-.51443657-.2003495-1.01791096v-.42944664c0-.50347439.0696192-.77346651.2003495-1.01791096.1307303-.24444444.3225718-.43628587.5670162-.56701619.2444445-.13073032.5144366-.20034953 1.017911-.20034953z" transform="translate(0 6)"/></svg>