<svg height="24" viewBox="0 0 24 24" width="24" xmlns="http://www.w3.org/2000/svg"><path d="m15.9361148 0c1.0392637 0 1.6307101.11421358 2.2481292.44441291.5873286.31410679 1.0572363.78401446 1.3713431 1.3713431.3301993.61741907.4444129 1.2088655.4444129 2.24812919v10.8722296c0 1.0392637-.1142136 1.6307101-.4444129 2.2481292-.279206.5220699-.681514.9513627-1.1799685 1.2609231l-.1886186.1078329-.830269 2.9085239c-.411414 1.439949-1.6898456 2.4513393-3.1710394 2.5331219l-.1942944.0053542h-7.98279437c-1.56268126 0-2.93603226-1.0359206-3.36533382-2.5384761l-.83058695-2.9075828c-.58589438-.3141013-1.05471054-.7833935-1.36826915-1.3696971-.33019933-.6174191-.44441291-1.2088655-.44441291-2.2481292v-10.8722296c0-1.03926369.11421358-1.63071012.44441291-2.24812919.31410679-.58732864.78401446-1.05723631 1.3713431-1.3713431.61741907-.33019933 1.2088655-.44441291 2.24812919-.44441291zm.5638852 19h-13l.58555493 2.0494423.05221307.1577838c.29162122.7725013 1.03368415 1.2927739 1.87083483 1.2927739h7.98279437l.166057-.0068575c.8228929-.0681784 1.5270079-.6387598 1.7569909-1.4437002zm-.5638852-17.5-12.06813757.00164263c-.74536273.01312037-1.04396823.10459122-1.34482293.26549007-.32592593.1743071-.5817145.43009567-.7560216.7560216-.17430709.32592592-.2671327.64921216-.2671327 1.5407309v10.8722296c0 .8915187.09282561 1.214805.2671327 1.5407309.1743071.3259259.43009567.5817145.7560216.7560216.32592592.1743071.64921216.2671327 1.5407309.2671327h11.8722296c.8915187 0 1.214805-.0928256 1.5407309-.2671327s.5817145-.4300957.7560216-.7560216.2671327-.6492122.2671327-1.5407309v-10.8722296c0-.89151874-.0928256-1.21480498-.2671327-1.5407309-.1743071-.32592593-.4300957-.5817145-.7560216-.7560216-.3259259-.17430709-.6492122-.2671327-1.5407309-.2671327zm-1.4361148 11.5c.5522847 0 1 .4477153 1 1s-.4477153 1-1 1-1-.4477153-1-1 .4477153-1 1-1zm-3 0c.5522847 0 1 .4477153 1 1s-.4477153 1-1 1-1-.4477153-1-1 .4477153-1 1-1zm-3 0c.55228475 0 1 .4477153 1 1s-.44771525 1-1 1-1-.4477153-1-1 .44771525-1 1-1zm-3 0c.55228475 0 1 .4477153 1 1s-.44771525 1-1 1-1-.4477153-1-1 .44771525-1 1-1z" transform="translate(2)"/></svg>