<svg height="24" viewBox="0 0 24 24" width="24" xmlns="http://www.w3.org/2000/svg"><path d="m12 0c6.627417 0 12 5.372583 12 12s-5.372583 12-12 12-12-5.372583-12-12 5.372583-12 12-12zm0 1.5c-5.79898987 0-10.5 4.70101013-10.5 10.5 0 5.7989899 4.70101013 10.5 10.5 10.5 5.7989899 0 10.5-4.7010101 10.5-10.5 0-5.79898987-4.7010101-10.5-10.5-10.5zm0 5.5c2.7614237 0 5 2.23857625 5 5 0 2.7614237-2.2385763 5-5 5-2.76142375 0-5-2.2385763-5-5 0-2.76142375 2.23857625-5 5-5zm0 1.5c-1.9329966 0-3.5 1.5670034-3.5 3.5s1.5670034 3.5 3.5 3.5 3.5-1.5670034 3.5-3.5-1.5670034-3.5-3.5-3.5z"/></svg>