<svg height="32" viewBox="0 0 32 32" width="32" xmlns="http://www.w3.org/2000/svg"><path d="m18.7444592-1.5c3.4777136 0 5.1416903.32132874 6.8703219 1.24581102 1.5651064.83702807 2.8023798 2.07430146 3.6394079 3.63940788.9244823 1.72863157 1.245811 3.39260834 1.245811 6.8703219v8.4889184c0 3.4777136-.3213287 5.1416903-1.245811 6.8703219-.8370281 1.5651064-2.0743015 2.8023798-3.6394079 3.6394079-1.7286316.9244823-3.3926083 1.245811-6.8703219 1.245811h-8.4889184c-3.47771356 0-5.14169033-.3213287-6.8703219-1.245811-1.56510642-.8370281-2.80237981-2.0743015-3.63940788-3.6394079-.92448228-1.7286316-1.24581102-3.3926083-1.24581102-6.8703219v-8.4889184c0-3.47771356.32132874-5.14169033 1.24581102-6.8703219.83702807-1.56510642 2.07430146-2.80237981 3.63940788-3.63940788 1.72863157-.92448228 3.39260834-1.24581102 6.8703219-1.24581102zm0 1.5h-8.4889184c-3.56607496 0-4.85921991.37130245-6.16292361 1.06853082-1.30370371.69722837-2.326858 1.72038266-3.02408637 3.02408637-.69722837 1.3037037-1.06853082 2.59684865-1.06853082 6.16292361v8.4889184c0 3.566075.37130245 4.8592199 1.06853082 6.1629236s1.72038266 2.326858 3.02408637 3.0240864c1.3037037.6972284 2.59684865 1.0685308 6.16292361 1.0685308h8.4889184c3.566075 0 4.8592199-.3713024 6.1629236-1.0685308s2.326858-1.7203827 3.0240864-3.0240864 1.0685308-2.5968486 1.0685308-6.1629236v-8.4889184c0-3.56607496-.3713024-4.85921991-1.0685308-6.16292361-.6972284-1.30370371-1.7203827-2.326858-3.0240864-3.02408637s-2.5968486-1.06853082-6.1629236-1.06853082zm-4.2444592 17.75c1.1349064 0 2.0231694.1973918 2.6660251.6259623.3446466.2297643.437777.6954163.2080126 1.0400628-.2297643.3446466-.6954163.437777-1.0400628.2080126-.3571443-.2380961-.9688813-.3740377-1.8339749-.3740377s-1.4768306.1359416-1.8339749.3740377c-.3446465.2297644-.8102985.136634-1.0400628-.2080126-.2297644-.3446465-.136634-.8102985.2080126-1.0400628.6428557-.4285705 1.5311187-.6259623 2.6660251-.6259623zm0-4.5c1.6671261 0 3.2403324.5552493 4.7 1.65.3313708.2485281.3985281.7186292.15 1.05s-.7186292.3985281-1.05.15c-1.2069991-.9052493-2.4671261-1.35-3.8-1.35s-2.5930009.4447507-3.8 1.35c-.3313708.2485281-.80147186.1813708-1.05-.15s-.18137085-.8014719.15-1.05c1.4596676-1.0947507 3.0328739-1.65 4.7-1.65zm0-4.5c3.0321489 0 5.6396093 1.0789491 7.7803301 3.2196699.2928932.2928932.2928932.767767 0 1.0606602s-.767767.2928932-1.0606602 0c-1.8592792-1.8592792-4.0851522-2.7803301-6.7196699-2.7803301s-4.86039073.9210509-6.71966991 2.7803301c-.29289322.2928932-.76776696.2928932-1.06066018 0-.29289321-.2928932-.29289321-.767767 0-1.0606602 2.14072082-2.1407208 4.74818119-3.2196699 7.78033009-3.2196699z" transform="translate(1.5 1.5)"/></svg>