<svg height="32" viewBox="0 0 32 32" width="32" xmlns="http://www.w3.org/2000/svg"><path d="m16 0c8.836556 0 16 7.163444 16 16s-7.163444 16-16 16-16-7.163444-16-16 7.163444-16 16-16zm0 1.5c-8.00812887 0-14.5 6.49187113-14.5 14.5 0 8.0081289 6.49187113 14.5 14.5 14.5 8.0081289 0 14.5-6.4918711 14.5-14.5 0-8.00812887-6.4918711-14.5-14.5-14.5zm0 3.5c6.0751322 0 11 4.92486775 11 11 0 6.0751322-4.9248678 11-11 11-6.07513225 0-11-4.9248678-11-11 0-6.07513225 4.92486775-11 11-11zm0 1c-5.5228475 0-10 4.4771525-10 10s4.4771525 10 10 10 10-4.4771525 10-10-4.4771525-10-10-10zm0 13c1.1045695 0 2 .8954305 2 2s-.8954305 2-2 2-2-.8954305-2-2 .8954305-2 2-2zm5-5c1.1045695 0 2 .8954305 2 2s-.8954305 2-2 2-2-.8954305-2-2 .8954305-2 2-2zm-10 0c1.1045695 0 2 .8954305 2 2s-.8954305 2-2 2-2-.8954305-2-2 .8954305-2 2-2zm5-5c1.1045695 0 2 .8954305 2 2s-.8954305 2-2 2-2-.8954305-2-2 .8954305-2 2-2z"/></svg>