<svg height="32" viewBox="0 0 32 32" width="32" xmlns="http://www.w3.org/2000/svg"><path d="m20.2444592 0c3.4777136 0 5.1416903.32132874 6.8703219 1.24581102 1.5651064.83702807 2.8023798 2.07430146 3.6394079 3.63940788.9244823 1.72863157 1.245811 3.39260834 1.245811 6.8703219v8.4889184c0 3.4777136-.3213287 5.1416903-1.245811 6.8703219-.8370281 1.5651064-2.0743015 2.8023798-3.6394079 3.6394079-1.7286316.9244823-3.3926083 1.245811-6.8703219 1.245811h-8.4889184c-3.47771356 0-5.14169033-.3213287-6.8703219-1.245811-1.56510642-.8370281-2.80237981-2.0743015-3.63940788-3.6394079-.92448228-1.7286316-1.24581102-3.3926083-1.24581102-6.8703219v-8.4889184c0-3.47771356.32132874-5.14169033 1.24581102-6.8703219.83702807-1.56510642 2.07430146-2.80237981 3.63940788-3.63940788 1.72863157-.92448228 3.39260834-1.24581102 6.8703219-1.24581102zm0 1.5h-8.4889184c-3.56607496 0-4.85921991.37130244-6.16292361 1.06853082-1.30370371.69722837-2.326858 1.72038266-3.02408637 3.02408637-.69722838 1.3037037-1.06853082 2.59684865-1.06853082 6.16292361v8.4889184c0 3.566075.37130244 4.8592199 1.06853082 6.1629236.69722837 1.3037037 1.72038266 2.326858 3.02408637 3.0240864 1.3037037.6972284 2.59684865 1.0685308 6.16292361 1.0685308h8.4889184c3.566075 0 4.8592199-.3713024 6.1629236-1.0685308s2.326858-1.7203827 3.0240864-3.0240864 1.0685308-2.5968486 1.0685308-6.1629236v-8.4889184c0-3.56607496-.3713024-4.85921991-1.0685308-6.16292361-.6972284-1.30370371-1.7203827-2.326858-3.0240864-3.02408637-1.3037037-.69722838-2.5968486-1.06853082-6.1629236-1.06853082zm-8.4456311 11.5361328c.1002604 0 .2711589.0159505.5126953.0478516.2415365.031901.5069987.1219075.7963868.2700195.289388.148112.5525716.3930664.7895507.7348633-.0136718.0136719-.0797526.0626627-.1982421.1469726-.1184896.0843099-.2506511.2073568-.3964844.3691407-.1458334.1617838-.2734375.3668619-.3828125.6152343s-.1640625.5434571-.1640625.885254c0 .391927.0694987.7246093.2084961.9980468s.3007812.4933268.4853515.659668c.1845703.1663411.3486328.2882487.4921875.3657226.1435547.077474.2198894.1184896.2290039.1230469-.0045573.0182292-.0626627.180013-.1743164.4853516-.1116536.3053385-.2950846.6448568-.5502929 1.0185547-.2233073.3235677-.4637045.6220703-.7211914.8955078-.257487.2734375-.5662435.4101562-.9262696.4101562-.2415364 0-.4397786-.035319-.5947265-.105957-.154948-.070638-.3144532-.141276-.4785157-.2119141-.1640625-.070638-.3850911-.105957-.6630859-.105957-.26888021 0-.49332682.0364583-.67333984.109375s-.35091146.1458333-.51269532.21875c-.16178385.0729167-.35205078.109375-.57080078.109375-.33268229 0-.62434896-.1321614-.875-.3964844-.25065104-.2643229-.50813802-.5810547-.77246094-.9501953-.30533854-.4375-.56624348-.9718424-.78271484-1.6030273-.21647135-.6311849-.32470703-1.2680664-.32470703-1.9106445 0-.6881511.12988281-1.2657878.38964844-1.7329102.25976562-.4671224.59358724-.8203125 1.00146484-1.0595703.40787761-.2392578.83056641-.3588867 1.26806641-.3588867.23242187 0 .45117187.0375976.65625.1127929.20507812.0751953.3976237.15153.57763672.2290039.18001302.077474.34293619.116211.48876953.116211.14127601 0 .30533851-.0410156.49218751-.1230469.1868489-.0820313.3964844-.1629232.6289062-.2426758.2324219-.0797526.4807943-.1196289.7451172-.1196289zm6.5827637-.6943359v1.6694336h1.4440918v1.3964843h-1.4440918v3.2817383c0 .3131511.0714111.5427246.2142334.6887207s.3708089.2189942.68396.2189942c.1184895 0 .2168782-.0026449.295166-.0079346.0782877-.0052897.1618652-.0121663.2507324-.0206299v1.3774414c-.1142578.0211589-.2523193.0396729-.4141846.055542-.1618652.0158692-.332723.0238037-.5125732.0238037-.8484701 0-1.458903-.1486409-1.8312988-.4459228-.3723959-.2972819-.5585938-.7844645-.5585938-1.4615479v-3.7102051h-1.0759277v-1.3964843h1.0759277v-1.6694336zm4.2878418 1.6694336 1.4472656 5.2558593h.1142578l1.4345703-5.2558593h1.9455567l-2.4152832 6.9887695h-2.0820313l-2.4311523-6.9887695zm-10.706543-3.5385743c.0136719.0592448.0205078.1298829.0205078.2119141 0 .2734375-.0524088.5388998-.1572265.7963867-.1048177.257487-.2392578.4864909-.4033203.6870118-.1777344.2141927-.4010417.3930664-.6699219.536621-.2688802.1435547-.5240886.2153321-.76562501.2153321-.05013021 0-.09798177-.0045573-.14355469-.0136719-.00455729-.0136719-.00911458-.038737-.01367188-.0751953-.00455729-.0364583-.00683593-.0751953-.00683593-.1162109 0-.2734376.05924479-.5388998.17773441-.7963868.1184895-.2574869.2529296-.4705403.4033203-.6391601.1914062-.2278646.4329427-.4169922.7246093-.5673828.2916667-.1503907.5696615-.2301433.8339844-.2392579z"/></svg>