<svg height="32" viewBox="0 0 32 32" width="32" xmlns="http://www.w3.org/2000/svg"><path d="m27.7180574-1.5c.6328554 0 1.0455468.07969438 1.4777637.31084655.4243657.22695325.7663791.56896664.9933323.99333231.2311522.43221699.3108466.84490836.3108466 1.47776374v2.4361148c0 .63285538-.0796944 1.04554676-.3108466 1.47776374-.2269532.42436567-.5689666.76637906-.9933323.99333231-.4322169.23115217-.8449083.31084655-1.4777637.31084655h-.7180574v11.5c0 6.9035594-5.5964406 12.5-12.5 12.5-6.90355937 0-12.5-5.5964406-12.5-12.5v-11.5h-.7180574c-.63285538 0-1.04554675-.07969438-1.47776374-.31084655-.42436567-.22695325-.76637906-.56896664-.99333231-.99333231-.23115217-.43221698-.31084655-.84490836-.31084655-1.47776374v-2.4361148c0-.63285538.07969438-1.04554675.31084655-1.47776374.22695325-.42436567.56896664-.76637906.99333231-.99333231.43221699-.23115217.84490836-.31084655 1.47776374-.31084655zm-2.2180574 11.5h-22v8c0 6.0751322 4.92486775 11 11 11 6.0751322 0 11-4.9248678 11-11zm-11 2c3.5898509 0 6.5 2.9101491 6.5 6.5s-2.9101491 6.5-6.5 6.5-6.5-2.9101491-6.5-6.5 2.9101491-6.5 6.5-6.5zm0 1.5c-2.7614237 0-5 2.2385763-5 5s2.2385763 5 5 5 5-2.2385763 5-5-2.2385763-5-5-5zm0 1.5c1.9329966 0 3.5 1.5670034 3.5 3.5s-1.5670034 3.5-3.5 3.5-3.5-1.5670034-3.5-3.5 1.5670034-3.5 3.5-3.5zm0 1.5c-1.1045695 0-2 .8954305-2 2s.8954305 2 2 2 2-.8954305 2-2-.8954305-2-2-2zm-8.25-5c.69035594 0 1.25.5596441 1.25 1.25s-.55964406 1.25-1.25 1.25-1.25-.5596441-1.25-1.25.55964406-1.25 1.25-1.25zm19.25-5h-22v2h22zm2.2180574-6.5h-26.4361148c-.44575937 0-.60740249.04641281-.77036545.13356635-.16296296.08715355-.29085725.21504784-.3780108.3780108-.08715354.16296296-.13356635.32460608-.13356635.77036545v2.4361148c0 .44575937.04641281.60740249.13356635.77036545.08715355.16296296.21504784.29085725.3780108.3780108.16296296.08715354.32460608.13356635.77036545.13356635h26.4361148c.4457594 0 .6074025-.04641281.7703655-.13356635.1629629-.08715355.2908572-.21504784.3780107-.3780108.0871536-.16296296.1335664-.32460608.1335664-.77036545v-2.4361148c0-.44575937-.0464128-.60740249-.1335664-.77036545-.0871535-.16296296-.2150478-.29085725-.3780107-.3780108-.162963-.08715354-.3246061-.13356635-.7703655-.13356635z" transform="translate(1.5 1.5)"/></svg>