<svg height="32" viewBox="0 0 32 32" width="32" xmlns="http://www.w3.org/2000/svg"><path d="m2.5001177 4.0638852c0-1.03926369.11421358-1.63071012.44441291-2.24812919.31410679-.58732864.78401447-1.05723631 1.3713431-1.3713431.61741907-.33019933 1.20886551-.44441291 2.24812919-.44441291h18.8722296c1.0392637 0 1.6307101.11421358 2.2481292.44441291.5873286.31410679 1.0572363.78401446 1.3713431 1.3713431.3301993.61741907.4444129 1.2088655.4444129 2.24812919v13.9361148h.5c1.1045695 0 2 .8954305 2 2 0 .4327404-.1403557.8538077-.4 1.2l-.1685152.224687c-.2699362.3599148-.5328977.6385185-.836466.871126-.3370162.2582368-.7065805.443019-1.1153797.5576899-.3682269.1032901-.7488868.1464971-1.1987804.1464971h-24.56171739c-.44989359 0-.83055346-.043207-1.19878044-.1464971-.40879916-.1146709-.77836348-.2994531-1.1153797-.5576899-.30356831-.2326075-.56652979-.5112112-.83646595-.871126l-.16851522-.224687c-.6627417-.8836556-.4836556-2.1372583.4-2.8.34619235-.2596443.76725958-.4 1.2-.4h.5zm27.5 15.4361148h-28c-.1081851 0-.21345191.0350889-.3.1-.2209139.1656854-.26568542.4790861-.1.7l.16851522.224687c.19168466.2555795.36318706.4382515.54879654.5804737.18560949.1422223.38302912.2409321.60817259.3040863.22514347.0631543.47418252.090753.79365696.090753h24.56171739c.3194744 0 .5685135-.0275987.793657-.090753.2251434-.0631542.4225631-.161864.6081725-.3040863.1856095-.1422222.3571119-.3248942.5487966-.5804737l.1685152-.224687c.0649111-.0865481.1-.1918149.1-.3 0-.2761424-.2238576-.5-.5-.5zm-4.5638852-18h-18.8722296c-.89151874 0-1.21480497.09282561-1.5407309.2671327-.32592593.1743071-.5817145.43009567-.75602159.7560216-.1743071.32592592-.26713271.64921216-.26713271 1.5407309v12.4361148h24v-12.4361148c0-.89151874-.0928256-1.21480498-.2671327-1.5407309-.1743071-.32592593-.4300957-.5817145-.7560216-.7560216-.3259259-.17430709-.6492122-.2671327-1.5407309-.2671327z" transform="translate(0 5)"/></svg>