<svg height="32" viewBox="0 0 32 32" width="32" xmlns="http://www.w3.org/2000/svg"><path d="m16.8111759.03482502 12.5 10.99137928c.7556972.6644924 1.1888241 1.6221017 1.1888241 2.6283961v13.8453996c0 1.9329966-1.5670034 3.5-3.5 3.5h-7.25c-1.3807119 0-2.5-1.1192881-2.5-2.5v-7c0-.2761424-.2238576-.5-.5-.5h-4.5c-.2761424 0-.5.2238576-.5.5v7c0 1.3807119-1.1192881 2.5-2.5 2.5h-7.25c-1.93299662 0-3.5-1.5670034-3.5-3.5v-13.8453996c0-1.0062944.43312687-1.9639037 1.18882412-2.6283961l12.49999998-10.99137928c1.3216478-1.16213853 3.300704-1.16213853 4.6223518 0zm-.990504 1.12645547c-.7552273-.66407916-1.8861165-.66407916-2.6413438 0l-12.50000003 10.99137931c-.431827.37971-.67932807.9269152-.67932807 1.5019406v13.8453996c0 1.1045695.8954305 2 2 2h7.25c.55228475 0 1-.4477153 1-1v-7c0-1.1045695.8954305-2 2-2h4.5c1.1045695 0 2 .8954305 2 2v7c0 .5522847.4477153 1 1 1h7.25c1.1045695 0 2-.8954305 2-2v-13.8453996c0-.5750254-.2475011-1.1222306-.6793281-1.5019406z" transform="translate(1.5 1)"/></svg>