<svg height="32" viewBox="0 0 32 32" width="32" xmlns="http://www.w3.org/2000/svg"><path d="m18.7444592-1.5c3.4777136 0 5.1416903.32132874 6.8703219 1.24581102 1.5651064.83702807 2.8023798 2.07430146 3.6394079 3.63940788.9244823 1.72863157 1.245811 3.39260834 1.245811 6.8703219v8.4889184c0 3.4777136-.3213287 5.1416903-1.245811 6.8703219-.8370281 1.5651064-2.0743015 2.8023798-3.6394079 3.6394079-1.7286316.9244823-3.3926083 1.245811-6.8703219 1.245811h-8.4889184c-3.47771356 0-5.14169033-.3213287-6.8703219-1.245811-1.56510642-.8370281-2.80237981-2.0743015-3.63940788-3.6394079-.92448228-1.7286316-1.24581102-3.3926083-1.24581102-6.8703219v-8.4889184c0-3.47771356.32132874-5.14169033 1.24581102-6.8703219.83702807-1.56510642 2.07430146-2.80237981 3.63940788-3.63940788 1.72863157-.92448228 3.39260834-1.24581102 6.8703219-1.24581102zm0 1.5h-8.4889184c-3.56607496 0-4.85921991.37130245-6.16292361 1.06853082-1.30370371.69722837-2.326858 1.72038266-3.02408637 3.02408637-.69722837 1.3037037-1.06853082 2.59684865-1.06853082 6.16292361v8.4889184c0 3.566075.37130245 4.8592199 1.06853082 6.1629236s1.72038266 2.326858 3.02408637 3.0240864c1.3037037.6972284 2.59684865 1.0685308 6.16292361 1.0685308h8.4889184c3.566075 0 4.8592199-.3713024 6.1629236-1.0685308s2.326858-1.7203827 3.0240864-3.0240864 1.0685308-2.5968486 1.0685308-6.1629236v-8.4889184c0-3.56607496-.3713024-4.85921991-1.0685308-6.16292361-.6972284-1.30370371-1.7203827-2.326858-3.0240864-3.02408637s-2.5968486-1.06853082-6.1629236-1.06853082zm1.7555408 21.5c.8284271 0 1.5.6715729 1.5 1.5s-.6715729 1.5-1.5 1.5-1.5-.6715729-1.5-1.5.6715729-1.5 1.5-1.5zm-6 0c.8284271 0 1.5.6715729 1.5 1.5s-.6715729 1.5-1.5 1.5-1.5-.6715729-1.5-1.5.6715729-1.5 1.5-1.5zm-6 0c.82842712 0 1.5.6715729 1.5 1.5s-.67157288 1.5-1.5 1.5-1.5-.6715729-1.5-1.5.67157288-1.5 1.5-1.5zm6-16.1875c3.4172619 0 6.1875 2.77023811 6.1875 6.1875 0 3.4172619-2.7702381 6.1875-6.1875 6.1875s-6.1875-2.7702381-6.1875-6.1875c0-3.41726189 2.7702381-6.1875 6.1875-6.1875zm0 1.6875c-2.4852814 0-4.5 2.01471863-4.5 4.5 0 2.4852814 2.0147186 4.5 4.5 4.5s4.5-2.0147186 4.5-4.5c0-2.48528137-2.0147186-4.5-4.5-4.5z" transform="translate(1.5 1.5)"/></svg>