<svg height="32" viewBox="0 0 32 32" width="32" xmlns="http://www.w3.org/2000/svg"><path d="m13.590287-1.5c2.2584886 0 3.3862002.21777116 4.5592255.84511196 1.0762176.57556743 1.9298081 1.42915797 2.5053755 2.50537549.6273408 1.17302532.845112 2.30073692.845112 4.55922555v16.180574c0 2.2584886-.2177712 3.3862002-.845112 4.5592255-.5755674 1.0762176-1.4291579 1.9298081-2.5053755 2.5053755-1.1730253.6273408-2.3007369.845112-4.5592255.845112h-7.180574c-2.25848863 0-3.38620023-.2177712-4.55922555-.845112-1.07621752-.5755674-1.92980806-1.4291579-2.50537549-2.5053755-.6273408-1.1730253-.84511196-2.3007369-.84511196-4.5592255v-16.180574c0-2.25848863.21777116-3.38620023.84511196-4.55922555.57556743-1.07621752 1.42915797-1.92980806 2.50537549-2.50537549 1.17302532-.6273408 2.30073692-.84511196 4.55922555-.84511196zm0 1.5h-7.180574c-2.22879685 0-3.03701244.23206403-3.85182726.66783176-.81481481.43576773-1.45428625 1.07523917-1.89005398 1.89005398-.43576773.81481482-.66783176 1.62303041-.66783176 3.85182726v16.180574c0 2.2287968.23206403 3.0370124.66783176 3.8518273.43576773.8148148 1.07523917 1.4542862 1.89005398 1.8900539.81481482.4357678 1.62303041.6678318 3.85182726.6678318h7.180574c2.2287968 0 3.0370124-.232064 3.8518273-.6678318.8148148-.4357677 1.4542862-1.0752391 1.8900539-1.8900539.4357678-.8148149.6678318-1.6230305.6678318-3.8518273v-16.180574c0-2.22879685-.232064-3.03701244-.6678318-3.85182726-.4357677-.81481481-1.0752391-1.45428625-1.8900539-1.89005398-.8148149-.43576773-1.6230305-.66783176-3.8518273-.66783176zm-1.8722296 10.5c.6328554 0 1.0455468.0796944 1.4777637.3108466.4243657.2269532.7663791.5689666.9933323.9933323.2311522.4322169.3108466.8449083.3108466 1.4777637v9.4361148c0 .6328554-.0796944 1.0455468-.3108466 1.4777637-.2269532.4243657-.5689666.7663791-.9933323.9933323-.4322169.2311522-.8449083.3108466-1.4777637.3108466h-3.4361148c-.63285538 0-1.04554676-.0796944-1.47776374-.3108466-.42436567-.2269532-.76637906-.5689666-.99333231-.9933323-.23115217-.4322169-.31084655-.8449083-.31084655-1.4777637v-9.4361148c0-.6328554.07969438-1.0455468.31084655-1.4777637.22695325-.4243657.56896664-.7663791.99333231-.9933323.43221698-.2311522.84490836-.3108466 1.47776374-.3108466zm0 1.5h-3.4361148c-.44575937 0-.60740249.0464128-.77036545.1335664-.16296296.0871535-.29085725.2150478-.3780108.3780107-.08715354.162963-.13356635.3246061-.13356635.7703655v9.4361148c0 .4457594.04641281.6074025.13356635.7703655.08715355.1629629.21504784.2908572.3780108.3780107.16296296.0871536.32460608.1335664.77036545.1335664h3.4361148c.4457594 0 .6074025-.0464128.7703655-.1335664.1629629-.0871535.2908572-.2150478.3780107-.3780107.0871536-.162963.1335664-.3246061.1335664-.7703655v-9.4361148c0-.4457594-.0464128-.6074025-.1335664-.7703655-.0871535-.1629629-.2150478-.2908572-.3780107-.3780107-.162963-.0871536-.3246061-.1335664-.7703655-.1335664zm-.8171785-7.79110251c.0465495 0 .1258952.00752202.2380371.02256608s.2353923.05748979.369751.1273372.2565511.18536428.3665771.34655062c-.0063476.00644745-.037028.02955082-.092041.06931012-.055013.03975929-.1163737.09778637-.184082.17408124-.0677083.07629486-.1269531.17300666-.1777344.29013539-.0507812.11712874-.0761719.25628627-.0761719.4174726 0 .18482699.0322673.34171502.0968018.47066409.0645345.12894906.1396484.2326456.2253418.31108962.0856934.07844401.1618652.1359338.2285156.17246937s.1020915.05587793.1063233.05802708c-.0021159.00859661-.0290935.08489147-.0809327.22888459-.0518391.14399313-.1370035.30410488-.2554931.48033527-.1036784.15258973-.2152914.29335912-.3348389.42230819-.1195475.12894906-.2628987.1934236-.4300537.1934236-.1121419 0-.2041829-.01665592-.276123-.04996777-.0719401-.03331184-.1459961-.06662368-.222168-.09993552s-.1787923-.04996776-.3078613-.04996776c-.12483728 0-.22904463.0171932-.31262211.05157962-.08357747.03438642-.16292317.06877284-.23803711.10315925-.07511393.03438642-.16345215.05157963-.26501465.05157963-.15445963 0-.2898763-.06232538-.40625-.18697614-.11637369-.12465077-.23592122-.27401677-.35864257-.44809801-.14176433-.2063185-.26289877-.45830646-.36340332-.75596389-.10050456-.29765743-.15075684-.59800129-.15075684-.90103159 0-.32452182.06030273-.59692672.1809082-.8172147.12060547-.22028799.27559408-.3868472.46496582-.49967763.18937175-.11283043.38562012-.16924565.58874512-.16924565.10791016 0 .20947266.0177305.3046875.05319149s.184611.07145927.26818848.10799484c.08357747.03653557.15922037.05480336.22692868.05480336.0655925 0 .1417644-.01934236.2285157-.05802708s.184082-.07683215.2919921-.1144423c.1079102-.03761014.223226-.05641521.3459473-.05641521zm.0761719-1.20889749c.0063476.02793896.0095215.06125081.0095215.09993553 0 .12894906-.0243327.25413711-.0729981.37556415-.0486653.12142703-.111084.22942188-.1872558.32398452-.0825196.1010101-.186198.18536428-.3110352.25306254s-.2433268.10154739-.3554687.10154739c-.0232748 0-.0454916-.00214915-.06665044-.00644745-.00211588-.00644745-.00423177-.01826778-.00634765-.03546099-.00211589-.01719321-.00317383-.035461-.00317383-.05480336 0-.12894906.02750652-.25413711.08251952-.37556415.055013-.12142703.1174317-.22189985.1872559-.30141844.0888672-.10745755.2010091-.19664732.3364258-.26756931.1354166-.07092198.2644856-.10853213.387207-.11283043z" transform="translate(6 1.5)"/></svg>