<svg height="32" viewBox="0 0 32 32" width="32" xmlns="http://www.w3.org/2000/svg"><path d="m27-1.5c1.9329966 0 3.5 1.56700338 3.5 3.5v10c0 1.9329966-1.5670034 3.5-3.5 3.5h-.75l-.4736068.9472136c-.1505707.3011414-.4408914.5036898-.7695719.5449828l-.1248553.0078036h-20.76393201c-.37877206 0-.72503518-.2140024-.89442719-.5527864l-.4736068-.9472136h-.75c-1.93299662 0-3.5-1.5670034-3.5-3.5v-10c0-1.93299662 1.56700338-3.5 3.5-3.5zm0 1.5h-25c-1.1045695 0-2 .8954305-2 2v10c0 1.1045695.8954305 2 2 2h25c1.1045695 0 2-.8954305 2-2v-10c0-1.1045695-.8954305-2-2-2zm-1.25 10c.4142136 0 .75.3357864.75.75 0 .3796958-.2821539.693491-.6482294.7431534l-.1017706.0068466c-.4142136 0-.75-.3357864-.75-.75s.3357864-.75.75-.75zm-15 0c.4142136 0 .75.3357864.75.75 0 .3796958-.2821539.693491-.6482294.7431534l-.1017706.0068466h-2.5c-.41421356 0-.75-.3357864-.75-.75s.33578644-.75.75-.75zm-4.87730096-1c.20647528 0 .2900309.0232064.37151239.06678318.08148148.04357677.14542862.10752391.18900539.18900539.04357678.08148149.06678318.16503711.06678318.37151239v1.24539804c0 .2064753-.0232064.2900309-.06678318.3715124-.04357677.0814815-.10752391.1454287-.18900539.1890054-.06518519.0348614-.13169783.0566858-.26141082.0640211l-.11010157.0027621h-.24539808c-.20647528 0-.2900309-.0232064-.37151239-.0667832-.08148148-.0435767-.14542862-.1075239-.18900539-.1890054-.04357678-.0814815-.06678318-.1650371-.06678318-.3715124v-1.24539804c0-.20647528.0232064-.2900309.06678318-.37151239.04357677-.08148148.10752391-.14542862.18900539-.18900539.08148149-.04357678.16503711-.06678318.37151239-.06678318zm-2.5 0c.20647528 0 .2900309.0232064.37151239.06678318.08148148.04357677.14542862.10752391.18900539.18900539.04357678.08148149.06678318.16503711.06678318.37151239v1.24539804c0 .2064753-.0232064.2900309-.06678318.3715124-.04357677.0814815-.10752391.1454287-.18900539.1890054-.06518519.0348614-.13169783.0566858-.26141082.0640211l-.11010157.0027621h-.24539808c-.20647528 0-.2900309-.0232064-.37151239-.0667832-.08148148-.0435767-.14542862-.1075239-.18900539-.1890054-.04357678-.0814815-.06678318-.1650371-.06678318-.3715124v-1.24539804c0-.20647528.0232064-.2900309.06678318-.37151239.04357677-.08148148.10752391-.14542862.18900539-.18900539.08148149-.04357678.16503711-.06678318.37151239-.06678318z" transform="translate(1.5 9)"/></svg>