<svg height="32" viewBox="0 0 32 32" width="32" xmlns="http://www.w3.org/2000/svg"><path d="m23.8722296-1.5c1.8520803 0 2.8010369.18325196 3.7888601.71154561.9132546.48841388 1.6389508 1.21411013 2.1273647 2.12736469.5282936.98782324.7115456 1.93677979.7115456 3.7888601v18.7444592c0 1.8520803-.183252 2.8010369-.7115456 3.7888601-.4884139.9132546-1.2141101 1.6389508-2.1273647 2.1273647-.9878232.5282936-1.9367798.7115456-3.7888601.7115456h-18.7444592c-1.85208031 0-2.80103686-.183252-3.7888601-.7115456-.91325456-.4884139-1.63895081-1.2141101-2.12736469-2.1273647-.52829365-.9878232-.71154561-1.9367798-.71154561-3.7888601v-18.7444592c0-1.85208031.18325196-2.80103686.71154561-3.7888601.48841388-.91325456 1.21411013-1.63895081 2.12736469-2.12736469.98782324-.52829365 1.93677979-.71154561 3.7888601-.71154561zm0 1.5h-18.7444592c-1.78303748 0-2.42960996.18565122-3.08146181.53426541-.65185185.34861418-1.163429.86019133-1.51204318 1.51204318-.34861419.65185185-.53426541 1.29842433-.53426541 3.08146181v18.7444592c0 1.7830375.18565122 2.42961.53426541 3.0814618.34861418.6518519.86019133 1.163429 1.51204318 1.5120432s1.29842433.5342654 3.08146181.5342654h18.7444592c1.7830375 0 2.42961-.1856512 3.0814618-.5342654.6518519-.3486142 1.163429-.8601913 1.5120432-1.5120432.3486142-.6518518.5342654-1.2984243.5342654-3.0814618v-18.7444592c0-1.78303748-.1856512-2.42960996-.5342654-3.08146181s-.8601913-1.163429-1.5120432-1.51204318c-.6518518-.34861419-1.2984243-.53426541-3.0814618-.53426541zm-9.3814334 3c.9856758 0 1.5835306.11822562 2.1934478.44441291.4208063.22504969.7813362.53007767 1.0674737.90096808.2827021-.37089041.643232-.67591839 1.0640383-.90096808.6099172-.32618729 1.207772-.44441291 2.1934478-.44441291h.9815924c.9856758 0 1.5835306.11822562 2.1934478.44441291.5873286.31410679 1.0572363.78401446 1.3713431 1.3713431.3261873.6099172.4444129 1.20777195.4444129 2.19344782v14.98159237c0 .9856758-.1182256 1.5835306-.4444129 2.1934478-.3141068.5873286-.7840145 1.0572363-1.3713431 1.3713431-.6099172.3261873-1.207772.4444129-2.1934478.4444129h-.9815924c-.9856758 0-1.5835306-.1182256-2.1934478-.4444129-.4208063-.2250497-.7813362-.5300777-1.0674737-.9009681-.2827021.3708904-.643232.6759184-1.0640383.9009681-.6099172.3261873-1.207772.4444129-2.1934478.4444129h-.9815924c-.9856758 0-1.5835306-.1182256-2.1934478-.4444129-.5873286-.3141068-1.0572363-.7840145-1.37134309-1.3713431-.32618729-.6099172-.44441291-1.207772-.44441291-2.1934478v-14.98159237c0-.98567587.11822562-1.58353062.44441291-2.19344782.31410679-.58732864.78401449-1.05723631 1.37134309-1.3713431.6099172-.32618729 1.207772-.44441291 2.1934478-.44441291zm7.5 1.5h-.9815924c-.8259011 0-1.1601236.09282561-1.4860495.2671327-.3259259.1743071-.5817145.43009567-.7560216.7560216-.1743071.32592592-.2671327.66014843-.2671327 1.48604953v14.98159237c0 .8259011.0928256 1.1601236.2671327 1.4860495s.4300957.5817145.7560216.7560216.6601484.2671327 1.4860495.2671327h.9815924c.8259011 0 1.1601236-.0928256 1.4860495-.2671327s.5817145-.4300957.7560216-.7560216.2671327-.6601484.2671327-1.4860495v-14.98159237c0-.8259011-.0928256-1.16012361-.2671327-1.48604953-.1743071-.32592593-.4300957-.5817145-.7560216-.7560216-.3259259-.17430709-.6601484-.2671327-1.4860495-.2671327zm-7.5 0h-.9815924c-.8259011 0-1.1601236.09282561-1.4860495.2671327-.3259259.1743071-.5817145.43009567-.7560216.7560216-.1743071.32592592-.2671327.66014843-.2671327 1.48604953v14.98159237c0 .8259011.0928256 1.1601236.2671327 1.4860495s.4300957.5817145.7560216.7560216.6601484.2671327 1.4860495.2671327h.9815924c.8259011 0 1.1601236-.0928256 1.4860495-.2671327s.5817145-.4300957.7560216-.7560216.2671327-.6601484.2671327-1.4860495v-14.98159237c0-.8259011-.0928256-1.16012361-.2671327-1.48604953-.1743071-.32592593-.4300957-.5817145-.7560216-.7560216-.3259259-.17430709-.6601484-.2671327-1.4860495-.2671327zm-9.9907962 3c.55228475 0 1 .44771525 1 1 0 .51283584-.38604019.93550716-.88337887.99327227l-.11662113.00672773c-.55228475 0-1-.44771525-1-1s.44771525-1 1-1zm0-4c.55228475 0 1 .44771525 1 1 0 .51283584-.38604019.93550716-.88337887.99327227l-.11662113.00672773c-.55228475 0-1-.44771525-1-1s.44771525-1 1-1z" transform="translate(1.5 1.5)"/></svg>