<svg height="32" viewBox="0 0 32 32" width="32" xmlns="http://www.w3.org/2000/svg"><path d="m26.4361148-1.5c1.0392637 0 1.6307101.11421358 2.2481292.44441291.5873286.31410679 1.0572363.78401446 1.3713431 1.3713431.3301993.61741907.4444129 1.2088655.4444129 2.24812919v1.8722296c0 1.03926369-.1142136 1.63071012-.4444129 2.24812919-.3141068.58732864-.7840145 1.05723631-1.3713431 1.3713431-.6174191.33019933-1.2088655.44441291-2.2481292.44441291h-23.8722296c-1.03926369 0-1.63071012-.11421358-2.24812919-.44441291-.58732864-.31410679-1.05723631-.78401446-1.3713431-1.3713431-.33019933-.61741907-.44441291-1.2088655-.44441291-2.24812919v-1.8722296c0-1.03926369.11421358-1.63071012.44441291-2.24812919.31410679-.58732864.78401446-1.05723631 1.3713431-1.3713431.61741907-.33019933 1.2088655-.44441291 2.24812919-.44441291zm0 1.5h-23.8722296c-.89151874 0-1.21480498.09282561-1.5407309.2671327-.32592593.1743071-.5817145.43009567-.7560216.7560216-.17430709.32592592-.2671327.64921216-.2671327 1.5407309v1.8722296c0 .89151874.09282561 1.21480498.2671327 1.5407309.1743071.32592593.43009567.5817145.7560216.7560216.32592592.17430709.64921216.2671327 1.5407309.2671327h23.8722296c.8915187 0 1.214805-.09282561 1.5407309-.2671327.3259259-.1743071.5817145-.43009567.7560216-.7560216.1743071-.32592592.2671327-.64921216.2671327-1.5407309v-1.8722296c0-.89151874-.0928256-1.21480498-.2671327-1.5407309-.1743071-.32592593-.4300957-.5817145-.7560216-.7560216-.3259259-.17430709-.6492122-.2671327-1.5407309-.2671327zm-.5770861 2.5c.2228797 0 .3037012.0232064.3851827.06678318.0814815.04357677.1454287.10752391.1890054.18900539.0435768.08148149.0667832.16230305.0667832.38518273v.7180574c0 .22287968-.0232064.30370124-.0667832.38518273-.0435767.08148148-.1075239.14542862-.1890054.18900539-.0679012.03631398-.1353442.05848187-.2849203.06486244l-.1002624.00192074h-.7180574c-.2228797 0-.3037012-.0232064-.3851827-.06678318-.0814815-.04357677-.1454287-.10752391-.1890054-.18900539-.0435768-.08148149-.0667832-.16230305-.0667832-.38518273v-.7180574c0-.22287968.0232064-.30370124.0667832-.38518273.0435767-.08148148.1075239-.14542862.1890054-.18900539.0814815-.04357678.162303-.06678318.3851827-.06678318zm-3 0c.2228797 0 .3037012.0232064.3851827.06678318.0814815.04357677.1454287.10752391.1890054.18900539.0435768.08148149.0667832.16230305.0667832.38518273v.7180574c0 .22287968-.0232064.30370124-.0667832.38518273-.0435767.08148148-.1075239.14542862-.1890054.18900539-.0679012.03631398-.1353442.05848187-.2849203.06486244l-.1002624.00192074h-.7180574c-.2228797 0-.3037012-.0232064-.3851827-.06678318-.0814815-.04357677-.1454287-.10752391-.1890054-.18900539-.0435768-.08148149-.0667832-.16230305-.0667832-.38518273v-.7180574c0-.22287968.0232064-.30370124.0667832-.38518273.0435767-.08148148.1075239-.14542862.1890054-.18900539.0814815-.04357678.162303-.06678318.3851827-.06678318zm-3 0c.2228797 0 .3037012.0232064.3851827.06678318.0814815.04357677.1454287.10752391.1890054.18900539.0435768.08148149.0667832.16230305.0667832.38518273v.7180574c0 .22287968-.0232064.30370124-.0667832.38518273-.0435767.08148148-.1075239.14542862-.1890054.18900539-.0679012.03631398-.1353442.05848187-.2849203.06486244l-.1002624.00192074h-.7180574c-.2228797 0-.3037012-.0232064-.3851827-.06678318-.0814815-.04357677-.1454287-.10752391-.1890054-.18900539-.0435768-.08148149-.0667832-.16230305-.0667832-.38518273v-.7180574c0-.22287968.0232064-.30370124.0667832-.38518273.0435767-.08148148.1075239-.14542862.1890054-.18900539.0814815-.04357678.162303-.06678318.3851827-.06678318zm-3 0c.2228797 0 .3037012.0232064.3851827.06678318.0814815.04357677.1454287.10752391.1890054.18900539.0435768.08148149.0667832.16230305.0667832.38518273v.7180574c0 .22287968-.0232064.30370124-.0667832.38518273-.0435767.08148148-.1075239.14542862-.1890054.18900539-.0679012.03631398-.1353442.05848187-.2849203.06486244l-.1002624.00192074h-.7180574c-.2228797 0-.3037012-.0232064-.3851827-.06678318-.0814815-.04357677-.1454287-.10752391-.1890054-.18900539-.0435768-.08148149-.0667832-.16230305-.0667832-.38518273v-.7180574c0-.22287968.0232064-.30370124.0667832-.38518273.0435767-.08148148.1075239-.14542862.1890054-.18900539.0814815-.04357678.162303-.06678318.3851827-.06678318zm-4 0c.2228797 0 .3037012.0232064.3851827.06678318.0814815.04357677.1454287.10752391.1890054.18900539.0435768.08148149.0667832.16230305.0667832.38518273v.7180574c0 .22287968-.0232064.30370124-.0667832.38518273-.0435767.08148148-.1075239.14542862-.1890054.18900539-.0679012.03631398-.1353442.05848187-.2849203.06486244l-.1002624.00192074h-.7180574c-.2228797 0-.3037012-.0232064-.3851827-.06678318-.0814815-.04357677-.1454287-.10752391-.1890054-.18900539-.0435768-.08148149-.0667832-.16230305-.0667832-.38518273v-.7180574c0-.22287968.0232064-.30370124.0667832-.38518273.0435767-.08148148.1075239-.14542862.1890054-.18900539.0814815-.04357678.162303-.06678318.3851827-.06678318zm-3 0c.2228797 0 .3037012.0232064.3851827.06678318.0814815.04357677.1454287.10752391.1890054.18900539.0435768.08148149.0667832.16230305.0667832.38518273v.7180574c0 .22287968-.0232064.30370124-.0667832.38518273-.0435767.08148148-.1075239.14542862-.1890054.18900539-.0679012.03631398-.1353442.05848187-.2849203.06486244l-.1002624.00192074h-.7180574c-.22287968 0-.30370124-.0232064-.38518273-.06678318-.08148148-.04357677-.14542862-.10752391-.18900539-.18900539-.04357678-.08148149-.06678318-.16230305-.06678318-.38518273v-.7180574c0-.22287968.0232064-.30370124.06678318-.38518273.04357677-.08148148.10752391-.14542862.18900539-.18900539.08148149-.04357678.16230305-.06678318.38518273-.06678318zm-3 0c.22287968 0 .30370124.0232064.38518273.06678318.08148148.04357677.14542862.10752391.18900539.18900539.04357678.08148149.06678318.16230305.06678318.38518273v.7180574c0 .22287968-.0232064.30370124-.06678318.38518273-.04357677.08148148-.10752391.14542862-.18900539.18900539-.06790124.03631398-.13534419.05848187-.28492033.06486244l-.1002624.00192074h-.7180574c-.22287968 0-.30370124-.0232064-.38518273-.06678318-.08148148-.04357677-.14542862-.10752391-.18900539-.18900539-.04357678-.08148149-.06678318-.16230305-.06678318-.38518273v-.7180574c0-.22287968.0232064-.30370124.06678318-.38518273.04357677-.08148148.10752391-.14542862.18900539-.18900539.08148149-.04357678.16230305-.06678318.38518273-.06678318zm-3 0c.22287968 0 .30370124.0232064.38518273.06678318.08148148.04357677.14542862.10752391.18900539.18900539.04357678.08148149.06678318.16230305.06678318.38518273v.7180574c0 .22287968-.0232064.30370124-.06678318.38518273-.04357677.08148148-.10752391.14542862-.18900539.18900539-.06790124.03631398-.13534419.05848187-.28492033.06486244l-.1002624.00192074h-.7180574c-.22287968 0-.30370124-.0232064-.38518273-.06678318-.08148148-.04357677-.14542862-.10752391-.18900539-.18900539-.04357678-.08148149-.06678318-.16230305-.06678318-.38518273v-.7180574c0-.22287968.0232064-.30370124.06678318-.38518273.04357677-.08148148.10752391-.14542862.18900539-.18900539.08148149-.04357678.16230305-.06678318.38518273-.06678318z" transform="translate(1.5 12.5)"/></svg>