<svg height="32" viewBox="0 0 32 32" width="32" xmlns="http://www.w3.org/2000/svg"><path d="m11.8722296-1.5c1.8520803 0 2.8010369.18325196 3.7888601.71154561.9132546.48841388 1.6389508 1.21411013 2.1273647 2.12736469.5282936.98782324.7115456 1.93677979.7115456 3.7888601v18.7444592c0 1.8520803-.183252 2.8010369-.7115456 3.7888601-.4884139.9132546-1.2141101 1.6389508-2.1273647 2.1273647-.9878232.5282936-1.9367798.7115456-3.7888601.7115456h-6.7444592c-1.85208031 0-2.80103686-.183252-3.7888601-.7115456-.91325456-.4884139-1.63895081-1.2141101-2.12736469-2.1273647-.52829365-.9878232-.71154561-1.9367798-.71154561-3.7888601v-18.7444592c0-1.85208031.18325196-2.80103686.71154561-3.7888601.48841388-.91325456 1.21411013-1.63895081 2.12736469-2.12736469.98782324-.52829365 1.93677979-.71154561 3.7888601-.71154561zm0 1.5h-6.7444592c-1.78303748 0-2.42960996.18565122-3.08146181.53426541-.65185185.34861418-1.163429.86019133-1.51204318 1.51204318-.34861419.65185185-.53426541 1.29842433-.53426541 3.08146181v18.7444592c0 1.7830375.18565122 2.42961.53426541 3.0814618.34861418.6518519.86019133 1.163429 1.51204318 1.5120432s1.29842433.5342654 3.08146181.5342654h6.7444592c1.7830375 0 2.42961-.1856512 3.0814618-.5342654.6518519-.3486142 1.163429-.8601913 1.5120432-1.5120432.3486142-.6518518.5342654-1.2984243.5342654-3.0814618v-18.7444592c0-1.78303748-.1856512-2.42960996-.5342654-3.08146181s-.8601913-1.163429-1.5120432-1.51204318c-.6518518-.34861419-1.2984243-.53426541-3.0814618-.53426541zm-1.2791306 6.92773438c.125.06640625.211914.171875.2607421.31640625.0366211.10839843.0375367.23327636.0027466.37463378l-.0466919.14685059-1.98046872 5.0917969h3.83203122c.1640625 0 .3017578.0507812.413086.1523437.1113281.1015625.1669922.234375.1669922.3984375 0 .1289063-.0373536.2523194-.1120606.3702393l-.0871582.1160889-6.23437499 7.3769531c-.13671875.1601562-.28320313.2578125-.43945313.2929687-.15625.0351563-.296875.0205078-.421875-.0439453s-.2109375-.1699219-.2578125-.3164062c-.03515625-.1098633-.03515625-.2345581 0-.3740845l.046875-.1444702 1.98046875-5.0976563h-3.83203125c-.16796875 0-.30664062-.0507812-.41601562-.1523437s-.1640625-.2324219-.1640625-.3925781c0-.131836.03625488-.2559815.10876465-.3724366l.08459472-.1138916 6.24023438-7.3769531c.13671875-.1640625.28222659-.26367187.43652339-.29882812.1542969-.03515625.2939454-.01953125.4189454.046875z" transform="translate(7.5 1.5)"/></svg>