<svg height="32" viewBox="0 0 32 32" width="32" xmlns="http://www.w3.org/2000/svg"><path d="m20.1541722-1.5c1.445672 0 2.2158735.14873277 3.0184946.57797926.7502916.40126034 1.3480936.9990623 1.7493539 1.7493539.4292465.80262115.5779793 1.57282264.5779793 3.01849464v19.3083444c0 1.445672-.1487328 2.2158735-.5779793 3.0184946-.4012603.7502916-.9990623 1.3480936-1.7493539 1.7493539-.8026211.4292465-1.5728226.5779793-3.0184946.5779793h.3458278v.8590287c0 .2228797-.0232064.3037012-.0667832.3851827-.0435767.0814815-.1075239.1454287-.1890054.1890054-.0679012.036314-.1353442.0584819-.2849203.0648625l-.1002624.0019207h-1.7180574c-.2228797 0-.3037012-.0232064-.3851827-.0667832-.0814815-.0435767-.1454287-.1075239-.1890054-.1890054-.0435768-.0814815-.0667832-.162303-.0667832-.3851827v-.8590287h-11v.8590287c0 .2228797-.0232064.3037012-.06678318.3851827-.04357677.0814815-.10752391.1454287-.18900539.1890054-.06790124.036314-.13534419.0584819-.28492033.0648625l-.1002624.0019207h-1.7180574c-.22287968 0-.30370124-.0232064-.38518273-.0667832-.08148148-.0435767-.14542862-.1075239-.18900539-.1890054-.04357678-.0814815-.06678318-.162303-.06678318-.3851827v-.8590287h.3458278c-1.445672 0-2.21587349-.1487328-3.01849464-.5779793-.7502916-.4012603-1.34809356-.9990623-1.7493539-1.7493539-.42924649-.8026211-.57797926-1.5728226-.57797926-3.0184946v-19.3083444c0-1.445672.14873277-2.21587349.57797926-3.01849464.40126034-.7502916.9990623-1.34809356 1.7493539-1.7493539.80262115-.42924649 1.57282264-.57797926 3.01849464-.57797926zm3.8458278 22.5h-24v2.1541722c0 1.3372781.13923842 1.8222075.40069906 2.3110964.26146064.4888888.6451435.8725717 1.13403238 1.1340323.48888889.2614607.97381825.4006991 2.31109636.4006991h16.3083444c1.3372781 0 1.8222075-.1392384 2.3110964-.4006991.4888888-.2614606.8725717-.6451435 1.1340323-1.1340323.2614607-.4888889.4006991-.9738183.4006991-2.3110964zm-3 2c.5522847 0 1 .4477153 1 1 0 .5128358-.3860402.9355072-.8833789.9932723l-.1166211.0067277c-.5522847 0-1-.4477153-1-1s.4477153-1 1-1zm-3 0c.5522847 0 1 .4477153 1 1 0 .5128358-.3860402.9355072-.8833789.9932723l-.1166211.0067277c-.5522847 0-1-.4477153-1-1s.4477153-1 1-1zm6-9h-24v5.5h24zm-18.5 1.5c.41421356 0 .75.3357864.75.75v1c0 .4142136-.33578644.75-.75.75s-.75-.3357864-.75-.75v-1c0-.4142136.33578644-.75.75-.75zm-3 0c.41421356 0 .75.3357864.75.75v1c0 .4142136-.33578644.75-.75.75s-.75-.3357864-.75-.75v-1c0-.4142136.33578644-.75.75-.75zm21.5-8.5h-24v5.5h24zm-18.5 1.5c.41421356 0 .75.33578644.75.75v1c0 .4142136-.33578644.75-.75.75s-.75-.3357864-.75-.75v-1c0-.41421356.33578644-.75.75-.75zm-3 0c.41421356 0 .75.33578644.75.75v1c0 .4142136-.33578644.75-.75.75s-.75-.3357864-.75-.75v-1c0-.41421356.33578644-.75.75-.75zm17.6541722-8.5h-16.3083444c-1.33727811 0-1.82220747.13923842-2.31109636.40069906-.48888888.26146064-.87257174.6451435-1.13403238 1.13403238-.26146064.48888889-.40069906.97381825-.40069906 2.31109636v1.6541722h24v-1.6541722c0-1.33727811-.1392384-1.82220747-.4006991-2.31109636-.2614606-.48888888-.6451435-.87257174-1.1340323-1.13403238-.4888889-.26146064-.9738183-.40069906-2.3110964-.40069906zm-14.9041722 2c.41421356 0 .75.33578644.75.75 0 .37969577-.28215388.69349096-.64822944.74315338l-.10177056.00684662h-2.5c-.41421356 0-.75-.33578644-.75-.75s.33578644-.75.75-.75z" fill-rule="evenodd" transform="translate(4 2)"/></svg>