<svg height="32" viewBox="0 0 32 32" width="32" xmlns="http://www.w3.org/2000/svg"><path d="m26.4361148 0c1.0392637 0 1.6307101.11421358 2.2481292.44441291.5873286.31410679 1.0572363.78401446 1.3713431 1.3713431.3301993.61741907.4444129 1.2088655.4444129 2.24812919l.0004419 3.6523212c.0652317.02825492.1300827.05971916.1953792.09464015.4243657.22695325.7663791.56896664.9933323.99333231.2311522.43221698.3108466.84490836.3108466 1.47776374v3.4361148c0 .6328554-.0796944 1.0455468-.3108466 1.4777637-.2269532.4243657-.5689666.7663791-.9933323.9933323-.0652965.034921-.1301475.0663853-.1953792.0946402l-.0004419 8.6523212c0 1.0392637-.1142136 1.6307101-.4444129 2.2481292-.3141068.5873286-.7840145 1.0572363-1.3713431 1.3713431-.6174191.3301993-1.2088655.4444129-2.2481292.4444129h-2.9361148v.2453981c0 .6065221-.0824172 1.0232973-.3108466 1.450423-.2269532.4243657-.5689666.7663791-.9933323.9933323-.4271257.2284294-.8439009.3108466-1.450423.3108466h-.4907962c-.6065221 0-1.0232973-.0824172-1.450423-.3108466-.4243657-.2269532-.7663791-.5689666-.9933323-.9933323-.2284294-.4271257-.3108466-.8439009-.3108466-1.450423v-.2453981h-1v.2180574c0 .6328554-.0796944 1.0455468-.3108466 1.4777637-.2269532.4243657-.5689666.7663791-.9933323.9933323-.4322169.2311522-.8449083.3108466-1.4777637.3108466h-2.4361148c-.6328554 0-1.0455468-.0796944-1.47776374-.3108466-.42436567-.2269532-.76637906-.5689666-.99333231-.9933323-.23115217-.4322169-.31084655-.8449083-.31084655-1.4777637v-.2180574h-2.9361148c-1.03926369 0-1.63071012-.1142136-2.24812919-.4444129-.58732864-.3141068-1.05723631-.7840145-1.3713431-1.3713431-.33019933-.6174191-.44441291-1.2088655-.44441291-2.2481292l.00055155-3.6518912c-.06556679-.0283656-.13074465-.0599719-.19637269-.0950702-.42436567-.2269532-.76637906-.5689666-.9933323-.9933323-.23115218-.4322169-.31084656-.8449083-.31084656-1.4777637v-8.4361148c0-.63285538.07969438-1.04554676.31084656-1.47776374.22695324-.42436567.56896663-.76637906.9933323-.99333231.06562804-.03509825.1308059-.06670457.19637269-.09507018l-.00055155-3.65189117c0-1.03926369.11421358-1.63071012.44441291-2.24812919.31410679-.58732864.78401446-1.05723631 1.3713431-1.3713431.61741907-.33019933 1.2088655-.44441291 2.24812919-.44441291zm-5.6907167 22.5h-.4907962c-.4129505 0-.5800618.0464128-.7430248.1335664-.1629629.0871535-.2908572.2150478-.3780107.3780107-.0871536.162963-.1335664.3300743-.1335664.7430248v5.4907962c0 .4129505.0464128.5800618.1335664.7430248.0871535.1629629.2150478.2908572.3780107.3780107.162963.0871536.3300743.1335664.7430248.1335664h.4907962c.4129505 0 .5800618-.0464128.7430248-.1335664.1629629-.0871535.2908572-.2150478.3780107-.3780107.0871536-.162963.1335664-.3300743.1335664-.7430248v-5.4907962c0-.4129505-.0464128-.5800618-.1335664-.7430248-.0871535-.1629629-.2150478-.2908572-.3780107-.3780107-.162963-.0871536-.3300743-.1335664-.7430248-.1335664zm-7.0273407 2h-2.4361148c-.4457594 0-.6074025.0464128-.7703655.1335664-.1629629.0871535-.2908572.2150478-.3780107.3780107-.0871536.162963-.1335664.3246061-.1335664.7703655v3.4361148c0 .4457594.0464128.6074025.1335664.7703655.0871535.1629629.2150478.2908572.3780107.3780107.162963.0871536.3246061.1335664.7703655.1335664h2.4361148c.4457594 0 .6074025-.0464128.7703655-.1335664.1629629-.0871535.2908572-.2150478.3780107-.3780107.0871536-.162963.1335664-.3246061.1335664-.7703655v-3.4361148c0-.4457594-.0464128-.6074025-.1335664-.7703655-.0871535-.1629629-.2150478-.2908572-.3780107-.3780107-.162963-.0871536-.3246061-.1335664-.7703655-.1335664zm12.7180574-23h-20.8722296c-.89151874 0-1.21480498.09282561-1.5407309.2671327-.32592593.1743071-.5817145.43009567-.7560216.7560216-.17430709.32592592-.2671327.64921216-.2671327 1.5407309v3.4361148h1.2180574c.63285538 0 1.04554676.07969438 1.47776374.31084655.42436567.22695325.76637906.56896664.99333231.99333231.19482826.36429717.28205966.7147232.30466418 1.19479764l2.50618237.0010235c.5522847 0 1 .4477153 1 1 0 .5128358-.3860402.9355072-.88337887.9932723l-.11662113.0067277h-2.5v1.499l2.5.001c.5522847 0 1 .4477153 1 1 0 .5128358-.3860402.9355072-.88337887.9932723l-.11662113.0067277-2.5-.001v1.501h2.5c.5522847 0 1 .4477153 1 1 0 .5128358-.3860402.9355072-.88337887.9932723l-.11662113.0067277-2.50623035.0020404c-.0226798.4795525-.10992554.8297408-.3046162 1.1937807-.22695325.4243657-.56896664.7663791-.99333231.9933323-.43221698.2311522-.84490836.3108466-1.47776374.3108466h-1.2180574v3.4361148c0 .8915187.09282561 1.214805.2671327 1.5407309.1743071.3259259.43009567.5817145.7560216.7560216.32592592.1743071.64921216.2671327 1.5407309.2671327h2.9361148v-1.7180574c0-.6328554.07969438-1.0455468.31084655-1.4777637.22695325-.4243657.56896664-.7663791.99333231-.9933323.43221694-.2311522.84490834-.3108466 1.47776374-.3108466h2.4361148c.6328554 0 1.0455468.0796944 1.4777637.3108466.4243657.2269532.7663791.5689666.9933323.9933323.2311522.4322169.3108466.8449083.3108466 1.4777637v1.7180574h1v-3.7453981c0-.6065221.0824172-1.0232973.3108466-1.450423.2269532-.4243657.5689666-.7663791.9933323-.9933323.4271257-.2284294.8439009-.3108466 1.450423-.3108466h.4907962c.6065221 0 1.0232973.0824172 1.450423.3108466.4243657.2269532.7663791.5689666.9933323.9933323.2284294.4271257.3108466.8439009.3108466 1.450423v3.7453981h2.9361148c.8915187 0 1.214805-.0928256 1.5407309-.2671327s.5817145-.4300957.7560216-.7560216.2671327-.6492122.2671327-1.5407309v-8.4361148h-3.2180574c-.6328554 0-1.0455468-.0796944-1.4777637-.3108466-.4243657-.2269532-.7663791-.5689666-.9933323-.9933323-.2311522-.4322169-.3108466-.8449083-.3108466-1.4777637v-3.4361148c0-.63285538.0796944-1.04554676.3108466-1.47776374.2269532-.42436567.5689666-.76637906.9933323-.99333231.4322169-.23115217.8449083-.31084655 1.4777637-.31084655h3.2180574v-3.4361148c0-.89151874-.0928256-1.21480498-.2671327-1.5407309-.1743071-.32592593-.4300957-.5817145-.7560216-.7560216-.3259259-.17430709-.6492122-.2671327-1.5407309-.2671327zm.0638852 22.5c.5522847 0 1 .4477153 1 1 0 .5128358-.3860402.9355072-.8833789.9932723l-.1166211.0067277c-.5522847 0-1-.4477153-1-1s.4477153-1 1-1zm-21 0c.55228475 0 1 .4477153 1 1 0 .5128358-.38604019.9355072-.88337887.9932723l-.11662113.0067277c-.55228475 0-1-.4477153-1-1s.44771525-1 1-1zm-1.2819426-15h-1.4361148c-.10591038 0-.19578196.00262008-.27344317.00778415-.01136645.00075691-.02221984.00154833-.03283476.00239155l.03283476-.00239155c-.0415997.00276617-.07969592.00626228-.11487706.01047664l.0820423-.00808509c-.03854694.00306209-.07394922.00680742-.10674315.01122533l.02470085-.00314024c-.03299076.00395198-.06341814.00853556-.09176733.01374109l.06706648-.01060085c-.0302363.00407336-.05825523.00871847-.08447718.01392699l.0174107-.00332614c-.05226199.00959644-.09746123.02130662-.13863764.03507013-.03149167.01049389-.06127162.02249917-.09003352.03573256l-.06160673.03076178c-.16296296.08715355-.29085725.21504784-.3780108.3780108-.07625935.14259259-.12132657.28417468-.13140183.61596615l-.00216452.1543993v8.4361148c0 .4457594.04641281.6074025.13356635.7703655.08715355.1629629.21504784.2908572.3780108.3780107.16296296.0871536.32460608.1335664.77036545.1335664h1.4361148c.44575937 0 .60740249-.0464128.77036545-.1335664.16296296-.0871535.29085725-.2150478.3780108-.3780107.08715354-.162963.13356635-.3246061.13356635-.7703655v-8.4361148c0-.44575937-.04641281-.60740249-.13356635-.77036545-.08715355-.16296296-.21504784-.29085725-.3780108-.3780108-.16296296-.08715354-.32460608-.13356635-.77036545-.13356635zm14 1.5c.6328554 0 1.0455468.0796944 1.4777637.3108466.4243657.2269532.7663791.5689666.9933323.9933323.2311522.4322169.3108466.8449083.3108466 1.4777637v3.4361148c0 .6328554-.0796944 1.0455468-.3108466 1.4777637-.2269532.4243657-.5689666.7663791-.9933323.9933323-.4322169.2311522-.8449083.3108466-1.4777637.3108466h-3.4361148c-.6328554 0-1.0455468-.0796944-1.4777637-.3108466-.4243657-.2269532-.7663791-.5689666-.9933323-.9933323-.2311522-.4322169-.3108466-.8449083-.3108466-1.4777637v-3.4361148c0-.6328554.0796944-1.0455468.3108466-1.4777637.2269532-.4243657.5689666-.7663791.9933323-.9933323.4322169-.2311522.8449083-.3108466 1.4777637-.3108466zm0 1.5h-3.4361148c-.4457594 0-.6074025.0464128-.7703655.1335664-.1629629.0871535-.2908572.2150478-.3780107.3780107-.0871536.162963-.1335664.3246061-.1335664.7703655v3.4361148c0 .4457594.0464128.6074025.1335664.7703655.0871535.1629629.2150478.2908572.3780107.3780107.162963.0871536.3246061.1335664.7703655.1335664h3.4361148c.4457594 0 .6074025-.0464128.7703655-.1335664.1629629-.0871535.2908572-.2150478.3780107-.3780107.0871536-.162963.1335664-.3246061.1335664-.7703655v-3.4361148c0-.4457594-.0464128-.6074025-.1335664-.7703655-.0871535-.1629629-.2150478-.2908572-.3780107-.3780107-.162963-.0871536-.3246061-.1335664-.7703655-.1335664zm11-3h-3.4361148c-.4457594 0-.6074025.04641281-.7703655.13356635-.1629629.08715355-.2908572.21504784-.3780107.3780108-.0871536.16296296-.1335664.32460608-.1335664.77036545v3.4361148c0 .4457594.0464128.6074025.1335664.7703655.0871535.1629629.2150478.2908572.3780107.3780107.162963.0871536.3246061.1335664.7703655.1335664h3.4361148c.1059104 0 .195782-.0026201.2734432-.0077842.0113664-.0007569.0222198-.0015483.0328347-.0023915l-.0328347.0023915c.0415997-.0027661.0796959-.0062622.114877-.0104766l-.0820423.0080851c.038547-.0030621.0739493-.0068074.1067432-.0112253l-.0247009.0031402c.0329908-.003952.0634182-.0085355.0917674-.0137411l-.0670665.0106009c.0302363-.0040734.0582552-.0087185.0844772-.013927l-.0174107.0033261c.052262-.0095964.0974612-.0213066.1386376-.0350701.0314917-.0104939.0612716-.0224992.0900335-.0357326l.0616068-.0307618c.1629629-.0871535.2908572-.2150478.3780107-.3780107.0871536-.162963.1335664-.3246061.1335664-.7703655v-3.4361148c0-.44575937-.0464128-.60740249-.1335664-.77036545-.0871535-.16296296-.2150478-.29085725-.3780107-.3780108-.162963-.08715354-.3246061-.13356635-.7703655-.13356635zm-7.2180574-6c.5522847 0 1 .44771525 1 1v2c0 .51283584-.3860402.93550716-.8833789.99327227l-.1166211.00672773c-.5522847 0-1-.44771525-1-1v-2c0-.55228475.4477153-1 1-1zm-3 0c.5522847 0 1 .44771525 1 1v2c0 .51283584-.3860402.93550716-.8833789.99327227l-.1166211.00672773c-.5522847 0-1-.44771525-1-1v-2c0-.55228475.4477153-1 1-1zm-3 0c.5522847 0 1 .44771525 1 1v2c0 .51283584-.3860402.93550716-.8833789.99327227l-.1166211.00672773c-.5522847 0-1-.44771525-1-1v-2c0-.55228475.4477153-1 1-1zm-3 0c.5522847 0 1 .44771525 1 1v2c0 .51283584-.3860402.93550716-.8833789.99327227l-.1166211.00672773c-.5522847 0-1-.44771525-1-1v-2c0-.55228475.4477153-1 1-1zm-3 0c.5522847 0 1 .44771525 1 1v2c0 .51283584-.3860402.93550716-.8833789.99327227l-.1166211.00672773c-.55228475 0-1-.44771525-1-1v-2c0-.55228475.44771525-1 1-1zm16.5 0c.5522847 0 1 .44771525 1 1 0 .51283584-.3860402.93550716-.8833789.99327227l-.1166211.00672773c-.5522847 0-1-.44771525-1-1s.4477153-1 1-1zm-21 0c.55228475 0 1 .44771525 1 1 0 .51283584-.38604019.93550716-.88337887.99327227l-.11662113.00672773c-.55228475 0-1-.44771525-1-1s.44771525-1 1-1z"/></svg>