<svg height="32" viewBox="0 0 32 32" width="32" xmlns="http://www.w3.org/2000/svg"><path d="m25.2686504.58394816c.0917984-.40391326.4936522-.65693229.8975654-.56513382.4039133.09179847.6569323.49365222.5651338.89756547l-1.1553496 5.08362019 2.3601148.00016398c1.0392637 0 1.6307101.11421358 2.2481292.44441291.5873286.31410679 1.0572363.78401447 1.3713431 1.3713431.3301993.61741907.4444129 1.2088655.4444129 2.24812921v2.8722296c0 1.0392637-.1142136 1.6307101-.4444129 2.2481292-.3141068.5873286-.7840145 1.0572363-1.3713431 1.3713431-.6174191.3301993-1.2088655.4444129-2.2481292.4444129h-23.8722296c-1.03926369 0-1.63071012-.1142136-2.24812919-.4444129-.58732864-.3141068-1.05723631-.7840145-1.3713431-1.3713431-.33019933-.6174191-.44441291-1.2088655-.44441291-2.2481292v-2.8722296c0-1.03926371.11421358-1.63071014.44441291-2.24812921.31410679-.58732863.78401446-1.05723631 1.3713431-1.3713431.61741907-.33019933 1.2088655-.44441291 2.24812919-.44441291l2.3591148-.00016398-1.15434964-5.08362019c-.09179847-.40391325.16122056-.805767.56513381-.89756547.40391326-.09179847.80576701.16122056.89756547.56513382l1.23065036 5.41605184h16.075zm2.6674644 6.91621582h-23.8722296c-.89151874 0-1.21480498.09282561-1.5407309.26713271-.32592593.17430709-.5817145.43009566-.7560216.75602159-.17430709.32592593-.2671327.64921216-.2671327 1.54073092v2.8722296c0 .8915187.09282561 1.214805.2671327 1.5407309.1743071.3259259.43009567.5817145.7560216.7560216.32592592.1743071.64921216.2671327 1.5407309.2671327h23.8722296c.8915187 0 1.214805-.0928256 1.5407309-.2671327s.5817145-.4300957.7560216-.7560216.2671327-.6492122.2671327-1.5407309v-2.8722296c0-.89151876-.0928256-1.21480499-.2671327-1.54073092s-.4300957-.5817145-.7560216-.75602159c-.3259259-.1743071-.6492122-.26713271-1.5407309-.26713271zm-1.4361148 2.50000002c.8284271 0 1.5.6715729 1.5 1.5s-.6715729 1.5-1.5 1.5-1.5-.6715729-1.5-1.5.6715729-1.5 1.5-1.5zm-4 0c.8284271 0 1.5.6715729 1.5 1.5s-.6715729 1.5-1.5 1.5-1.5-.6715729-1.5-1.5.6715729-1.5 1.5-1.5z" transform="translate(0 7.4998)"/></svg>