<svg height="32" viewBox="0 0 32 32" width="32" xmlns="http://www.w3.org/2000/svg"><path d="m9.4361148-1.5c1.0392637 0 1.6307101.11421358 2.2481292.44441291.5873286.31410679 1.0572363.78401446 1.3713431 1.3713431.3301993.61741907.4444129 1.2088655.4444129 2.24812919l.0018863 1.50199773c.6646482.08010329 1.1611798.23955887 1.6707805.51209633.7502916.40126034 1.3480936.9990623 1.7493539 1.7493539.4292465.80262115.5779793 1.57282264.5779793 3.01849464l.002786 1.1585508c.1199119.0086158.1804841.0298128.2414254.0624046.0814815.0435767.1454287.1075239.1890054.1890054.0435768.0814815.0667832.162303.0667832.3851827v.7180574c0 .2228797-.0232064.3037012-.0667832.3851827-.0435767.0814815-.1075239.1454287-.1890054.1890054-.0609413.0325918-.1215135.0537888-.2414254.0624046v2.0087572c.1199119.0086158.1804841.0298128.2414254.0624046.0814815.0435767.1454287.1075239.1890054.1890054.0435768.0814815.0667832.162303.0667832.3851827v2.7180574c0 .2228797-.0232064.3037012-.0667832.3851827-.0435767.0814815-.1075239.1454287-.1890054.1890054-.0609413.0325918-.1215135.0537888-.2414254.0624046l-.002786 1.1585508c0 1.445672-.1487328 2.2158735-.5779793 3.0184946-.4012603.7502916-.9990623 1.3480936-1.7493539 1.7493539-.5096007.2725375-1.0061323.4319931-1.6707805.5120964l-.0018863 1.5019977c0 1.0392637-.1142136 1.6307101-.4444129 2.2481292-.3141068.5873286-.7840145 1.0572363-1.3713431 1.3713431-.6174191.3301993-1.2088655.4444129-2.2481292.4444129h-2.8722296c-1.03926369 0-1.63071012-.1142136-2.24812919-.4444129-.58732864-.3141068-1.05723631-.7840145-1.3713431-1.3713431-.33019933-.6174191-.44441291-1.2088655-.44441291-2.2481292l-.00088918-1.5018776c-.66514882-.080064-1.16192213-.2395427-1.67177766-.5122165-.7502916-.4012603-1.34809356-.9990623-1.7493539-1.7493539-.42924649-.8026211-.57797926-1.5728226-.57797926-3.0184946v-10.3083444c0-1.445672.14873277-2.21587349.57797926-3.01849464.40126034-.7502916.9990623-1.34809356 1.7493539-1.7493539.50985553-.27267372 1.00662884-.43215246 1.67177766-.51221642l.00088918-1.50187764c0-1.03926369.11421358-1.63071012.44441291-2.24812919.31410679-.58732864.78401446-1.05723631 1.3713431-1.3713431.61741907-.33019933 1.2088655-.44441291 2.24812919-.44441291zm2.5638852 26.5h-8v1.4361148c0 .8915187.09282561 1.214805.2671327 1.5407309.1743071.3259259.43009567.5817145.7560216.7560216.32592592.1743071.64921216.2671327 1.5407309.2671327h2.8722296c.8915187 0 1.214805-.0928256 1.5407309-.2671327s.5817145-.4300957.7560216-.7560216.2671327-.6492122.2671327-1.5407309zm.1541722-19.5h-8.3083444c-1.33727811 0-1.82220747.13923842-2.31109636.40069906-.48888888.26146063-.87257174.6451435-1.13403238 1.13403238-.26146064.48888889-.40069906.97381825-.40069906 2.31109636v10.3083444c0 1.3372781.13923842 1.8222075.40069906 2.3110964.26146064.4888888.6451435.8725717 1.13403238 1.1340323.48888889.2614607.97381825.4006991 2.31109636.4006991h8.3083444c1.3372781 0 1.8222075-.1392384 2.3110964-.4006991.4888888-.2614606.8725717-.6451435 1.1340323-1.1340323.2614607-.4888889.4006991-.9738183.4006991-2.3110964v-10.3083444c0-1.33727811-.1392384-1.82220747-.4006991-2.31109636-.2614606-.48888888-.6451435-.87257175-1.1340323-1.13403238-.4888889-.26146064-.9738183-.40069906-2.3110964-.40069906zm-2.7180574-5.5h-2.8722296c-.89151874 0-1.21480498.09282561-1.5407309.2671327-.32592593.1743071-.5817145.43009567-.7560216.7560216-.17430709.32592592-.2671327.64921216-.2671327 1.5407309v1.4361148h8v-1.4361148c0-.89151874-.0928256-1.21480498-.2671327-1.5407309-.1743071-.32592593-.4300957-.5817145-.7560216-.7560216-.3259259-.17430709-.6492122-.2671327-1.5407309-.2671327z" transform="translate(8 1.5)"/></svg>