<svg height="32" viewBox="0 0 32 32" width="32" xmlns="http://www.w3.org/2000/svg"><path d="m26.4361148-1.5c1.0392637 0 1.6307101.11421358 2.2481292.44441291.5873286.31410679 1.0572363.78401446 1.3713431 1.3713431.3301993.61741907.4444129 1.2088655.4444129 2.24812919v1.8722296c0 1.03926369-.1142136 1.63071012-.4444129 2.24812919-.3141068.58732864-.7840145 1.05723631-1.3713431 1.3713431-.6174191.33019933-1.2088655.44441291-2.2481292.44441291h-23.8722296c-1.03926369 0-1.63071012-.11421358-2.24812919-.44441291-.58732864-.31410679-1.05723631-.78401446-1.3713431-1.3713431-.33019933-.61741907-.44441291-1.2088655-.44441291-2.24812919v-1.8722296c0-1.03926369.11421358-1.63071012.44441291-2.24812919.31410679-.58732864.78401446-1.05723631 1.3713431-1.3713431.61741907-.33019933 1.2088655-.44441291 2.24812919-.44441291zm0 1.5h-23.8722296c-.89151874 0-1.21480498.09282561-1.5407309.2671327-.32592593.1743071-.5817145.43009567-.7560216.7560216-.17430709.32592592-.2671327.64921216-.2671327 1.5407309v1.8722296c0 .89151874.09282561 1.21480498.2671327 1.5407309.1743071.32592593.43009567.5817145.7560216.7560216.32592592.17430709.64921216.2671327 1.5407309.2671327h23.8722296c.8915187 0 1.214805-.09282561 1.5407309-.2671327.3259259-.1743071.5817145-.43009567.7560216-.7560216.1743071-.32592592.2671327-.64921216.2671327-1.5407309v-1.8722296c0-.89151874-.0928256-1.21480498-.2671327-1.5407309-.1743071-.32592593-.4300957-.5817145-.7560216-.7560216-.3259259-.17430709-.6492122-.2671327-1.5407309-.2671327zm.5638852 4.5c.2761424 0 .5.22385763.5.5s-.2238576.5-.5.5-.5-.22385763-.5-.5.2238576-.5.5-.5zm-2.5 0c.2761424 0 .5.22385763.5.5s-.2238576.5-.5.5-.5-.22385763-.5-.5.2238576-.5.5-.5zm-2.5 0c.2761424 0 .5.22385763.5.5s-.2238576.5-.5.5-.5-.22385763-.5-.5.2238576-.5.5-.5zm-2.5 0c.2761424 0 .5.22385763.5.5s-.2238576.5-.5.5-.5-.22385763-.5-.5.2238576-.5.5-.5zm-2.5 0c.2761424 0 .5.22385763.5.5s-.2238576.5-.5.5-.5-.22385763-.5-.5.2238576-.5.5-.5zm-2.5 0c.2761424 0 .5.22385763.5.5s-.2238576.5-.5.5-.5-.22385763-.5-.5.2238576-.5.5-.5zm-2.5 0c.2761424 0 .5.22385763.5.5s-.2238576.5-.5.5-.5-.22385763-.5-.5.2238576-.5.5-.5zm-2.5 0c.27614237 0 .5.22385763.5.5s-.22385763.5-.5.5-.5-.22385763-.5-.5.22385763-.5.5-.5zm-2.5 0c.27614237 0 .5.22385763.5.5s-.22385763.5-.5.5-.5-.22385763-.5-.5.22385763-.5.5-.5zm-2.5 0c.27614237 0 .5.22385763.5.5s-.22385763.5-.5.5-.5-.22385763-.5-.5.22385763-.5.5-.5zm-2.5 0c.27614237 0 .5.22385763.5.5s-.22385763.5-.5.5-.5-.22385763-.5-.5.22385763-.5.5-.5zm23.75-1.5c.2761424 0 .5.22385763.5.5s-.2238576.5-.5.5-.5-.22385763-.5-.5.2238576-.5.5-.5zm-2.5 0c.2761424 0 .5.22385763.5.5s-.2238576.5-.5.5-.5-.22385763-.5-.5.2238576-.5.5-.5zm-2.5 0c.2761424 0 .5.22385763.5.5s-.2238576.5-.5.5-.5-.22385763-.5-.5.2238576-.5.5-.5zm-2.5 0c.2761424 0 .5.22385763.5.5s-.2238576.5-.5.5-.5-.22385763-.5-.5.2238576-.5.5-.5zm-2.5 0c.2761424 0 .5.22385763.5.5s-.2238576.5-.5.5-.5-.22385763-.5-.5.2238576-.5.5-.5zm-2.5 0c.2761424 0 .5.22385763.5.5s-.2238576.5-.5.5-.5-.22385763-.5-.5.2238576-.5.5-.5zm-2.5 0c.2761424 0 .5.22385763.5.5s-.2238576.5-.5.5-.5-.22385763-.5-.5.2238576-.5.5-.5zm-2.5 0c.27614237 0 .5.22385763.5.5s-.22385763.5-.5.5-.5-.22385763-.5-.5.22385763-.5.5-.5zm-2.5 0c.27614237 0 .5.22385763.5.5s-.22385763.5-.5.5-.5-.22385763-.5-.5.22385763-.5.5-.5zm-2.5 0c.27614237 0 .5.22385763.5.5s-.22385763.5-.5.5-.5-.22385763-.5-.5.22385763-.5.5-.5zm23.75-1.5c.2761424 0 .5.22385763.5.5s-.2238576.5-.5.5-.5-.22385763-.5-.5.2238576-.5.5-.5zm-2.5 0c.2761424 0 .5.22385763.5.5s-.2238576.5-.5.5-.5-.22385763-.5-.5.2238576-.5.5-.5zm-2.5 0c.2761424 0 .5.22385763.5.5s-.2238576.5-.5.5-.5-.22385763-.5-.5.2238576-.5.5-.5zm-2.5 0c.2761424 0 .5.22385763.5.5s-.2238576.5-.5.5-.5-.22385763-.5-.5.2238576-.5.5-.5zm-2.5 0c.2761424 0 .5.22385763.5.5s-.2238576.5-.5.5-.5-.22385763-.5-.5.2238576-.5.5-.5zm-2.5 0c.2761424 0 .5.22385763.5.5s-.2238576.5-.5.5-.5-.22385763-.5-.5.2238576-.5.5-.5zm-2.5 0c.2761424 0 .5.22385763.5.5s-.2238576.5-.5.5-.5-.22385763-.5-.5.2238576-.5.5-.5zm-2.5 0c.27614237 0 .5.22385763.5.5s-.22385763.5-.5.5-.5-.22385763-.5-.5.22385763-.5.5-.5zm-2.5 0c.27614237 0 .5.22385763.5.5s-.22385763.5-.5.5-.5-.22385763-.5-.5.22385763-.5.5-.5zm-2.5 0c.27614237 0 .5.22385763.5.5s-.22385763.5-.5.5-.5-.22385763-.5-.5.22385763-.5.5-.5zm-2.5 0c.27614237 0 .5.22385763.5.5s-.22385763.5-.5.5-.5-.22385763-.5-.5.22385763-.5.5-.5z" transform="translate(1.5 13)"/></svg>