<svg height="32" viewBox="0 0 32 32" width="32" xmlns="http://www.w3.org/2000/svg"><path d="m3.8458278-1.5h12.3083444c1.445672 0 2.2158735.14873277 3.0184946.57797926.7502916.40126034 1.3480936.9990623 1.7493539 1.7493539.4292465.80262115.5779793 1.57282264.5779793 3.01849464v21.3083444c0 1.445672-.1487328 2.2158735-.5779793 3.0184946-.4012603.7502916-.9990623 1.3480936-1.7493539 1.7493539-.8026211.4292465-1.5728226.5779793-3.0184946.5779793h-12.3083444c-1.445672 0-2.21587349-.1487328-3.01849464-.5779793-.7502916-.4012603-1.34809356-.9990623-1.7493539-1.7493539-.42924649-.8026211-.57797926-1.5728226-.57797926-3.0184946v-21.3083444c0-1.445672.14873277-2.21587349.57797926-3.01849464.40126034-.7502916.9990623-1.34809356 1.7493539-1.7493539.80262115-.42924649 1.57282264-.57797926 3.01849464-.57797926zm12.3083444 1.5h-12.3083444c-1.33727811 0-1.82220747.13923842-2.31109636.40069906-.48888888.26146064-.87257174.6451435-1.13403238 1.13403238-.26146064.48888889-.40069906.97381825-.40069906 2.31109636v21.3083444c0 1.3372781.13923842 1.8222075.40069906 2.3110964.26146064.4888888.6451435.8725717 1.13403238 1.1340323.48888889.2614607.97381825.4006991 2.31109636.4006991h12.3083444c1.3372781 0 1.8222075-.1392384 2.3110964-.4006991.4888888-.2614606.8725717-.6451435 1.1340323-1.1340323.2614607-.4888889.4006991-.9738183.4006991-2.3110964v-21.3083444c0-1.33727811-.1392384-1.82220747-.4006991-2.31109636-.2614606-.48888888-.6451435-.87257174-1.1340323-1.13403238-.4888889-.26146064-.9738183-.40069906-2.3110964-.40069906z" transform="translate(6 1.5)"/></svg>