<svg height="32" viewBox="0 0 32 32" width="32" xmlns="http://www.w3.org/2000/svg"><path d="m13 24v-4h-8.80502173c-1.07278832 0-1.68331367-.1142136-2.32064949-.4444129-.60627472-.3141068-1.0913407-.7840145-1.41557997-1.3713431-.34085093-.6174191-.45874881-1.2088655-.45874881-2.2481292v-11.8722296c0-1.03926369.11789788-1.63071012.45874881-2.24812919.32423927-.58732864.80930525-1.05723631 1.41557997-1.3713431.63733582-.33019933 1.24786117-.44441291 2.32064949-.44441291h23.61004343c1.0727884 0 1.6833137.11421358 2.3206495.44441291.6062747.31410679 1.0913407.78401446 1.41558 1.3713431.3408509.61741907.4587488 1.2088655.4587488 2.24812919v11.8722296c0 1.0392637-.1178979 1.6307101-.4587488 2.2481292-.3242393.5873286-.8093053 1.0572363-1.41558 1.3713431-.6373358.3301993-1.2478611.4444129-2.3206495.4444129h-8.8050217v4h4c.5522847 0 1 .4477153 1 1s-.4477153 1-1 1h-14c-.55228475 0-1-.4477153-1-1s.44771525-1 1-1zm14.8050217-22.5h-23.61004343c-.92027741 0-1.25399223.09282561-1.5904319.2671327-.33643966.1743071-.60047948.43009567-.78040939.7560216-.1799299.32592592-.27574988.64921216-.27574988 1.5407309v11.8722296c0 .8915187.09581998 1.214805.27574988 1.5407309.17992991.3259259.44396973.5817145.78040939.7560216.33643967.1743071.67015449.2671327 1.5904319.2671327h23.61004343c.9202774 0 1.2539923-.0928256 1.5904319-.2671327.3364397-.1743071.6004795-.4300957.7804094-.7560216s.2757499-.6492122.2757499-1.5407309v-11.8722296c0-.89151874-.09582-1.21480498-.2757499-1.5407309-.1799299-.32592593-.4439697-.5817145-.7804094-.7560216-.3364396-.17430709-.6701545-.2671327-1.5904319-.2671327zm-10.8050217 18.5h-2v2h2z" transform="translate(0 3)"/></svg>