<svg height="32" viewBox="0 0 32 32" width="32" xmlns="http://www.w3.org/2000/svg"><g transform="translate(1.5 1.5)"><path d="m14.5-1.5c8.836556 0 16 7.163444 16 16s-7.163444 16-16 16-16-7.163444-16-16 7.163444-16 16-16zm0 1.5c-8.00812887 0-14.5 6.49187113-14.5 14.5 0 8.0081289 6.49187113 14.5 14.5 14.5 8.0081289 0 14.5-6.4918711 14.5-14.5 0-8.00812887-6.4918711-14.5-14.5-14.5z"/><path d="m14.5 8.5c3.3137085 0 6 2.6862915 6 6s-2.6862915 6-6 6-6-2.6862915-6-6 2.6862915-6 6-6zm0 1c-2.7614237 0-5 2.2385763-5 5s2.2385763 5 5 5 5-2.2385763 5-5-2.2385763-5-5-5z"/></g></svg>