<svg height="32" viewBox="0 0 32 32" width="32" xmlns="http://www.w3.org/2000/svg"><path d="m20.6541722 0c1.445672 0 2.2158735.14873251 3.0184946.577979.7502916.40126034 1.3480936.9990624 1.7493539 1.749354.4292465.80262115.5779793 1.572823.5779793 3.018495v13.8083442c0 1.445672-.1487328 2.2158735-.5779793 3.0184946-.4012603.7502916-.9990623 1.3480936-1.7493539 1.7493539-.2436191.130289-.4842514.2347342-.7416924.3170207l-1.9987414 5.3276715c-.5488646 1.463639-1.9480673 2.4332871-3.5112344 2.4332871h-10.02995029c-1.6012244 0-3.02579909-1.0166944-3.54632475-2.5309509l-2.01510768-5.8579889c-.51974938-.3763159-.94360443-.8624232-1.25163662-1.4383934-.42924649-.8026211-.57797926-1.5728226-.57797926-3.0184946v-13.8083442c0-1.445672.14873277-2.21587385.57797926-3.018495.40126034-.7502916.9990623-1.34809366 1.7493539-1.749354.80262115-.42924649 1.57282264-.577979 3.01849464-.577979zm-16.9700571 24.3881969 1.57913836 4.5932326c.3123154.9085539 1.16706021 1.5185705 2.12779485 1.5185705h10.02995029c.9379003 0 1.7774219-.5817889 2.1067406-1.4599723l1.7062772-4.5495024c-.180891.0064442-.3734862.0094747-.5798442.0094747h-15.3083444c-.67819771 0-1.20774043-.0327325-1.6617127-.1118031zm16.9700571-22.8881969h-15.3083444c-1.33727811 0-1.82220747.13923836-2.31109636.400699-.48888888.26146064-.87257175.64514311-1.13403238 1.134032-.26146064.48888889-.40069906.97381889-.40069906 2.311097v13.8083442c0 1.3372781.13923842 1.8222075.40069906 2.3110964.26146063.4888888.6451435.8725717 1.13403238 1.1340323.48888889.2614607.97381825.4006991 2.31109636.4006991h15.3083444c1.3372781 0 1.8222075-.1392384 2.3110964-.4006991.4888888-.2614606.8725717-.6451435 1.1340323-1.1340323.2614607-.4888889.4006991-.9738183.4006991-2.3110964v-13.8083442c0-1.33727811-.1392384-1.82220811-.4006991-2.311097-.2614606-.48888889-.6451435-.87257136-1.1340323-1.134032-.4888889-.26146064-.9738183-.400699-2.3110964-.400699zm-.9041722 15.5c.6903559 0 1.25.5596441 1.25 1.25s-.5596441 1.25-1.25 1.25-1.25-.5596441-1.25-1.25.5596441-1.25 1.25-1.25zm-4.5 0c.6903559 0 1.25.5596441 1.25 1.25s-.5596441 1.25-1.25 1.25-1.25-.5596441-1.25-1.25.5596441-1.25 1.25-1.25zm-4.5 0c.6903559 0 1.25.5596441 1.25 1.25s-.5596441 1.25-1.25 1.25-1.25-.5596441-1.25-1.25.5596441-1.25 1.25-1.25zm-4.5 0c.69035594 0 1.25.5596441 1.25 1.25s-.55964406 1.25-1.25 1.25-1.25-.5596441-1.25-1.25.55964406-1.25 1.25-1.25z" transform="translate(3.5)"/></svg>