<svg height="32" viewBox="0 0 32 32" width="32" xmlns="http://www.w3.org/2000/svg"><path d="m25.1541722-1.5c1.445672 0 2.2158735.14873277 3.0184946.57797926.7502916.40126034 1.3480936.9990623 1.7493539 1.7493539.4292465.80262115.5779793 1.57282264.5779793 3.01849464v4.3083444c0 1.445672-.1487328 2.2158735-.5779793 3.0184946-.4012603.7502916-.9990623 1.3480936-1.7493539 1.7493539-.8026211.4292465-1.5728226.5779793-3.0184946.5779793h-21.3083444c-1.445672 0-2.21587349-.1487328-3.01849464-.5779793-.7502916-.4012603-1.34809356-.9990623-1.7493539-1.7493539-.42924649-.8026211-.57797926-1.5728226-.57797926-3.0184946v-4.3083444c0-1.445672.14873277-2.21587349.57797926-3.01849464.40126034-.7502916.9990623-1.34809356 1.7493539-1.7493539.80262115-.42924649 1.57282264-.57797926 3.01849464-.57797926zm-14.6541722 1.5h-6.6541722c-1.33727811 0-1.82220747.13923842-2.31109636.40069906-.48888888.26146064-.87257174.6451435-1.13403238 1.13403238-.26146064.48888889-.40069906.97381825-.40069906 2.31109636v4.3083444c0 1.33727811.13923842 1.82220747.40069906 2.3110964.26146064.4888888.6451435.8725717 1.13403238 1.1340323.48888889.2614607.97381825.4006991 2.31109636.4006991h6.6541722zm14.6541722 0h-12.6541722v12h12.6541722c1.3372781 0 1.8222075-.1392384 2.3110964-.4006991.4888888-.2614606.8725717-.6451435 1.1340323-1.1340323.2614607-.48888893.4006991-.97381829.4006991-2.3110964v-4.3083444c0-1.33727811-.1392384-1.82220747-.4006991-2.31109636-.2614606-.48888888-.6451435-.87257174-1.1340323-1.13403238-.4888889-.26146064-.9738183-.40069906-2.3110964-.40069906zm-2.163376 3c.8259011 0 1.1601236.09282561 1.4860495.2671327.3259259.1743071.5817145.43009567.7560216.7560216.1743071.32592592.2671327.66014843.2671327 1.48604953v.98159234c0 .8259011-.0928256 1.16012361-.2671327 1.48604953-.1743071.32592593-.4300957.5817145-.7560216.7560216-.3259259.17430709-.6601484.2671327-1.4860495.2671327h-4.9815924c-.8259011 0-1.1601236-.09282561-1.4860495-.2671327-.3259259-.1743071-.5817145-.43009567-.7560216-.7560216-.1743071-.32592592-.2671327-.66014843-.2671327-1.48604953v-.98159234c0-.8259011.0928256-1.16012361.2671327-1.48604953.1743071-.32592593.4300957-.5817145.7560216-.7560216.3259259-.17430709.6601484-.2671327 1.4860495-.2671327z" transform="translate(1.5 10)"/></svg>