<svg height="32" viewBox="0 0 32 32" width="32" xmlns="http://www.w3.org/2000/svg"><path d="m25.1541722-1.5c1.445672 0 2.2158735.14873277 3.0184946.57797926.7502916.40126034 1.3480936.9990623 1.7493539 1.7493539.4292465.80262115.5779793 1.57282264.5779793 3.01849464v2.3083444c0 1.445672-.1487328 2.21587349-.5779793 3.01849464-.4012603.7502916-.9990623 1.34809356-1.7493539 1.74935386-.8026211.4292465-1.5728226.5779793-3.0184946.5779793h-21.3083444c-1.445672 0-2.21587349-.1487328-3.01849464-.5779793-.7502916-.4012603-1.34809356-.99906226-1.7493539-1.74935386-.42924649-.80262115-.57797926-1.57282264-.57797926-3.01849464v-2.3083444c0-1.445672.14873277-2.21587349.57797926-3.01849464.40126034-.7502916.9990623-1.34809356 1.7493539-1.7493539.80262115-.42924649 1.57282264-.57797926 3.01849464-.57797926zm0 1.5h-21.3083444c-1.33727811 0-1.82220747.13923842-2.31109636.40069906-.48888888.26146064-.87257174.6451435-1.13403238 1.13403238-.26146064.48888889-.40069906.97381825-.40069906 2.31109636v2.3083444c0 1.33727811.13923842 1.82220747.40069906 2.31109636.26146064.48888888.6451435.87257175 1.13403238 1.13403238.48888889.26146064.97381825.40069906 2.31109636.40069906h21.3083444c1.3372781 0 1.8222075-.13923842 2.3110964-.40069906.4888888-.26146063.8725717-.6451435 1.1340323-1.13403238.2614607-.48888889.4006991-.97381825.4006991-2.31109636v-2.3083444c0-1.33727811-.1392384-1.82220747-.4006991-2.31109636-.2614606-.48888888-.6451435-.87257174-1.1340323-1.13403238-.4888889-.26146064-.9738183-.40069906-2.3110964-.40069906zm-.7951435 4c.2228797 0 .3037012.0232064.3851827.06678318.0814815.04357677.1454287.10752391.1890054.18900539.0435768.08148149.0667832.16230305.0667832.38518273v.7180574c0 .22287968-.0232064.30370124-.0667832.38518273-.0435767.08148148-.1075239.14542862-.1890054.18900539-.0679012.03631398-.1353442.05848187-.2849203.06486244l-.1002624.00192074h-.7180574c-.2228797 0-.3037012-.0232064-.3851827-.06678318-.0814815-.04357677-.1454287-.10752391-.1890054-.18900539-.0435768-.08148149-.0667832-.16230305-.0667832-.38518273v-.7180574c0-.22287968.0232064-.30370124.0667832-.38518273.0435767-.08148148.1075239-.14542862.1890054-.18900539.0814815-.04357678.162303-.06678318.3851827-.06678318zm-5 0c.2228797 0 .3037012.0232064.3851827.06678318.0814815.04357677.1454287.10752391.1890054.18900539.0435768.08148149.0667832.16230305.0667832.38518273v.7180574c0 .22287968-.0232064.30370124-.0667832.38518273-.0435767.08148148-.1075239.14542862-.1890054.18900539-.0679012.03631398-.1353442.05848187-.2849203.06486244l-.1002624.00192074h-.7180574c-.2228797 0-.3037012-.0232064-.3851827-.06678318-.0814815-.04357677-.1454287-.10752391-.1890054-.18900539-.0435768-.08148149-.0667832-.16230305-.0667832-.38518273v-.7180574c0-.22287968.0232064-.30370124.0667832-.38518273.0435767-.08148148.1075239-.14542862.1890054-.18900539.0814815-.04357678.162303-.06678318.3851827-.06678318zm-2.5 0c.2228797 0 .3037012.0232064.3851827.06678318.0814815.04357677.1454287.10752391.1890054.18900539.0435768.08148149.0667832.16230305.0667832.38518273v.7180574c0 .22287968-.0232064.30370124-.0667832.38518273-.0435767.08148148-.1075239.14542862-.1890054.18900539-.0679012.03631398-.1353442.05848187-.2849203.06486244l-.1002624.00192074h-.7180574c-.2228797 0-.3037012-.0232064-.3851827-.06678318-.0814815-.04357677-.1454287-.10752391-.1890054-.18900539-.0435768-.08148149-.0667832-.16230305-.0667832-.38518273v-.7180574c0-.22287968.0232064-.30370124.0667832-.38518273.0435767-.08148148.1075239-.14542862.1890054-.18900539.0814815-.04357678.162303-.06678318.3851827-.06678318zm-2.5 0c.2228797 0 .3037012.0232064.3851827.06678318.0814815.04357677.1454287.10752391.1890054.18900539.0435768.08148149.0667832.16230305.0667832.38518273v.7180574c0 .22287968-.0232064.30370124-.0667832.38518273-.0435767.08148148-.1075239.14542862-.1890054.18900539-.0679012.03631398-.1353442.05848187-.2849203.06486244l-.1002624.00192074h-.7180574c-.2228797 0-.3037012-.0232064-.3851827-.06678318-.0814815-.04357677-.1454287-.10752391-.1890054-.18900539-.0435768-.08148149-.0667832-.16230305-.0667832-.38518273v-.7180574c0-.22287968.0232064-.30370124.0667832-.38518273.0435767-.08148148.1075239-.14542862.1890054-.18900539.0814815-.04357678.162303-.06678318.3851827-.06678318zm-2.5 0c.2228797 0 .3037012.0232064.3851827.06678318.0814815.04357677.1454287.10752391.1890054.18900539.0435768.08148149.0667832.16230305.0667832.38518273v.7180574c0 .22287968-.0232064.30370124-.0667832.38518273-.0435767.08148148-.1075239.14542862-.1890054.18900539-.0679012.03631398-.1353442.05848187-.2849203.06486244l-.1002624.00192074h-.7180574c-.2228797 0-.3037012-.0232064-.3851827-.06678318-.0814815-.04357677-.1454287-.10752391-.1890054-.18900539-.0435768-.08148149-.0667832-.16230305-.0667832-.38518273v-.7180574c0-.22287968.0232064-.30370124.0667832-.38518273.0435767-.08148148.1075239-.14542862.1890054-.18900539.0814815-.04357678.162303-.06678318.3851827-.06678318zm-6.5 0c.22287968 0 .30370124.0232064.38518273.06678318.08148148.04357677.14542862.10752391.18900539.18900539.04357678.08148149.06678318.16230305.06678318.38518273v.7180574c0 .22287968-.0232064.30370124-.06678318.38518273-.04357677.08148148-.10752391.14542862-.18900539.18900539-.06790124.03631398-.13534419.05848187-.28492033.06486244l-.1002624.00192074h-.7180574c-.22287968 0-.30370124-.0232064-.38518273-.06678318-.08148148-.04357677-.14542862-.10752391-.18900539-.18900539-.04357678-.08148149-.06678318-.16230305-.06678318-.38518273v-.7180574c0-.22287968.0232064-.30370124.06678318-.38518273.04357677-.08148148.10752391-.14542862.18900539-.18900539.08148149-.04357678.16230305-.06678318.38518273-.06678318z" transform="translate(1.5 11)"/></svg>