<svg height="32" viewBox="0 0 32 32" width="32" xmlns="http://www.w3.org/2000/svg"><path d="m7.58282045-1.5c1.83560639 0 3.12077205.27540586 4.31090355.91189514 1.157699.6191442 2.0752367 1.53668188 2.6943809 2.69438089.6364892 1.19013148.9118951 2.47529713.9118951 4.31090352v15.16564095c0 1.8356063-.2754059 3.120772-.9118951 4.3109035-.6191442 1.157699-1.5366819 2.0752367-2.6943809 2.6943809-1.1901315.6364892-2.47529716.9118951-4.31090355.9118951h-1.1656409c-1.83560639 0-3.12077204-.2754059-4.31090352-.9118951-1.15769901-.6191442-2.07523669-1.5366819-2.69438089-2.6943809-.63648928-1.1901315-.91189514-2.4752972-.91189514-4.3109035v-15.16564095c0-1.83560639.27540586-3.12077204.91189514-4.31090352.6191442-1.15769901 1.53668188-2.07523669 2.69438089-2.69438089 1.19013148-.63648928 2.47529713-.91189514 4.31090352-.91189514zm0 1.5h-1.1656409c-1.69147083 0-2.70720894.25527043-3.60350523.73461494-.8962963.4793445-1.59971488 1.18276308-2.07905938 2.07905938-.47934451.89629629-.73461494 1.9120344-.73461494 3.60350523v15.16564095c0 1.6914708.25527043 2.7072089.73461494 3.6035052.4793445.8962963 1.18276308 1.5997149 2.07905938 2.0790594.89629629.4793445 1.9120344.7346149 3.60350523.7346149h1.1656409c1.69147083 0 2.70720895-.2552704 3.60350525-.7346149s1.5997149-1.1827631 2.0790594-2.0790594.7346149-1.9120344.7346149-3.6035052v-15.16564095c0-1.69147083-.2552704-2.70720894-.7346149-3.60350523-.4793445-.8962963-1.1827631-1.59971488-2.0790594-2.07905938-.8962963-.47934451-1.91203442-.73461494-3.60350525-.73461494zm-.58282045 21c3.0375661 0 5.5 1.2641372 5.5 2.8235294s-2.4624339 3.1764706-5.5 3.1764706c-3.03756612 0-5.5-1.6170784-5.5-3.1764706s2.46243388-2.8235294 5.5-2.8235294zm.09202428-19.5c1.08109258 0 2.01026803.2091171 2.82485399.64476243.83177303.44483712 1.49352223 1.10658622 1.93835933 1.9383593.4356453.81458596.6447624 1.74376141.6447624 2.82485399v7.18404858c0 1.0810926-.2091171 2.010268-.6447624 2.824854-.4448371.831773-1.1065863 1.4935222-1.93835933 1.9383593-.81458596.4356453-1.74376141.6447624-2.82485399.6447624h-.18404856c-1.08109258 0-2.01026803-.2091171-2.82485399-.6447624-.83177308-.4448371-1.49352218-1.1065863-1.9383593-1.9383593-.43564533-.814586-.64476243-1.7437614-.64476243-2.824854v-7.18404858c0-1.08109258.2091171-2.01026803.64476243-2.82485399.44483712-.83177308 1.10658622-1.49352218 1.9383593-1.9383593.81458596-.43564533 1.74376141-.64476243 2.82485399-.64476243zm0 1.5h-.18404856c-.86556974 0-1.54708533.16244482-2.1174557.46748223s-1.01800038.75266742-1.32303779 1.32303779-.46748223 1.25188596-.46748223 2.1174557v7.18404858c0 .8655697.16244482 1.5470853.46748223 2.1174557s.75266742 1.0180004 1.32303779 1.3230378 1.25188596.4674822 2.1174557.4674822h.18404856c.86556974 0 1.54708533-.1624448 2.1174557-.4674822s1.01800042-.7526674 1.32303782-1.3230378.4674822-1.251886.4674822-2.1174557v-7.18404858c0-.86556974-.1624448-1.54708533-.4674822-2.1174557s-.75266745-1.01800038-1.32303782-1.32303779-1.25188596-.46748223-2.1174557-.46748223zm1.90797572 10.5c.55228475 0 1 .4477153 1 1 0 .5128358-.38604019.9355072-.88337887.9932723l-.11662113.0067277c-.55228475 0-1-.4477153-1-1s.44771525-1 1-1zm-4 0c.55228475 0 1 .4477153 1 1 0 .5128358-.38604019.9355072-.88337887.9932723l-.11662113.0067277c-.55228475 0-1-.4477153-1-1s.44771525-1 1-1zm2-2c.55228475 0 1 .4477153 1 1 0 .5128358-.38604019.9355072-.88337887.9932723l-.11662113.0067277c-.55228475 0-1-.4477153-1-1s.44771525-1 1-1zm2-2c.55228475 0 1 .44771525 1 1 0 .5128358-.38604019.9355072-.88337887.9932723l-.11662113.0067277c-.55228475 0-1-.4477153-1-1 0-.55228475.44771525-1 1-1zm-4 0c.55228475 0 1 .44771525 1 1 0 .5128358-.38604019.9355072-.88337887.9932723l-.11662113.0067277c-.55228475 0-1-.4477153-1-1 0-.55228475.44771525-1 1-1zm2-2c.55228475 0 1 .44771525 1 1 0 .51283584-.38604019.93550716-.88337887.99327227l-.11662113.00672773c-.55228475 0-1-.44771525-1-1s.44771525-1 1-1zm2-2c.55228475 0 1 .44771525 1 1 0 .51283584-.38604019.93550716-.88337887.99327227l-.11662113.00672773c-.55228475 0-1-.44771525-1-1s.44771525-1 1-1zm-4 0c.55228475 0 1 .44771525 1 1 0 .51283584-.38604019.93550716-.88337887.99327227l-.11662113.00672773c-.55228475 0-1-.44771525-1-1s.44771525-1 1-1z" fill-rule="evenodd" transform="translate(9 2)"/></svg>