<svg height="32" viewBox="0 0 32 32" width="32" xmlns="http://www.w3.org/2000/svg" xmlns:xlink="http://www.w3.org/1999/xlink"><linearGradient id="a" x1="64.997477%" x2="37.426306%" y1="84.922098%" y2="50%"><stop offset="0" stop-opacity="0"/><stop offset=".0862099125" stop-opacity=".007843"/><stop offset=".165597668" stop-opacity=".035294"/><stop offset=".239300292" stop-opacity=".078431"/><stop offset=".308454811" stop-opacity=".129412"/><stop offset=".374198251" stop-opacity=".188235"/><stop offset=".437667639" stop-opacity=".254902"/><stop offset=".5" stop-opacity=".32549"/><stop offset=".562332361" stop-opacity=".396078"/><stop offset=".625801749" stop-opacity=".458824"/><stop offset=".691545189" stop-opacity=".521569"/><stop offset=".760699709" stop-opacity=".572549"/><stop offset=".834402332" stop-opacity=".615686"/><stop offset=".913790087" stop-opacity=".639216"/><stop offset="1" stop-opacity=".65098"/></linearGradient><g fill="none" fill-rule="evenodd" transform="translate(6)"><path d="m18 0h-14.999c-1.7832 0-3.001 1.2324-3.001 3v26c0 1.7676 1.2178 3 3.001 3h14.999c1.7812 0 3-1.2324 3-3v-26c0-1.7676-1.2188-3-3-3zm-7.457 4.083c.0322-.0732.0771-.1406.1318-.2002.0566-.0605.1191-.1084.1924-.1465s.1514-.0596.2324-.0625c0 .0078.002.0195.002.0293v.0293c0 .0781-.0146.1543-.0479.2305-.0322.0762-.0752.1436-.1289.2041-.0537.0596-.1123.1074-.1807.1436-.0674.0352-.1348.0537-.2061.0537-.0283 0-.042-.0049-.0449-.0156 0-.0088 0-.0244 0-.0459.0001-.0733.0167-.1466.0499-.2198zm-1.2149.8506c.0371-.1084.0918-.2041.1592-.2822.0703-.0811.1484-.1426.2393-.1865.0908-.042.1875-.0645.2959-.0645.0771 0 .1699.0225.2764.0645.1074.0439.1816.0664.2217.0664.0137 0 .0391-.0068.0771-.0186.0391-.0137.0947-.0342.166-.0586.0684-.0244.123-.04.166-.0498.043-.0078.0859-.0137.1289-.0137.1182 0 .2295.0273.3369.082s.1904.127.252.2168c-.1143.0674-.1963.1484-.248.2412-.0498.0928-.0781.2021-.0781.3271 0 .1309.0371.252.1084.3604s.1699.1904.2979.2471c-.0244.0762-.0557.1484-.0918.2188s-.0742.1367-.1123.1953c-.04.0605-.0781.1123-.1152.1602-.0361.043-.0684.0762-.0918.0977-.04.0371-.082.0654-.126.0859-.043.0205-.0869.0312-.1338.0312-.0303 0-.0664-.0068-.1084-.0176-.043-.0117-.0859-.0254-.1299-.041-.0469-.0146-.0918-.0283-.1367-.04-.0449-.0107-.0859-.0186-.1221-.0186-.041 0-.0859.0078-.1318.0205-.0469.0127-.0947.0264-.1416.042-.0469.0137-.0908.0273-.1318.0391-.04.0137-.0732.0186-.0996.0186-.0361 0-.0713-.0049-.1035-.0186-.0371-.0117-.0723-.0312-.1094-.0605-.0361-.0293-.0752-.0674-.1172-.1172-.041-.0488-.0869-.1084-.1357-.1816-.0481-.0665-.0911-.1407-.1301-.2218s-.0723-.1631-.1006-.251-.0508-.1738-.0654-.2617-.0205-.1729-.0205-.2539c0-.1308.0166-.25.0556-.3574zm4.6719 22.0664c0 .9551-.5371 1.5-1.5 1.5h-4c-.9648 0-1.5-.5449-1.5-1.5v-15c0-.9551.5352-1.5 1.5-1.5h4c.9629 0 1.5.5449 1.5 1.5z" fill="#000" fill-rule="nonzero"/><path d="m12.5 11h-4c-.6455 0-1 .3633-1 1v15c0 .6387.3545 1 1 1h4c.6445 0 1-.3613 1-1v-15c0-.6377-.3555-1-1-1z" fill="url(#a)"/></g></svg>