<svg height="32" viewBox="0 0 32 32" width="32" xmlns="http://www.w3.org/2000/svg" xmlns:xlink="http://www.w3.org/1999/xlink"><linearGradient id="a" x1="91.292809%" x2="60.274026%" y1="68.631497%" y2="30.813396%"><stop offset="0" stop-opacity="0"/><stop offset=".0862099125" stop-opacity=".007843"/><stop offset=".165597668" stop-opacity=".035294"/><stop offset=".239300292" stop-opacity=".078431"/><stop offset=".308454811" stop-opacity=".129412"/><stop offset=".374198251" stop-opacity=".188235"/><stop offset=".437667639" stop-opacity=".254902"/><stop offset=".5" stop-opacity=".32549"/><stop offset=".562332361" stop-opacity=".396078"/><stop offset=".625801749" stop-opacity=".458824"/><stop offset=".691545189" stop-opacity=".521569"/><stop offset=".760699709" stop-opacity=".572549"/><stop offset=".834402332" stop-opacity=".615686"/><stop offset=".913790087" stop-opacity=".639216"/><stop offset="1" stop-opacity=".65098"/></linearGradient><g fill="none" fill-rule="evenodd" transform="translate(0 7)"><path d="m32.0000138 18.1155172c-.0437121.3381345-.3253764.5898518-.6570247.5898518-.004992 0-.010048-.0000656-.01504-.0001966h-1.2480014l-.3520003.2948276h-1.9199381l-.2880003-.2948276h-23.03989633l-.32000034.2948276h-1.91993803l-.32000034-.2948276h-1.34400142c-.29862431-.0268621-.52236855-.2666552-.56032059-.5626621-.00403201-.0313827-.01632002-.0600137-.01583817-.0925103v-.3603448h2.56137686v-16.54290692c-.001216-.02528966-.0016-.05057931-.001024-.07586897.01177601-.59601034.48742452-1.07087931 1.06707313-1.07087931l24.69263413.00019655c.6154886.00746897 1.1127052.51647242 1.1200012 1.14655173v16.54290692h2.5599387zm-3.8720041-17.13537927-10.5280752.00262069c0 .30884828-.2937603.65517241-.6400006.65517241h-1.9200021c-.3432323-.02384827-.6163206-.30341034-.6398726-.65471379l-10.55866721-.00307931c-.25600027 0-.32000033.09932414-.32000033.29587586v16.41364141h24.92661834v-16.38193106c0-.26206897-.064064-.32758621-.3200003-.32758621z" fill="#000"/><path d="m28.1280097.98013793-10.5280752.00262069c0 .30884828-.2937603.65517241-.6400006.65517241h-1.9200021c-.3432323-.02384827-.6163206-.30341034-.6398726-.65471379l-10.55866721-.00307931c-.25600027 0-.32000033.09932414-.32000033.29587586v16.41364141h24.92661834v-16.38193106c0-.26206897-.064064-.32758621-.3200003-.32758621z" fill="url(#a)"/></g></svg>