<svg height="32" viewBox="0 0 32 32" width="32" xmlns="http://www.w3.org/2000/svg" xmlns:xlink="http://www.w3.org/1999/xlink"><linearGradient id="a" x1="62.228867%" x2="45.081922%" y1="62.700131%" y2="45.832615%"><stop offset="0" stop-opacity="0"/><stop offset="1"/></linearGradient><g fill="none" fill-rule="evenodd"><path d="m29.5 0c1.3807119 0 2.5 1.11928813 2.5 2.5v22.5c0 1.3807119-1.1192881 2.5-2.5 2.5h-.412l-1.4171796 2.8354102c-.127044.254088-.3867414.4145898-.6708204.4145898h-4c-.284079 0-.5437764-.1605018-.6708204-.4145898l-1.4181796-2.8354102h-8.823l-1.4171796 2.8354102c-.127044.254088-.3867414.4145898-.6708204.4145898h-4c-.28407904 0-.54377638-.1605018-.67082039-.4145898l-1.41817961-2.8354102h-1.411c-1.38071187 0-2.5-1.1192881-2.5-2.5v-22.5c0-1.38071187 1.11928813-2.5 2.5-2.5zm-19.089 27.5h-4.823l.875 1.75h3.073zm17 0h-4.823l.875 1.75h3.073zm2.089-26h-27c-.55228475 0-1 .44771525-1 1v15.75h19v1.5h-19v5.25c0 .5522847.44771525 1 1 1h27c.5522847 0 1-.4477153 1-1v-5.25h-3v-1.5h3v-15.75c0-.55228475-.4477153-1-1-1zm-12.5 20c.5522847 0 1 .4477153 1 1v1c0 .5522847-.4477153 1-1 1h-1c-.5522847 0-1-.4477153-1-1v-1c0-.5522847.4477153-1 1-1zm-1.5-8c.5522847 0 1 .4477153 1 1v1c0 .5522847-.4477153 1-1 1h-9c-.55228475 0-1-.4477153-1-1v-1c0-.5522847.44771525-1 1-1zm-4.5-9c1.9329966 0 3.5 1.56700338 3.5 3.5s-1.5670034 3.5-3.5 3.5c-1.93299662 0-3.5-1.56700338-3.5-3.5s1.56700338-3.5 3.5-3.5zm0 1.5c-1.1045695 0-2 .8954305-2 2s.8954305 2 2 2 2-.8954305 2-2-.8954305-2-2-2z" fill="#000" fill-rule="nonzero"/><path d="m20.5 1.5h7v24.5h-7z" fill="url(#a)"/></g></svg>