<svg height="32" viewBox="0 0 32 32" width="32" xmlns="http://www.w3.org/2000/svg" xmlns:xlink="http://www.w3.org/1999/xlink"><linearGradient id="a" x1="100%" x2="27.725964%" y1="66.451972%" y2="50%"><stop offset="0" stop-opacity="0"/><stop offset="1"/></linearGradient><g fill="url(#a)" fill-rule="evenodd" transform="translate(1 -4)"><path d="m11.0989734 16.9414328 10.935444-1.7517337c1.4280719-.2287609 2.7712002.7434728 2.999961 2.1715446.0439541.2743897.0439541.5540267 0 .8284164l-1.7517337 10.935444c-.2281007 1.4239513-.4180278 1.9230098-.7250905 2.4334484s-.7126406.9160165-1.2230792 1.2230792-1.0094971.4969898-2.4334484.7250905l-10.93544401 1.7517337c-1.42807186.2287609-2.77120017-.7434728-2.99996103-2.1715446-.04395411-.2743897-.04395411-.5540267 0-.8284164l1.75173369-10.935444c.22810079-1.4239513.41802785-1.9230098.72509055-2.4334484s.71264057-.9160165 1.2230792-1.2230792 1.00949711-.4969898 2.4334484-.7250905z" transform="matrix(-.70710678 -.70710678 .70710678 -.70710678 7.77047 53.666834)"/><path d="m11.0989734 6.49327775 10.935444-1.75173369c1.4280719-.22876086 2.7712002.7434728 2.999961 2.17154467.0439541.2743897.0439541.55402666 0 .82841637l-1.7517337 10.935444c-.2281007 1.4239513-.4180278 1.9230098-.7250905 2.4334484s-.7126406.9160165-1.2230792 1.2230792-1.0094971.4969898-2.4334484.7250905l-10.93544401 1.7517337c-1.42807186.2287609-2.77120017-.7434728-2.99996103-2.1715446-.04395411-.2743897-.04395411-.5540267 0-.8284164l1.75173369-10.935444c.22810079-1.42395129.41802785-1.92300977.72509055-2.4334484s.71264057-.9160165 1.2230792-1.2230792 1.00949711-.49698976 2.4334484-.72509055z" transform="matrix(.70710678 .70710678 -.70710678 .70710678 14.841537 -6.278841)"/></g></svg>