<svg height="32" viewBox="0 0 32 32" width="32" xmlns="http://www.w3.org/2000/svg" xmlns:xlink="http://www.w3.org/1999/xlink"><linearGradient id="a" x1="100%" x2="27.725964%" y1="62.596041%" y2="50%"><stop offset="0" stop-opacity="0"/><stop offset="1"/></linearGradient><path d="m16.0754827.00405528 8.7866298.94711759c.1854498.01998985.3538918.11262403.4651137.25578798l6.5401603 8.41844647c.1868876.24056024.1751539.57252908-.0282942.80049868l-15.5829413 17.4611473c-.120607.1351437-.333061.1512991-.4745292.0360841-.0135718-.0110531-.0262024-.0231191-.0377728-.0360841l-15.58294131-17.4611473c-.2034481-.2279696-.21518178-.55993844-.02829423-.80049868l6.54016036-8.41844647c.11122185-.14316395.27966386-.23579813.46511364-.25578798l8.78662984-.94711759c.0501626-.00540704.1008027-.00540704.1509654 0zm1.633346 1.80609121c-.0558893.0428915-.0690698.11774715-.0338978.17512728l.0120077.01664032 4.9549711 5.89212193c.0480166.0570983.0741901.12814504.0741901.20138628 0 .16871076-.1360093.30707514-.3089975.32048974l-.0276068.00106594h-12.75899106c-.07666888 0-.15104054-.02500325-.21081096-.07087328-.13687574-.10504357-.16508777-.29141339-.06971884-.42842847l.01811569-.02364021 4.95497107-5.89212193c.0457288-.05437761.0411464-.13295116-.0106224-.18213973-.0508291-.04829581-.1301671-.0524941-.185954-.01272876l-.0159775.01324841-6.71254165 6.44708722c-.05366416.05154199-.12765142.07898711-.2036642.07554785-.13981609-.00632607-.24966412-.11343177-.25623764-.24432452l-.00000438-.02480233.2315314-4.66988099c.00309018-.06232761-.04109377-.11778406-.10480395-.13154194-.06648634-.01435744-.13260151.02097451-.15578782.08033224l-.0052272.01676486-1.27187361 5.37493467c-.04350789.18386412-.18841915.32929886-.37618953.38094021l-.03569487.00857003-3.1491503.64813156c-.06200998.0127624-.10628469.06514041-.10628469.12573725 0 .0651165.05065293.11893118.11637161.12744808l.01827008.0011742h3.14137572c.18266913 0 .35198355.0883632.45094388.2331914l.01883713.0297091 7.53580302 12.8412437c.051809.0882841.166225.1233162.262103.0802509.0942104-.0423161.1382568-.1452488.1051237-.2371839l-.0082911-.0195059-6.0921751-12.3776521c-.02528156-.0513654-.03838961-.1074264-.03838961-.1641863 0-.2038428.16545971-.3707681.37507845-.384898l.02884662-.0009689h16.26304704c.0594163 0 .1181008.0125221.1718701.0366734.1931022.0867351.2808291.3008018.2050219.4880296l-.0113565.0253502-6.0921751 12.3776521c-.0450806.0915915-.0084091.2008924.0840066.250385.0908085.0486321.2040873.0230345.2631341-.0561624l.0117949-.0177837 7.535803-12.8412437c.0893265-.1522151.252807-.2500918.4334421-.2617317l.0363389-.0011688h3.1413757c.0634328 0 .1182621-.04229526.1316217-.10153298.014356-.06365592-.0232963-.12645473-.0856632-.14800289l-.0176015-.00482366-3.1491503-.64813156c-.192899-.03970079-.3465979-.17665541-.4025526-.35549959l-.0093317-.03401065-1.2718736-5.37493467c-.0144018-.06086185-.0724535-.10307061-.1376981-.10011853-.0680875.00308062-.1219612.05396086-.1277576.11707413l-.0003634.01748924.2315314 4.66988099c.0036003.0726145-.0251292.14329396-.0790833.19455903-.0988544.09392747-.2548865.09941224-.3604211.01673159l-.0204018-.01771162-6.7125416-6.44708722c-.0514907-.04945439-.1337414-.05383195-.1906638-.01014752z" fill="url(#a)" fill-rule="evenodd" transform="translate(0 2)"/></svg>