<svg height="32" viewBox="0 0 32 32" width="32" xmlns="http://www.w3.org/2000/svg" xmlns:xlink="http://www.w3.org/1999/xlink"><linearGradient id="a" x1="91.292809%" x2="22.978516%" y1="91.461658%" y2="3.992746%"><stop offset="0" stop-opacity="0"/><stop offset=".0862099125" stop-opacity=".007843"/><stop offset=".165597668" stop-opacity=".035294"/><stop offset=".239300292" stop-opacity=".078431"/><stop offset=".308454811" stop-opacity=".129412"/><stop offset=".374198251" stop-opacity=".188235"/><stop offset=".437667639" stop-opacity=".254902"/><stop offset=".5" stop-opacity=".32549"/><stop offset=".562332361" stop-opacity=".396078"/><stop offset=".625801749" stop-opacity=".458824"/><stop offset=".691545189" stop-opacity=".521569"/><stop offset=".760699709" stop-opacity=".572549"/><stop offset=".834402332" stop-opacity=".615686"/><stop offset=".913790087" stop-opacity=".639216"/><stop offset="1" stop-opacity=".65098"/></linearGradient><g fill="none" fill-rule="evenodd" transform="translate(2 1.5)"><path d="m25.4361148 14.75c1.1039167 0 1.4936827.1414508 1.89443.3557728.4585606.2452409.8184415.6051218 1.0636824 1.0636824.214322.4007473.3557728.7905133.3557728 1.89443v7.8722296c0 1.1039167-.1414508 1.4936827-.3557728 1.89443-.2452409.4585606-.6051218.8184415-1.0636824 1.0636824-.4007473.214322-.7905133.3557728-1.89443.3557728h-22.8722296c-1.10391666 0-1.49368267-.1414508-1.89443005-.3557728-.45856052-.2452409-.8184415-.6051218-1.06368235-1.0636824-.21432204-.4007473-.3557728-.7905133-.3557728-1.89443v-7.8722296c0-1.1039167.14145076-1.4936827.3557728-1.89443.24524085-.4585606.60512183-.8184415 1.06368235-1.0636824.40074738-.214322.79051339-.3557728 1.89443005-.3557728z" fill="#000" stroke="#000" stroke-width="1.5"/><path d="m14 1.5c5.5228475 0 10 4.4771525 10 10s-4.4771525 10-10 10-10-4.4771525-10-10 4.4771525-10 10-10zm0 7c-1.6568542 0-3 1.34314575-3 3 0 1.6568542 1.3431458 3 3 3s3-1.3431458 3-3c0-1.65685425-1.3431458-3-3-3z" fill="url(#a)"/><path d="m14 0c6.3512746 0 11.5 5.14872538 11.5 11.5 0 .8587989-.0941371 1.6956109-.2726555 2.5006801l-1.5425181-.0001757c.2057451-.7992016.3151736-1.6370738.3151736-2.5005044 0-5.5228475-4.4771525-10-10-10s-10 4.4771525-10 10c0 .8634306.10942855 1.7013028.31517356 2.5005044l-1.54251811.0001757c-.17851833-.8050692-.27265545-1.6418812-.27265545-2.5006801 0-6.35127462 5.14872538-11.5 11.5-11.5zm0 7.5c2.209139 0 4 1.790861 4 4 0 .9465082-.3287491 1.816233-.8782923 2.5012193l-1.4649092.0001751c.8095244-.5372647 1.3432015-1.4570061 1.3432015-2.5013944 0-1.65685425-1.3431458-3-3-3s-3 1.34314575-3 3c0 1.0443883.5336771 1.9641297 1.3432015 2.5013944l-1.4649092-.0001751c-.5495432-.6849863-.8782923-1.5547111-.8782923-2.5012193 0-2.209139 1.790861-4 4-4z" fill="#000" fill-rule="nonzero"/></g></svg>